SplineFontDB: 3.0
FontName: AMALGAMF13200
FullName: AmalgamF13200
FamilyName: AmalgamF13200
Weight: 
Copyright: thanks to (( tfooo )) :: 070602k+5\nMade for WIPE'OUT" fans of WIPE'OUT" product
Version: 1.0.0
ItalicAngle: 0
UnderlinePosition: -175
UnderlineWidth: 150
Ascent: 800
Descent: 200
LayerCount: 2
Layer: 0 0 "Back"  1
Layer: 1 0 "Fore"  0
XUID: [1021 908 1664711296 30235]
UniqueID: 4029698
FSType: 4
OS2Version: 3
OS2_WeightWidthSlopeOnly: 0
OS2_UseTypoMetrics: 1
CreationTime: 1190266533
ModificationTime: 1262600497
PfmFamily: 81
TTFWeight: 400
TTFWidth: 5
LineGap: 0
VLineGap: 0
Panose: 0 0 5 0 0 0 0 0 0 0
OS2TypoAscent: 800
OS2TypoAOffset: 1
OS2TypoDescent: -200
OS2TypoDOffset: 1
OS2TypoLinegap: 0
OS2WinAscent: 800
OS2WinAOffset: 1
OS2WinDescent: 200
OS2WinDOffset: 1
HheadAscent: 800
HheadAOffset: 1
HheadDescent: -200
HheadDOffset: 1
OS2SubXSize: 650
OS2SubYSize: 600
OS2SubXOff: 0
OS2SubYOff: 75
OS2SupXSize: 650
OS2SupYSize: 600
OS2SupXOff: 0
OS2SupYOff: 350
OS2StrikeYSize: 150
OS2StrikeYPos: 480
OS2Vendor: 'UKWN'
OS2CodePages: 00000001.00000000
OS2UnicodeRanges: 00000003.00000000.00000000.00000000
DEI: 91125
LangName: 1033 "" "" "Regular" "" "AMALGAMA_WIPE'OUT+ACIA" "Version 1.000;PS 1.0.0;hotconv 1.0.50;makeotf.lib2.0.16970" "" "Please refer to the Copyright section for the font trademark attribution notices." "" "" "" "" "" "" "" "" "" "Plain" "Amalgama WIPE'OUT+ACIA" 
Encoding: UnicodeBmp
UnicodeInterp: none
NameList: Adobe Glyph List
DisplaySize: -24
AntiAlias: 1
FitToEm: 0
WinInfo: 48 16 4
BeginPrivate: 8
BlueValues 13 [0 0 800 800]
BlueScale 8 0.039625
BlueFuzz 1 1
StdHW 5 [200]
StdVW 5 [200]
StemSnapH 5 [200]
StemSnapV 5 [200]
ExpansionFactor 4 0.06
EndPrivate
BeginChars: 65556 217

StartChar: .notdef
Encoding: 65536 -1 0
Width: 1100
Flags: MW
HStem: 0 21<136.335 163.665> 300 200<283.335 800 300 800> 600 200<50 350 50 350 350 800>
LayerCount: 2
Fore
SplineSet
800 800 m 2
 966.67 800 1050 716.67 1050 550 c 0
 1050 383.33 966.67 300 800 300 c 2
 300 300 l 2
 266.67 300 250 283.33 250 250 c 2
 250 225 l 1
 50 225 l 1
 50 250 l 2
 50 416.67 133.33 500 300 500 c 2
 800 500 l 2
 833.33 500 850 516.67 850 550 c 0
 850 583.33 833.33 600 800 600 c 2
 350 600 l 1
 50 600 l 1
 50 800 l 1
 350 800 l 1
 800 800 l 2
220.5 170.5 m 0
 240.17 150.83 250 127.33 250 100 c 0
 250 72.6699 240.17 49.1699 220.5 29.5 c 0
 200.83 9.83008 177.33 0 150 0 c 0
 122.67 0 99.1699 9.83008 79.5 29.5 c 0
 59.8301 49.1699 50 72.6699 50 100 c 0
 50 127.33 59.8301 150.83 79.5 170.5 c 0
 99.1699 190.17 122.67 200 150 200 c 0
 177.33 200 200.83 190.17 220.5 170.5 c 0
EndSplineSet
EndChar

StartChar: exclam
Encoding: 33 33 2
Width: 300
Flags: MW
HStem: 0 21G<136.335 163.665> 780 20G<50 250 250 250>
VStem: 50 200<86.335 113.665 300 800>
LayerCount: 2
Fore
SplineSet
250 300 m 1
 50 300 l 1
 50 800 l 1
 250 800 l 1
 250 300 l 1
220.5 170.5 m 0
 240.17 150.83 250 127.33 250 100 c 0
 250 72.6699 240.17 49.1699 220.5 29.5 c 0
 200.83 9.83008 177.33 0 150 0 c 0xa0
 122.67 0 99.1699 9.83008 79.5 29.5 c 0
 59.8301 49.1699 50 72.6699 50 100 c 0
 50 127.33 59.8301 150.83 79.5 170.5 c 0
 99.1699 190.17 122.67 200 150 200 c 0
 177.33 200 200.83 190.17 220.5 170.5 c 0
EndSplineSet
EndChar

StartChar: quotedbl
Encoding: 34 34 3
Width: 600
Flags: MW
HStem: 500 300<50 250 50 250 50 350 350 550>
VStem: 50 200<500 800> 350 200<500 800>
LayerCount: 2
Fore
SplineSet
250 500 m 1
 50 500 l 1
 50 800 l 1
 250 800 l 1
 250 500 l 1
550 500 m 1
 350 500 l 1
 350 800 l 1
 550 800 l 1
 550 500 l 1
EndSplineSet
EndChar

StartChar: numbersign
Encoding: 35 35 4
Width: 750
Flags: MW
HStem: 383 125<106 133 50 190 315 342 106 258 523 550> 592 125<200 227 144 283 408 435 200 352 617 644> 780 20G<321 446 446 446 529 654 654 654>
LayerCount: 2
Fore
SplineSet
190 508 m 1
 227 592 l 1
 144 592 l 1
 200 717 l 1
 283 717 l 1
 321 800 l 1
 446 800 l 1
 408 717 l 1
 492 717 l 1
 529 800 l 1
 654 800 l 1
 617 717 l 1
 700 717 l 1
 644 592 l 1
 560 592 l 1
 523 508 l 1
 606 508 l 1
 550 383 l 1
 467 383 l 1
 429 300 l 1
 304 300 l 1
 342 383 l 1
 258 383 l 1
 221 300 l 1
 96 300 l 1
 133 383 l 1
 50 383 l 1
 106 508 l 1
 190 508 l 1
352 592 m 1
 315 508 l 1
 398 508 l 1
 435 592 l 1
 352 592 l 1
EndSplineSet
EndChar

StartChar: dollar
Encoding: 36 36 5
Width: 800
Flags: MW
HStem: 0 21G<350 450 350 350> 100 105<50 350 50 350 450 605 50 450> 353 105<146 350 194 350 194 450 450 605> 596 105<181 350 194 350 194 450 450 749> 780 20G<350 450 450 450>
VStem: 50 105<504 550 504 585> 350 100<0 100 0 100 205 353 458 596 701 800> 643 106<264.335 313.665>
LayerCount: 2
Fore
SplineSet
450 353 m 1
 450 205 l 1
 605 205 l 2
 630.33 205 643 234.67 643 294 c 0
 643 333.33 630.33 353 605 353 c 2
 450 353 l 1
350 596 m 1
 194 596 l 2
 168 596 155 573 155 527 c 0
 155 481 168 458 194 458 c 2
 350 458 l 1
 350 596 l 1
450 701 m 1
 749 701 l 1
 749 596 l 1
 450 596 l 1
 450 458 l 1
 605 458 l 2
 701 458 749 403.33 749 294 c 0
 749 164.67 701 100 605 100 c 2
 450 100 l 1
 450 0 l 1
 350 0 l 1
 350 100 l 1
 50 100 l 1
 50 205 l 1
 350 205 l 1
 350 353 l 1
 194 353 l 2
 98 353 50 411 50 527 c 0
 50 643 98 701 194 701 c 2
 350 701 l 1
 350 800 l 1
 450 800 l 1xff
 450 701 l 1
EndSplineSet
EndChar

StartChar: percent
Encoding: 37 37 6
Width: 700
Flags: MW
HStem: 0 21G<50 250 50 50> 50 50<493 507 493 513.665> 200 50<493 507> 550 50<193 207 193 213.665> 700 50<193 207> 780 20G<450 650 650 650>
VStem: 100 50<643 657 643 663.665> 250 50<643 657> 400 50<143 157 143 163.665> 550 50<143 157>
LayerCount: 2
Fore
SplineSet
250 0 m 1
 50 0 l 1
 450 800 l 1
 650 800 l 1
 250 0 l 1
270.5 720.5 m 0
 290.17 700.83 300 677.33 300 650 c 0
 300 622.67 290.17 599.17 270.5 579.5 c 0
 250.83 559.83 227.33 550 200 550 c 0
 172.67 550 149.17 559.83 129.5 579.5 c 0
 109.83 599.17 100 622.67 100 650 c 0
 100 677.33 109.83 700.83 129.5 720.5 c 0
 149.17 740.17 172.67 750 200 750 c 0
 227.33 750 250.83 740.17 270.5 720.5 c 0
200 700 m 0
 186 700 174.17 695.17 164.5 685.5 c 0
 154.83 675.83 150 664 150 650 c 0
 150 636 154.83 624.17 164.5 614.5 c 0
 174.17 604.83 186 600 200 600 c 0
 214 600 225.83 604.83 235.5 614.5 c 0
 245.17 624.17 250 636 250 650 c 0
 250 664 245.17 675.83 235.5 685.5 c 0
 225.83 695.17 214 700 200 700 c 0
570.5 220.5 m 0
 590.17 200.83 600 177.33 600 150 c 0
 600 122.67 590.17 99.1699 570.5 79.5 c 0
 550.83 59.8301 527.33 50 500 50 c 0
 472.67 50 449.17 59.8301 429.5 79.5 c 0
 409.83 99.1699 400 122.67 400 150 c 0
 400 177.33 409.83 200.83 429.5 220.5 c 0
 449.17 240.17 472.67 250 500 250 c 0
 527.33 250 550.83 240.17 570.5 220.5 c 0
500 200 m 0
 486 200 474.17 195.17 464.5 185.5 c 0
 454.83 175.83 450 164 450 150 c 0
 450 136 454.83 124.17 464.5 114.5 c 0
 474.17 104.83 486 100 500 100 c 0
 514 100 525.83 104.83 535.5 114.5 c 0
 545.17 124.17 550 136 550 150 c 0
 550 164 545.17 175.83 535.5 185.5 c 0
 525.83 195.17 514 200 500 200 c 0
EndSplineSet
EndChar

StartChar: ampersand
Encoding: 38 38 7
Width: 1000
Flags: MW
HStem: 0.00999451 100 149.99 100 300 100<749.992 800.012> 699.98 100.04
VStem: 100 100 250.01 100 500.02 100 700.01 100
LayerCount: 2
Fore
SplineSet
399.98 800.02 m 2
 450.022 800.021 l 2
 550.022 800.021 600.032 750.011 600.032 650.011 c 2
 600.032 450.021 l 2
 600.032 350.021 550.022 300.011 450.022 300.011 c 2
 350.022 300.011 l 1
 350.022 266.681 366.662 249.99 399.992 249.99 c 2
 600.022 249.99 l 1
 600.022 349.99 649.992 400 749.992 400 c 2
 800.012 400 l 1
 800.012 300 l 1
 749.992 300 l 2
 716.662 300 700.022 283.31 700.022 249.979 c 2
 700.022 244.939 l 1
 766.673 229.949 800.013 181.649 800.013 100.01 c 2
 800.013 0.00976562 l 1
 700.013 0.00976562 l 1
 700.013 100.01 l 2
 700.013 112.66 697.562 122.95 692.662 130.88 c 1
 672.052 43.6299 607.882 0.0195312 500.021 0.0195312 c 2
 299.991 0.0195312 l 2
 166.661 0.0195312 100.001 66.6797 100.001 200.01 c 0
 100.001 315.479 150.011 380.96 250.011 396.43 c 1
 250.011 650.01 l 2
 250.011 750.01 299.98 800.02 399.98 800.02 c 2
400.003 699.98 m 1
 399.992 699.989 l 1
 367.702 699.989 351.072 684.359 350.062 653.079 c 0
 350.032 652.199 350.022 651.18 350.022 650.01 c 2
 350.022 400 l 1
 450.022 400 l 2
 483.353 400 500.043 416.69 500.043 450.021 c 2
 500.043 650.011 l 2
 500.043 683.341 483.353 699.98 450.022 699.98 c 2
 400.003 699.98 l 1
250.143 291.439 m 1
 250.13 291.459 l 1
 216.7 277.659 199.98 247.179 199.98 200.019 c 0
 199.98 133.349 233.311 100.019 299.98 100.019 c 2
 500.011 100.019 l 2
 547.091 100.019 577.541 116.679 591.361 149.999 c 1
 399.981 149.999 l 2
 302.882 149.999 252.952 197.149 250.143 291.439 c 1
EndSplineSet
EndChar

StartChar: quoteright
Encoding: 8217 8217 8
Width: 300
Flags: W
LayerCount: 2
Fore
SplineSet
300 900 m 1
 200 600 l 1
 0 600 l 1
 100 900 l 1
 300 900 l 1
EndSplineSet
EndChar

StartChar: parenleft
Encoding: 40 40 9
Width: 400
Flags: MW
HStem: 0 21G<250 350> 780 20G<250 350>
VStem: 50 200<331.335 464.665 331.335 533.335>
LayerCount: 2
Fore
SplineSet
350 0 m 1
 150 0 50 133.33 50 400 c 0
 50 666.67 150 800 350 800 c 1
 350 600 l 1
 283.33 600 250 532.33 250 397 c 0
 250 265.67 283.33 200 350 200 c 1
 350 0 l 1
EndSplineSet
EndChar

StartChar: parenright
Encoding: 41 41 10
Width: 400
Flags: MW
HStem: 0 21G<50 150> 780 20G<50 150>
VStem: 150 200<335.335 468.665>
LayerCount: 2
Fore
SplineSet
50 800 m 1
 250 800 350 666.67 350 400 c 0
 350 133.33 250 0 50 0 c 1
 50 200 l 1
 116.67 200 150 267.67 150 403 c 0
 150 534.33 116.67 600 50 600 c 1
 50 800 l 1
EndSplineSet
EndChar

StartChar: asterisk
Encoding: 42 42 11
Width: 600
Flags: MW
HStem: 500 100<50 180 50 180 420 550> 780 20G<250 350 350 350>
VStem: 250 100<300 429 300 429 671 800>
LayerCount: 2
Fore
SplineSet
420 500 m 1
 512 408 l 1
 441 338 l 1
 350 429 l 1
 350 300 l 1
 250 300 l 1
 250 429 l 1
 159 338 l 1
 88 408 l 1
 180 500 l 1
 50 500 l 1
 50 600 l 1
 180 600 l 1
 88 692 l 1
 159 762 l 1
 250 671 l 1
 250 800 l 1
 350 800 l 1
 350 671 l 1
 441 762 l 1
 512 692 l 1
 420 600 l 1
 550 600 l 1
 550 500 l 1
 420 500 l 1
EndSplineSet
EndChar

StartChar: plus
Encoding: 43 43 12
Width: 500
Flags: MW
HStem: 300 200<50 150 50 150 350 450>
VStem: 150 200<200 300 200 300 500 600>
LayerCount: 2
Fore
SplineSet
150 600 m 1
 350 600 l 1
 350 500 l 1
 450 500 l 1
 450 300 l 1
 350 300 l 1
 350 200 l 1
 150 200 l 1
 150 300 l 1
 50 300 l 1
 50 500 l 1
 150 500 l 1
 150 600 l 1
EndSplineSet
EndChar

StartChar: comma
Encoding: 44 44 13
Width: 400
Flags: MW
VStem: 50 300
LayerCount: 2
Fore
SplineSet
350 200 m 1
 250 -100 l 1
 50 -100 l 1
 150 200 l 1
 350 200 l 1
EndSplineSet
EndChar

StartChar: hyphen
Encoding: 45 45 14
Width: 500
Flags: MW
HStem: 300 200<50 450 50 450>
LayerCount: 2
Fore
SplineSet
450 300 m 1
 50 300 l 1
 50 500 l 1
 450 500 l 1
 450 300 l 1
EndSplineSet
EndChar

StartChar: period
Encoding: 46 46 15
Width: 300
Flags: MW
HStem: 0 21G<136.335 163.665>
LayerCount: 2
Fore
SplineSet
220.5 170.5 m 0
 240.17 150.83 250 127.33 250 100 c 0
 250 72.6699 240.17 49.1699 220.5 29.5 c 0
 200.83 9.83008 177.33 0 150 0 c 0
 122.67 0 99.1699 9.83008 79.5 29.5 c 0
 59.8301 49.1699 50 72.6699 50 100 c 0
 50 127.33 59.8301 150.83 79.5 170.5 c 0
 99.1699 190.17 122.67 200 150 200 c 0
 177.33 200 200.83 190.17 220.5 170.5 c 0
EndSplineSet
EndChar

StartChar: slash
Encoding: 47 47 16
Width: 700
Flags: W
LayerCount: 2
Fore
SplineSet
50 0 m 1
 250 0 l 1
 650 800 l 1
 450 800 l 1
 50 0 l 1
EndSplineSet
EndChar

StartChar: zero
Encoding: 48 48 17
Width: 1300
Flags: W
LayerCount: 2
Fore
SplineSet
1250 400 m 0
 1250 133.33 1150 0 950 0 c 2
 350 0 l 2
 150 0 50 133.33 50 400 c 0
 50 666.67 150 800 350 800 c 2
 950 800 l 2
 1150 800 1250 666.67 1250 400 c 0
349 600 m 2
 283 600 250 533.33 250 400 c 0
 250 266.67 283.33 200 350 200 c 2
 950 200 l 2
 1016.67 200 1050 266.67 1050 400 c 0
 1050 533.33 1016.67 600 950 600 c 2
 349 600 l 2
EndSplineSet
EndChar

StartChar: one
Encoding: 49 49 18
Width: 400
Flags: W
LayerCount: 2
Fore
SplineSet
400 0 m 1
 200 0 l 1
 200 500 l 2
 200 566.67 166.67 600 100 600 c 2
 0 600 l 1
 0 800 l 1
 100 800 l 2
 300 800 400 700 400 500 c 2
 400 0 l 1
EndSplineSet
EndChar

StartChar: two
Encoding: 50 50 19
Width: 1000
Flags: W
LayerCount: 2
Fore
SplineSet
700 800 m 2
 866.67 800 950 716.67 950 550 c 0
 950 383.33 866.67 300 700 300 c 2
 350 300 l 2
 283.33 300 250 266.67 250 200 c 1
 950 200 l 1
 950 0 l 1
 50 0 l 1
 50 200 l 2
 50 400 150 500 350 500 c 2
 700 500 l 2
 733.33 500 750 516.67 750 550 c 0
 750 583.33 733.33 600 700 600 c 2
 50 600 l 1
 50 800 l 1
 700 800 l 2
EndSplineSet
EndChar

StartChar: three
Encoding: 51 51 20
Width: 900
Flags: W
LayerCount: 2
Fore
SplineSet
550 0 m 2
 50 0 l 1
 50 200 l 1
 550 200 l 2
 616.67 200 650 233.33 650 300 c 1
 50 300 l 1
 50 500 l 1
 650 500 l 1
 650 566.67 617 600 551 600 c 2
 50 600 l 1
 50 800 l 1
 550 800 l 2
 750 800 850 666.67 850 400 c 0
 850 133.33 750 0 550 0 c 2
EndSplineSet
EndChar

StartChar: four
Encoding: 52 52 21
Width: 900
Flags: W
LayerCount: 2
Fore
SplineSet
50 800 m 1
 250 800 l 1
 250 406 l 2
 250 335.33 283.33 300 350 300 c 2
 450 300 l 1
 450 550 l 1
 650 550 l 1
 650 300 l 1
 850 300 l 1
 850 100 l 1
 650 100 l 1
 650 0 l 1
 450 0 l 1
 450 100 l 1
 350 100 l 2
 150 100 50 200 50 400 c 2
 50 800 l 1
EndSplineSet
EndChar

StartChar: five
Encoding: 53 53 22
Width: 1000
Flags: W
LayerCount: 2
Fore
SplineSet
700 0 m 2
 50 0 l 1
 50 200 l 1
 700 200 l 2
 733.33 200 750 216.67 750 250 c 0
 750 283.33 733.33 300 700 300 c 2
 350 300 l 2
 150 300 50 400 50 600 c 2
 50 800 l 1
 950 800 l 1
 950 600 l 1
 250 600 l 1
 250 533.33 283.33 500 350 500 c 2
 700 500 l 2
 866.67 500 950 416.67 950 250 c 0
 950 83.3301 866.67 0 700 0 c 2
EndSplineSet
EndChar

StartChar: six
Encoding: 54 54 23
Width: 1200
Flags: W
LayerCount: 2
Fore
SplineSet
900 0 m 2
 350 0 l 2
 150 0 50 133.33 50 400 c 0
 50 666.67 150 800 350 800 c 2
 1150 800 l 1
 1150 600 l 1
 350 600 l 2
 283.33 600 250 533.33 250 400 c 0
 250 266.67 283.33 200 350 200 c 2
 900 200 l 2
 933.33 200 950 216.67 950 250 c 0
 950 283.33 933.33 300 900 300 c 2
 350 300 l 1
 350 500 l 1
 900 500 l 2
 1066.67 500 1150 416.67 1150 250 c 0
 1150 83.3301 1066.67 0 900 0 c 2
EndSplineSet
EndChar

StartChar: seven
Encoding: 55 55 24
Width: 900
Flags: W
LayerCount: 2
Fore
SplineSet
450 800 m 2
 650 800 750 700 750 500 c 2
 750 400 l 1
 850 400 l 1
 850 200 l 1
 750 200 l 1
 750 0 l 1
 550 0 l 1
 550 200 l 1
 250 200 l 1
 250 400 l 1
 550 400 l 1
 550 500 l 2
 550 566.67 514.67 600 444 600 c 2
 50 600 l 1
 50 800 l 1
 450 800 l 2
EndSplineSet
EndChar

StartChar: eight
Encoding: 56 56 25
Width: 1100
Flags: W
LayerCount: 2
Fore
SplineSet
300 600 m 2
 266.67 600 250 583.33 250 550 c 0
 250 516.67 266.67 500 300 500 c 2
 800 500 l 2
 833.33 500 850 516.67 850 550 c 0
 850 583.33 833.33 600 800 600 c 2
 300 600 l 2
800 200 m 2
 833.33 200 850 216.67 850 250 c 0
 850 283.33 833.33 300 800 300 c 2
 300 300 l 2
 266.67 300 250 283.33 250 250 c 0
 250 216.67 266.67 200 300 200 c 2
 800 200 l 2
800 800 m 2
 966.67 800 1050 716.67 1050 550 c 0
 1050 483.33 1033.33 433.33 1000 400 c 1
 1033.33 366.67 1050 316.67 1050 250 c 0
 1050 83.3301 966.67 0 800 0 c 2
 300 0 l 2
 133.33 0 50 83.3301 50 250 c 0
 49.3301 316.67 66 366.67 100 400 c 1
 66.6699 433.33 50 483.33 50 550 c 0
 50 716.67 133.33 800 300 800 c 2
 800 800 l 2
EndSplineSet
EndChar

StartChar: nine
Encoding: 57 57 26
Width: 1200
Flags: W
LayerCount: 2
Fore
SplineSet
50 500 m 0
 50 700 150 800 350 800 c 2
 850 800 l 2
 1050 800 1150 700 1150 500 c 2
 1150 0 l 1
 950 0 l 1
 950 500 l 2
 950 566.67 916.67 600 850 600 c 2
 350 600 l 2
 283.33 600 250 566.67 250 500 c 0
 250 433.33 283.33 400 350 400 c 2
 900 400 l 1
 900 200 l 1
 350 200 l 2
 150 200 50 300 50 500 c 0
EndSplineSet
EndChar

StartChar: colon
Encoding: 58 58 27
Width: 300
Flags: W
LayerCount: 2
Fore
SplineSet
220.5 470.5 m 0
 240.17 450.83 250 427.33 250 400 c 0
 250 372.67 240.17 349.17 220.5 329.5 c 0
 200.83 309.83 177.33 300 150 300 c 0
 122.67 300 99.1699 309.83 79.5 329.5 c 0
 59.8301 349.17 50 372.67 50 400 c 0
 50 427.33 59.8301 450.83 79.5 470.5 c 0
 99.1699 490.17 122.67 500 150 500 c 0
 177.33 500 200.83 490.17 220.5 470.5 c 0
220.5 170.5 m 0
 240.17 150.83 250 127.33 250 100 c 0
 250 72.6699 240.17 49.1699 220.5 29.5 c 0
 200.83 9.83008 177.33 0 150 0 c 0
 122.67 0 99.1699 9.83008 79.5 29.5 c 0
 59.8301 49.1699 50 72.6699 50 100 c 0
 50 127.33 59.8301 150.83 79.5 170.5 c 0
 99.1699 190.17 122.67 200 150 200 c 0
 177.33 200 200.83 190.17 220.5 170.5 c 0
EndSplineSet
EndChar

StartChar: semicolon
Encoding: 59 59 28
Width: 400
Flags: W
LayerCount: 2
Fore
SplineSet
320.5 470.5 m 0
 340.17 450.83 350 427.33 350 400 c 0
 350 372.67 340.17 349.17 320.5 329.5 c 0
 300.83 309.83 277.33 300 250 300 c 0
 222.67 300 199.17 309.83 179.5 329.5 c 0
 159.83 349.17 150 372.67 150 400 c 0
 150 427.33 159.83 450.83 179.5 470.5 c 0
 199.17 490.17 222.67 500 250 500 c 0
 277.33 500 300.83 490.17 320.5 470.5 c 0
350 200 m 1
 250 -100 l 1
 50 -100 l 1
 150 200 l 1
 350 200 l 1
EndSplineSet
EndChar

StartChar: less
Encoding: 60 60 29
Width: 500
Flags: W
LayerCount: 2
Fore
SplineSet
450 0 m 1
 250 0 l 1
 50 400 l 1
 250 800 l 1
 450 800 l 1
 250 400 l 1
 450 0 l 1
EndSplineSet
EndChar

StartChar: equal
Encoding: 61 61 30
Width: 500
Flags: W
LayerCount: 2
Fore
SplineSet
450 450 m 1
 50 450 l 1
 50 650 l 1
 450 650 l 1
 450 450 l 1
450 150 m 1
 50 150 l 1
 50 350 l 1
 450 350 l 1
 450 150 l 1
EndSplineSet
EndChar

StartChar: greater
Encoding: 62 62 31
Width: 500
Flags: W
LayerCount: 2
Fore
SplineSet
50 800 m 1
 250 800 l 1
 450 400 l 1
 250 0 l 1
 50 0 l 1
 250 400 l 1
 50 800 l 1
EndSplineSet
EndChar

StartChar: question
Encoding: 63 63 32
Width: 1100
Flags: MW
HStem: 0 21<136.335 163.665> 300 200<283.335 800 300 800> 600 200<50 350 50 350 350 800>
LayerCount: 2
Fore
SplineSet
800 800 m 2
 966.67 800 1050 716.67 1050 550 c 0
 1050 383.33 966.67 300 800 300 c 2
 300 300 l 2
 266.67 300 250 283.33 250 250 c 2
 250 225 l 1
 50 225 l 1
 50 250 l 2
 50 416.67 133.33 500 300 500 c 2
 800 500 l 2
 833.33 500 850 516.67 850 550 c 0
 850 583.33 833.33 600 800 600 c 2
 350 600 l 1
 50 600 l 1
 50 800 l 1
 350 800 l 1
 800 800 l 2
220.5 170.5 m 0
 240.17 150.83 250 127.33 250 100 c 0
 250 72.6699 240.17 49.1699 220.5 29.5 c 0
 200.83 9.83008 177.33 0 150 0 c 0
 122.67 0 99.1699 9.83008 79.5 29.5 c 0
 59.8301 49.1699 50 72.6699 50 100 c 0
 50 127.33 59.8301 150.83 79.5 170.5 c 0
 99.1699 190.17 122.67 200 150 200 c 0
 177.33 200 200.83 190.17 220.5 170.5 c 0
EndSplineSet
EndChar

StartChar: at
Encoding: 64 64 33
Width: 1000
Flags: W
LayerCount: 2
Fore
SplineSet
450 200 m 1
 450.01 200 l 1
 317.34 200 250.67 266.33 250 399 c 0
 250 533 316.67 600 450 600 c 2
 550 600 l 2
 683.33 600 750 533.33 750 400 c 2
 750 350 l 2
 750 316.67 766.67 300 800 300 c 0
 833.33 300 850 316.67 850 350 c 2
 850 400 l 2
 850 600 783.33 700 650 700 c 2
 350 700 l 2
 216.67 700 150 600 150 400 c 0
 150 200 216.67 100 350 100 c 2
 850 100 l 1
 850 0 l 1
 350 0 l 2
 150 0 50 133 50 399 c 0
 50 666.33 150 800 350 800 c 2
 650 800 l 2
 849.33 800 949.33 666.67 950 400 c 2
 950 300 l 2
 950 233.33 916.67 200 850 200 c 2
 750 200 l 2
 683.33 200 650 233.33 650 300 c 2
 650 400 l 2
 650 466.67 616.67 500 550 500 c 2
 450 500 l 2
 383.33 500 350 466.67 350 400 c 0
 350 333.33 383.33 300 450 300 c 2
 600 300 l 1
 600 200 l 1
 450 200 l 1
EndSplineSet
EndChar

StartChar: A
Encoding: 65 65 34
Width: 1200
Flags: W
LayerCount: 2
Fore
SplineSet
50 250 m 0
 50 416.67 133.33 500 300 500 c 2
 850 500 l 1
 850 300 l 1
 300 300 l 2
 266.67 300 250 283.33 250 250 c 0
 250 216.67 266.67 200 300 200 c 2
 850 200 l 2
 916.67 200 950 266.67 950 400 c 0
 950 533.33 916.67 600 850 600 c 2
 50 600 l 1
 50 800 l 1
 850 800 l 2
 1050 800 1150 666.67 1150 400 c 0
 1150 133.33 1050 0 850 0 c 2
 300 0 l 2
 133.33 0 50 83.3301 50 250 c 0
EndSplineSet
EndChar

StartChar: B
Encoding: 66 66 35
Width: 1200
Flags: W
LayerCount: 2
Fore
SplineSet
1150 300 m 0
 1150 100 1050 0 850 0 c 2
 350 0 l 2
 150 0 50 100 50 300 c 2
 50 800 l 1
 250 800 l 1
 250 300 l 2
 250 233.33 283.33 200 350 200 c 2
 850 200 l 2
 916.67 200 950 233.33 950 300 c 0
 950 366.67 916.67 400 850 400 c 2
 300 400 l 1
 300 600 l 1
 850 600 l 2
 1050 600 1150 500 1150 300 c 0
EndSplineSet
EndChar

StartChar: C
Encoding: 67 67 36
Width: 900
Flags: W
LayerCount: 2
Fore
SplineSet
850 0 m 1
 350 0 l 2
 150 0 50 133.33 50 400 c 0
 50 666.67 150 800 350 800 c 2
 850 800 l 1
 850 600 l 1
 350 600 l 2
 283.33 600 250 533.33 250 400 c 0
 250 266.67 283.33 200 350 200 c 2
 850 200 l 1
 850 0 l 1
EndSplineSet
EndChar

StartChar: D
Encoding: 68 68 37
Width: 1200
Flags: W
LayerCount: 2
Fore
SplineSet
850 0 m 2
 300 0 l 1
 300 200 l 1
 850 200 l 2
 916.67 200 950 233.33 950 300 c 2
 950 500 l 2
 950 566.67 916.67 600 850 600 c 2
 350 600 l 2
 283.33 600 250 566.67 250 500 c 2
 250 0 l 1
 50 0 l 1
 50 500 l 2
 50 700 150 800 350 800 c 2
 850 800 l 2
 1050 800 1150 700 1150 500 c 2
 1150 300 l 2
 1150 100 1050 0 850 0 c 2
EndSplineSet
EndChar

StartChar: E
Encoding: 69 69 38
Width: 1100
Flags: W
LayerCount: 2
Fore
SplineSet
1100 550 m 0
 1100 383.33 1016.67 300 850 300 c 2
 350 300 l 1
 350 500 l 1
 850 500 l 2
 883.33 500 900 516.67 900 550 c 0
 900 583.33 883.33 600 850 600 c 2
 350 600 l 2
 283.33 600 250 533.33 250 400 c 0
 250 266.67 283.33 200 350 200 c 2
 1100 200 l 1
 1100 0 l 1
 350 -0 l 2
 150 0.669922 50 134 50 400 c 0
 50 666.67 150 800 350 800 c 2
 850 800 l 2
 1016.67 800 1100 716.67 1100 550 c 0
EndSplineSet
EndChar

StartChar: F
Encoding: 70 70 39
Width: 900
Flags: W
LayerCount: 2
Fore
SplineSet
850 800 m 1
 850 600 l 1
 350 600 l 2
 283.33 600 250 566.67 250 500 c 2
 250 400 l 1
 850 400 l 1
 850 200 l 1
 250 200 l 1
 250 0 l 1
 50 0 l 1
 50 500 l 2
 50 700 150 800 350 800 c 2
 850 800 l 1
EndSplineSet
EndChar

StartChar: G
Encoding: 71 71 40
Width: 1200
Flags: W
LayerCount: 2
Fore
SplineSet
900 0 m 2
 350 0 l 2
 150 0 50 133.33 50 400 c 0
 50 666.67 150 800 350 800 c 2
 1150 800 l 1
 1150 600 l 1
 350 600 l 2
 283.33 600 250 533.33 250 400 c 0
 250 266.67 283.33 200 350 200 c 2
 900 200 l 2
 933.33 200 950 216.67 950 250 c 0
 950 283.33 933.33 300 900 300 c 2
 350 300 l 1
 350 500 l 1
 900 500 l 2
 1066.67 500 1150 416.67 1150 250 c 0
 1150 83.3301 1066.67 0 900 0 c 2
EndSplineSet
EndChar

StartChar: H
Encoding: 72 72 41
Width: 900
Flags: W
LayerCount: 2
Fore
SplineSet
850 0 m 1
 650 0 l 1
 650 300 l 1
 250 300 l 1
 250 0 l 1
 50 0 l 1
 50 800 l 1
 250 800 l 1
 250 500 l 1
 650 500 l 1
 650 800 l 1
 850 800 l 1
 850 0 l 1
EndSplineSet
EndChar

StartChar: I
Encoding: 73 73 42
Width: 300
Flags: W
LayerCount: 2
Fore
SplineSet
250 0 m 1
 50 0 l 1
 50 800 l 1
 250 800 l 1
 250 0 l 1
EndSplineSet
EndChar

StartChar: J
Encoding: 74 74 43
Width: 800
Flags: W
LayerCount: 2
Fore
SplineSet
750 300 m 2
 750 100 650 0 450 0 c 2
 50 0 l 1
 50 200 l 1
 450 200 l 2
 516.67 200 550 233.33 550 300 c 2
 550 800 l 1
 750 800 l 1
 750 300 l 2
EndSplineSet
EndChar

StartChar: K
Encoding: 75 75 44
Width: 900
Flags: W
LayerCount: 2
Fore
SplineSet
560 300 m 2
 260 300 l 1
 260 0 l 1
 60 0 l 1
 60 800 l 1
 260 800 l 1
 260 500 l 1
 560 500 l 2
 626.67 500 660 533.33 660 600 c 2
 660 800 l 1
 860 800 l 1
 860 600 l 2
 860 522 826.67 455.33 760 400 c 1
 826.67 344.67 860 278 860 200 c 2
 860 0 l 1
 660 0 l 1
 660 200 l 2
 660 266.67 626.67 300 560 300 c 2
EndSplineSet
EndChar

StartChar: L
Encoding: 76 76 45
Width: 800
Flags: W
LayerCount: 2
Fore
SplineSet
50 800 m 1
 250 800 l 1
 250 300 l 2
 250 233.33 283.33 200 350 200 c 2
 750 200 l 1
 750 0 l 1
 350 0 l 2
 150 0 50 100 50 300 c 2
 50 800 l 1
EndSplineSet
EndChar

StartChar: M
Encoding: 77 77 46
Width: 1300
Flags: W
LayerCount: 2
Fore
SplineSet
1250 450 m 2
 1250 0 l 1
 1050 0 l 1
 1050 450 l 2
 1050 550 1000 600 900 600 c 0
 800 600 750 550 750 450 c 2
 750 0 l 1
 550 0 l 1
 550 450 l 2
 550 550 500 600 400 600 c 0
 300 600 250 550 250 450 c 2
 250 0 l 1
 50 0 l 1
 50 450 l 2
 50 683.33 166.67 800 400 800 c 0
 500 800 583.33 766.67 650 700 c 1
 716.67 766.67 800 800 900 800 c 0
 1133.33 800 1250 683.33 1250 450 c 2
438 188 m 1
 550 150 l 1
 438 113 l 1
 400 0 l 1
 363 113 l 1
 250 150 l 1
 363 188 l 1
 400 300 l 1
 438 188 l 1
EndSplineSet
EndChar

StartChar: N
Encoding: 78 78 47
Width: 800
Flags: W
LayerCount: 2
Fore
SplineSet
438 188 m 1
 550 150 l 1
 438 113 l 1
 400 0 l 1
 363 113 l 1
 250 150 l 1
 363 188 l 1
 400 300 l 1
 438 188 l 1
750 450 m 2
 750 0 l 1
 550 0 l 1
 550 450 l 2
 550 550 500 600 400 600 c 0
 300 600 250 550 250 450 c 2
 250 0 l 1
 50 0 l 1
 50 450 l 2
 50 683.33 166.67 800 400 800 c 0
 633.33 800 750 683.33 750 450 c 2
EndSplineSet
EndChar

StartChar: O
Encoding: 79 79 48
Width: 1300
Flags: W
LayerCount: 2
Fore
SplineSet
1250 400 m 0
 1250 133.33 1150 0 950 0 c 2
 350 0 l 2
 150 0 50 133.33 50 400 c 0
 50 666.67 150 800 350 800 c 2
 950 800 l 2
 1150 800 1250 666.67 1250 400 c 0
349 600 m 2
 283 600 250 533.33 250 400 c 0
 250 266.67 283.33 200 350 200 c 2
 950 200 l 2
 1016.67 200 1050 266.67 1050 400 c 0
 1050 533.33 1016.67 600 950 600 c 2
 349 600 l 2
EndSplineSet
EndChar

StartChar: P
Encoding: 80 80 49
Width: 1200
Flags: W
LayerCount: 2
Fore
SplineSet
850 200 m 2
 300 200 l 1
 300 400 l 1
 850 400 l 2
 916.67 400 950 433.33 950 500 c 0
 950 566.67 916.67 600 850 600 c 2
 350 600 l 2
 283.33 600 250 566.67 250 500 c 2
 250 0 l 1
 50 0 l 1
 50 500 l 2
 50 700 150 800 350 800 c 2
 850 800 l 2
 1050 800 1150 700 1150 500 c 0
 1150 300 1050 200 850 200 c 2
EndSplineSet
EndChar

StartChar: Q
Encoding: 81 81 50
Width: 1300
Flags: W
LayerCount: 2
Fore
SplineSet
450 800 m 2
 950 800 l 2
 1150 800 1250 666.67 1250 400 c 0
 1250 133.33 1150 0 950 0 c 2
 50 0 l 1
 50 200 l 1
 950 200 l 2
 1016.67 200 1050 266.67 1050 400 c 0
 1050 533.33 1016.67 600 950 600 c 2
 450 600 l 2
 383.33 600 350 533.33 350 400 c 2
 350 250 l 1
 150 250 l 1
 150 400 l 2
 150 666.67 250 800 450 800 c 2
EndSplineSet
EndChar

StartChar: R
Encoding: 82 82 51
Width: 1200
Flags: W
LayerCount: 2
Fore
SplineSet
900 800 m 2
 1066.67 800 1150 716.67 1150 550 c 0
 1150 383.33 1066.67 300 900 300 c 2
 550 300 l 2
 516.67 300 500 283.33 500 250 c 0
 500 216.67 516.67 200 550 200 c 2
 1150 200 l 1
 1150 0 l 1
 550 0 l 2
 383.33 0 300 83.3301 300 250 c 0
 300 416.67 383.33 500 550 500 c 2
 900 500 l 2
 933.33 500 950 516.67 950 550 c 0
 950 583.33 933.33 600 900 600 c 2
 300 600 l 2
 266.67 600 250 583.67 250 551 c 2
 250 0 l 1
 50 0 l 1
 50 550 l 2
 50 716.67 133.33 800 300 800 c 2
 900 800 l 2
EndSplineSet
EndChar

StartChar: S
Encoding: 83 83 52
Width: 1000
Flags: W
LayerCount: 2
Fore
SplineSet
950 800 m 1
 950 600 l 1
 300 600 l 2
 266.67 600 250 583.33 250 550 c 0
 250 516.67 266.67 500 300 500 c 2
 700 500 l 2
 866.67 500 950 416.67 950 250 c 0
 950 83.3301 866.67 0 700 0 c 2
 50 0 l 1
 50 200 l 1
 700 200 l 2
 733.33 200 750 216.67 750 250 c 0
 750 283.33 733.33 300 700 300 c 2
 300 300 l 2
 133.33 300 50 383.33 50 550 c 0
 50 716.67 133.33 800 300 800 c 2
 950 800 l 1
EndSplineSet
EndChar

StartChar: T
Encoding: 84 84 53
Width: 900
Flags: W
LayerCount: 2
Fore
SplineSet
850 600 m 1
 550 600 l 1
 550 0 l 1
 350 0 l 1
 350 600 l 1
 50 600 l 1
 50 800 l 1
 850 800 l 1
 850 600 l 1
EndSplineSet
EndChar

StartChar: U
Encoding: 85 85 54
Width: 800
Flags: W
LayerCount: 2
Fore
SplineSet
400 500 m 1
 363 613 l 1
 250 650 l 1
 363 688 l 1
 400 800 l 1
 438 688 l 1
 550 650 l 1
 438 613 l 1
 400 500 l 1
400 0 m 0
 166.67 -0 50 116.67 50 350 c 2
 50 800 l 1
 250 800 l 1
 250 350 l 2
 250 250 300 200 400 200 c 0
 500 200 550 250 550 350 c 2
 550 800 l 1
 750 800 l 1
 750 350 l 2
 750 116.67 633.33 0 400 0 c 0
EndSplineSet
EndChar

StartChar: V
Encoding: 86 86 55
Width: 800
Flags: W
LayerCount: 2
Fore
SplineSet
750 800 m 1
 749.971 399.99 l 2
 749.971 333.32 733.301 283.32 699.971 249.99 c 2
 499.971 49.9902 l 2
 466.641 16.6602 433.311 -0.00976562 399.98 -0.00976562 c 0
 366.65 -0.00976562 333.32 16.6602 299.99 49.9902 c 2
 99.9902 250.99 l 2
 66.6602 283.66 49.9902 333.33 49.9902 400 c 2
 49.9902 800 l 1
 249.99 800 l 1
 249.99 400 l 2
 249.99 366.67 263.32 336.67 289.99 310 c 2
 359.99 240 l 2
 386.66 213.33 413.33 213.33 440 240 c 2
 510 310 l 2
 536.67 336.67 550 366.67 550 400 c 2
 550 800 l 1
 750 800 l 1
EndSplineSet
EndChar

StartChar: W
Encoding: 87 87 56
Width: 1300
Flags: W
LayerCount: 2
Fore
SplineSet
50 350 m 2
 50 800 l 1
 250 800 l 1
 250 350 l 2
 250 250 300 200 400 200 c 0
 500 200 550 250 550 350 c 2
 550 800 l 1
 750 800 l 1
 750 350 l 2
 750 250 800 200 900 200 c 0
 1000 200 1050 250 1050 350 c 2
 1050 800 l 1
 1250 800 l 1
 1250 350 l 2
 1250 116.67 1133.33 0 900 0 c 0
 800 0 716.67 33.3301 650 100 c 1
 583.33 33.3301 500 0 400 0 c 0
 166.67 -0 50 116.67 50 350 c 2
938 688 m 1
 1050 650 l 1
 938 613 l 1
 900 500 l 1
 863 613 l 1
 750 650 l 1
 863 688 l 1
 900 800 l 1
 938 688 l 1
EndSplineSet
EndChar

StartChar: X
Encoding: 88 88 57
Width: 1100
Flags: W
LayerCount: 2
Fore
SplineSet
650 400 m 0
 650 266.67 683.33 200 750 200 c 2
 1050 200 l 1
 1050 0 l 1
 750 0 l 2
 670 -0 603.33 46.6699 550 140 c 1
 496.67 46.6699 430 0 350 0 c 2
 50 0 l 1
 50 200 l 1
 350 200 l 2
 416.67 200 450 266.67 450 400 c 0
 450 533.33 416.67 600 350 600 c 2
 50 600 l 1
 50 800 l 1
 350 800 l 2
 430 800 496.67 754.33 550 663 c 1
 603.33 754.33 670 800 750 800 c 2
 1050 800 l 1
 1050 600 l 1
 750 600 l 2
 683.33 600 650 533.33 650 400 c 0
EndSplineSet
EndChar

StartChar: Y
Encoding: 89 89 58
Width: 900
Flags: W
LayerCount: 2
Fore
SplineSet
350 0 m 1
 350 200 l 1
 150 233.33 50 366.66 50 599.99 c 2
 50 799.99 l 1
 250 799.99 l 1
 250 599.99 l 2
 250 466.66 316.67 399.99 450 399.99 c 0
 583.33 399.99 650 466.66 650 599.99 c 2
 650 799.99 l 1
 850 799.99 l 1
 850 599.99 l 2
 850 366.66 750 233.33 550 200 c 1
 550 0 l 1
 350 0 l 1
488 688 m 1
 600 650 l 1
 488 613 l 1
 450 500 l 1
 413 613 l 1
 300 650 l 1
 413 688 l 1
 450 800 l 1
 488 688 l 1
EndSplineSet
EndChar

StartChar: Z
Encoding: 90 90 59
Width: 1000
Flags: W
LayerCount: 2
Fore
SplineSet
700 800 m 2
 866.67 800 950 716.67 950 550 c 0
 950 383.33 866.67 300 700 300 c 2
 300 300 l 2
 266.67 300 250 283.33 250 250 c 0
 250 216.67 266.67 200 300 200 c 2
 950 200 l 1
 950 0 l 1
 300 0 l 2
 133.33 0 50 83.3301 50 250 c 0
 50 416.67 133.33 500 300 500 c 2
 700 500 l 2
 733.33 500 750 516.67 750 550 c 0
 750 583.33 733.33 600 700 600 c 2
 50 600 l 1
 50 800 l 1
 700 800 l 2
EndSplineSet
EndChar

StartChar: bracketleft
Encoding: 91 91 60
Width: 500
Flags: W
LayerCount: 2
Fore
SplineSet
450 0 m 1
 150 0 l 2
 83.3301 0 50 33.3301 50 100 c 2
 50 700 l 2
 50 766.67 83.3301 800 150 800 c 2
 450 800 l 1
 450 600 l 1
 300 600 l 2
 266.67 600 250 583.33 250 550 c 2
 250 250 l 2
 250 216.67 266.67 200 300 200 c 2
 450 200 l 1
 450 0 l 1
EndSplineSet
EndChar

StartChar: backslash
Encoding: 92 92 61
Width: 700
Flags: W
LayerCount: 2
Fore
SplineSet
251 800 m 1
 50 800 l 1
 451 0 l 1
 650 0 l 1
 251 800 l 1
EndSplineSet
EndChar

StartChar: bracketright
Encoding: 93 93 62
Width: 500
Flags: W
LayerCount: 2
Fore
SplineSet
50 200 m 1
 200 200 l 2
 233.33 200 250 216.67 250 250 c 2
 250 550 l 2
 250 583.33 233.33 600 200 600 c 2
 50 600 l 1
 50 800 l 1
 350 800 l 2
 416.67 800 450 766.67 450 700 c 2
 450 100 l 2
 450 33.3301 416.67 0 350 0 c 2
 50 0 l 1
 50 200 l 1
EndSplineSet
EndChar

StartChar: asciicircum
Encoding: 94 94 63
Width: 700
Flags: W
LayerCount: 2
Fore
SplineSet
650 300 m 1
 650 500 l 1
 350 800 l 1
 50 500 l 1
 50 300 l 1
 350 600 l 1
 650 300 l 1
EndSplineSet
EndChar

StartChar: underscore
Encoding: 95 95 64
Width: 900
Flags: W
LayerCount: 2
Fore
SplineSet
850 0 m 1
 50 0 l 1
 50 200 l 1
 850 200 l 1
 850 0 l 1
EndSplineSet
EndChar

StartChar: quoteleft
Encoding: 8216 8216 65
Width: 300
Flags: MW
VStem: 0 300
LayerCount: 2
Fore
SplineSet
0 900 m 1
 100 600 l 1
 300 600 l 1
 200 900 l 1
 0 900 l 1
EndSplineSet
EndChar

StartChar: a
Encoding: 97 97 66
Width: 1200
Flags: W
LayerCount: 2
Fore
SplineSet
50 300 m 2
 50 500 l 2
 50 700 150 800 350 800 c 2
 850 800 l 2
 1050 800 1150 700 1150 500 c 2
 1150 0 l 1
 950 0 l 1
 950 500 l 2
 950 566.67 916.67 600 850 600 c 2
 350 600 l 2
 283.33 600 250 566.67 250 500 c 2
 250 300 l 2
 250 233.33 283.33 200 350 200 c 2
 900 200 l 1
 900 0 l 1
 350 0 l 2
 150 0 50 100 50 300 c 2
EndSplineSet
EndChar

StartChar: b
Encoding: 98 98 67
Width: 1200
Flags: W
LayerCount: 2
Fore
SplineSet
50 0 m 1
 50 600 l 2
 50 733.33 116.67 800 250 800 c 2
 850 800 l 2
 1050 800 1150 716.67 1150 550 c 0
 1150 488.67 1136.33 438.67 1109 400 c 1
 1136.33 361.33 1150 311.33 1150 250 c 0
 1150 83.3301 1050 0 850 0 c 2
 300 0 l 1
 300 200 l 1
 900 200 l 2
 933.33 200 950 216.67 950 250 c 0
 950 283.33 933.33 300 900 300 c 2
 300 300 l 1
 300 500 l 1
 900 500 l 2
 933.33 500 950 516.67 950 550 c 0
 950 583.33 933.33 600 900 600 c 2
 350 600 l 2
 283.33 600 250 566.67 250 500 c 2
 250 0 l 1
 50 0 l 1
EndSplineSet
EndChar

StartChar: c
Encoding: 99 99 68
Width: 900
Flags: W
LayerCount: 2
Fore
SplineSet
850 0 m 1
 350 0 l 2
 150 0 50 133.33 50 400 c 0
 50 666.67 150 800 350 800 c 2
 850 800 l 1
 850 600 l 1
 350 600 l 2
 283.33 600 250 533.33 250 400 c 0
 250 266.67 283.33 200 350 200 c 2
 850 200 l 1
 850 0 l 1
EndSplineSet
EndChar

StartChar: d
Encoding: 100 100 69
Width: 1200
Flags: W
LayerCount: 2
Fore
SplineSet
350 600 m 2
 900 600 l 1
 900 400 l 1
 350 400 l 2
 283.33 400 250 366.67 250 300 c 0
 250 233.33 283.33 200 350 200 c 2
 850 200 l 2
 916.67 200 950 233.33 950 300 c 2
 950 800 l 1
 1150 800 l 1
 1150 300 l 2
 1150 100 1050 0 850 0 c 2
 350 0 l 2
 150 0 50 100 50 300 c 0
 50 500 150 600 350 600 c 2
EndSplineSet
EndChar

StartChar: e
Encoding: 101 101 70
Width: 900
Flags: W
LayerCount: 2
Fore
SplineSet
50 400 m 0
 50 666.67 150 800 350 800 c 2
 850 800 l 1
 850 600 l 1
 349 600 l 2
 283 600 250 566.67 250 500 c 1
 850 500 l 1
 850 300 l 1
 250 300 l 1
 250 233.33 283.33 200 350 200 c 2
 850 200 l 1
 850 0 l 1
 350 0 l 2
 150 0 50 133.33 50 400 c 0
EndSplineSet
EndChar

StartChar: f
Encoding: 102 102 71
Width: 900
Flags: W
LayerCount: 2
Fore
SplineSet
850 800 m 1
 850 600 l 1
 456 600 l 2
 385.33 600 350 566.67 350 500 c 2
 350 400 l 1
 600 400 l 1
 600 200 l 1
 350 200 l 1
 350 0 l 1
 150 0 l 1
 150 200 l 1
 50 200 l 1
 50 400 l 1
 150 400 l 1
 150 500 l 2
 150 700 250 800 450 800 c 2
 850 800 l 1
EndSplineSet
EndChar

StartChar: g
Encoding: 103 103 72
Width: 1000
Flags: W
LayerCount: 2
Fore
SplineSet
300 800 m 2
 650 800 l 2
 850 800 950 716.67 950 550 c 2
 950 251 l 2
 950 83.6699 850 0 650 0 c 2
 350 0 l 1
 350 200 l 1
 650 200 l 2
 716.67 200 750 266.67 750 400 c 0
 750 533.33 716.67 600 650 600 c 2
 300 600 l 2
 266.67 600 250 583.33 250 550 c 0
 250 516.67 266.67 500 300 500 c 2
 650 500 l 1
 650 300 l 1
 300 300 l 2
 133.33 300 50 383.33 50 550 c 0
 50 716.67 133.33 800 300 800 c 2
EndSplineSet
EndChar

StartChar: h
Encoding: 104 104 73
Width: 800
Flags: W
LayerCount: 2
Fore
SplineSet
350 300 m 2
 250 300 l 1
 250 0 l 1
 50 0 l 1
 50 800 l 1
 250 800 l 1
 250 500 l 1
 350 500 l 2
 616.67 500 750 400 750 200 c 2
 750 0 l 1
 550 0 l 1
 550 200 l 2
 550 266.67 483.33 300 350 300 c 2
EndSplineSet
EndChar

StartChar: i
Encoding: 105 105 74
Width: 300
Flags: W
LayerCount: 2
Fore
SplineSet
50 500 m 1
 250 500 l 1
 250 0 l 1
 50 0 l 1
 50 500 l 1
79.5 629.5 m 0
 59.8301 649.17 50 672.67 50 700 c 0
 50 727.33 59.8301 750.83 79.5 770.5 c 0
 99.1699 790.17 122.67 800 150 800 c 0
 177.33 800 200.83 790.17 220.5 770.5 c 0
 240.17 750.83 250 727.33 250 700 c 0
 250 672.67 240.17 649.17 220.5 629.5 c 0
 200.83 609.83 177.33 600 150 600 c 0
 122.67 600 99.1699 609.83 79.5 629.5 c 0
EndSplineSet
EndChar

StartChar: j
Encoding: 106 106 75
Width: 500
Flags: W
LayerCount: 2
Fore
SplineSet
450 300 m 2
 450 100 350 0 150 0 c 2
 50 0 l 1
 50 200 l 1
 150 200 l 2
 216.67 200 250 233.33 250 300 c 2
 250 550 l 1
 450 550 l 1
 450 300 l 2
279.5 629.5 m 0
 259.83 649.17 250 672.67 250 700 c 0
 250 727.33 259.83 750.83 279.5 770.5 c 0
 299.17 790.17 322.67 800 350 800 c 0
 377.33 800 400.83 790.17 420.5 770.5 c 0
 440.17 750.83 450 727.33 450 700 c 0
 450 672.67 440.17 649.17 420.5 629.5 c 0
 400.83 609.83 377.33 600 350 600 c 0
 322.67 600 299.17 609.83 279.5 629.5 c 0
EndSplineSet
EndChar

StartChar: k
Encoding: 107 107 76
Width: 800
Flags: W
LayerCount: 2
Fore
SplineSet
450 200 m 2
 250 200 l 1
 250 0 l 1
 50 0 l 1
 50 800 l 1
 250 800 l 1
 250 400 l 1
 450 400 l 2
 516.67 400 550 433.33 550 500 c 2
 550 600 l 1
 750 600 l 1
 750 500 l 2
 750 422 716.67 355.33 650 300 c 1
 716.67 244.67 750 178 750 100 c 2
 750 0 l 1
 550 0 l 1
 550 100 l 2
 550 166.67 516.67 200 450 200 c 2
EndSplineSet
EndChar

StartChar: l
Encoding: 108 108 77
Width: 500
Flags: W
LayerCount: 2
Fore
SplineSet
50 800 m 1
 250 800 l 1
 250 300 l 2
 250 233.33 283.33 200 350 200 c 2
 450 200 l 1
 450 0 l 1
 350 0 l 2
 150 0 50 100 50 300 c 2
 50 800 l 1
EndSplineSet
EndChar

StartChar: m
Encoding: 109 109 78
Width: 1300
Flags: W
LayerCount: 2
Fore
SplineSet
1250 450 m 2
 1250 0 l 1
 1050 0 l 1
 1050 450 l 2
 1050 550 1000 600 900 600 c 0
 800 600 750 550 750 450 c 2
 750 0 l 1
 550 0 l 1
 550 450 l 2
 550 550 500 600 400 600 c 0
 300 600 250 550 250 450 c 2
 250 0 l 1
 50 0 l 1
 50 450 l 2
 50 683.33 166.67 800 400 800 c 0
 500 800 583.33 766.67 650 700 c 1
 716.67 766.67 800 800 900 800 c 0
 1133.33 800 1250 683.33 1250 450 c 2
EndSplineSet
EndChar

StartChar: n
Encoding: 110 110 79
Width: 800
Flags: W
LayerCount: 2
Fore
SplineSet
750 450 m 2
 750 0 l 1
 550 0 l 1
 550 450 l 2
 550 550 500 600 400 600 c 0
 300 600 250 550 250 450 c 2
 250 0 l 1
 50 0 l 1
 50 450 l 2
 50 683.33 166.67 800 400 800 c 0
 633.33 800 750 683.33 750 450 c 2
EndSplineSet
EndChar

StartChar: o
Encoding: 111 111 80
Width: 1300
Flags: W
LayerCount: 2
Fore
SplineSet
1250 400 m 0
 1250 133.33 1153.33 0 960 0 c 2
 350 0 l 2
 150 0 50 133.33 50 400 c 0
 50 666.67 150 800 350 800 c 2
 960 800 l 2
 1153.33 800 1250 666.67 1250 400 c 0
349 600 m 2
 283 600 250 533.33 250 400 c 0
 250 266.67 283.33 200 350 200 c 2
 960 200 l 2
 1020 200 1050 266.67 1050 400 c 0
 1050 533.33 1020 600 960 600 c 2
 349 600 l 2
EndSplineSet
EndChar

StartChar: p
Encoding: 112 112 81
Width: 1200
Flags: W
LayerCount: 2
Fore
SplineSet
850 200 m 2
 300 200 l 1
 300 400 l 1
 850 400 l 2
 916.67 400 950 433.33 950 500 c 0
 950 566.67 916.67 600 850 600 c 2
 350 600 l 2
 283.33 600 250 566.67 250 500 c 2
 250 0 l 1
 50 0 l 1
 50 500 l 2
 50 700 150 800 350 800 c 2
 850 800 l 2
 1050 800 1150 700 1150 500 c 0
 1150 300 1050 200 850 200 c 2
EndSplineSet
EndChar

StartChar: q
Encoding: 113 113 82
Width: 1000
Flags: W
LayerCount: 2
Fore
SplineSet
50 500 m 0
 50 700 150 800 350 800 c 2
 550 800 l 2
 750 800 850 700 850 500 c 2
 850 250 l 2
 850 216.67 866.67 200 900 200 c 2
 950 200 l 1
 950 0 l 1
 850 0 l 2
 716.67 -0 650 66.6699 650 200 c 2
 650 500 l 2
 650 566.67 616.67 600 550 600 c 2
 350 600 l 2
 283.33 600 250 566.67 250 500 c 0
 250 433.33 283.33 400 350 400 c 2
 600 400 l 1
 600 200 l 1
 350 200 l 2
 150 200 50 300 50 500 c 0
EndSplineSet
EndChar

StartChar: r
Encoding: 114 114 83
Width: 500
Flags: W
LayerCount: 2
Fore
SplineSet
50 500 m 2
 50 700 150 800 350 800 c 2
 450 800 l 1
 450 600 l 1
 350 600 l 2
 283.33 600 250 566.67 250 500 c 2
 250 0 l 1
 50 0 l 1
 50 500 l 2
EndSplineSet
EndChar

StartChar: s
Encoding: 115 115 84
Width: 800
Flags: W
LayerCount: 2
Fore
SplineSet
750 800 m 1
 750 600 l 1
 300 600 l 2
 266.67 600 250 583.33 250 550 c 0
 250 516.67 266.67 500 300 500 c 2
 500 500 l 2
 666.67 500 750 416.67 750 250 c 0
 750 83.3301 666.67 0 500 0 c 2
 50 0 l 1
 50 200 l 1
 500 200 l 2
 533.33 200 550 216.67 550 250 c 0
 550 283.33 533.33 300 500 300 c 2
 300 300 l 2
 133.33 300 50 383.33 50 550 c 0
 50 716.67 133.33 800 300 800 c 2
 750 800 l 1
EndSplineSet
EndChar

StartChar: t
Encoding: 116 116 85
Width: 900
Flags: HW
LayerCount: 2
Fore
SplineSet
300 600 m 0
 850 600 l 1
 850 400 l 1
 300 400 l 1
 300 400 297 594 300 600 c 0
250 800 m 1
 50 800 l 1
 50 300 l 2
 50 100 150 0 350 0 c 2
 850 0 l 1
 850 200 l 1
 350 200 l 2
 283.33 200 250 233.33 250 300 c 2
 250 400 l 1
 250 800 l 1
EndSplineSet
EndChar

StartChar: u
Encoding: 117 117 86
Width: 800
Flags: W
LayerCount: 2
Fore
SplineSet
50 350 m 2
 50 800 l 1
 250 800 l 1
 250 350 l 2
 250 250 300 200 400 200 c 0
 500 200 550 250 550 350 c 2
 550 800 l 1
 750 800 l 1
 750 350 l 2
 750 116.67 633.33 0 400 0 c 0
 166.67 -0 50 116.67 50 350 c 2
EndSplineSet
EndChar

StartChar: v
Encoding: 118 118 87
Width: 900
Flags: W
LayerCount: 2
Fore
SplineSet
850 800 m 1
 650 200 l 2
 616.67 66.6699 550 0 450 0 c 0
 350 -0 283.33 66.6699 250 200 c 2
 50 800 l 1
 250 800 l 1
 419 230 l 1
 439.67 196.67 460 196.67 480 230 c 1
 650 800 l 1
 850 800 l 1
EndSplineSet
EndChar

StartChar: w
Encoding: 119 119 88
Width: 1300
Flags: W
LayerCount: 2
Fore
SplineSet
50 350 m 2
 50 800 l 1
 250 800 l 1
 250 350 l 2
 250 250 300 200 400 200 c 0
 500 200 550 250 550 350 c 2
 550 800 l 1
 750 800 l 1
 750 350 l 2
 750 250 800 200 900 200 c 0
 1000 200 1050 250 1050 350 c 2
 1050 800 l 1
 1250 800 l 1
 1250 350 l 2
 1250 116.67 1133.33 0 900 0 c 0
 800 0 716.67 33.3301 650 100 c 1
 583.33 33.3301 500 0 400 0 c 0
 166.67 -0 50 116.67 50 350 c 2
EndSplineSet
EndChar

StartChar: x
Encoding: 120 120 89
Width: 900
Flags: W
LayerCount: 2
Fore
SplineSet
550 400 m 0
 550 266.67 583.33 200 650 200 c 2
 850 200 l 1
 850 0 l 1
 650 0 l 2
 570 -0 503.33 46.6699 450 140 c 1
 396.67 46.6699 330 0 250 0 c 2
 50 0 l 1
 50 200 l 1
 250 200 l 2
 316.67 200 350 266.67 350 400 c 0
 350 533.33 316.67 600 250 600 c 2
 50 600 l 1
 50 800 l 1
 250 800 l 2
 330 800 396.67 754.33 450 663 c 1
 503.33 754.33 570 800 650 800 c 2
 850 800 l 1
 850 600 l 1
 650 600 l 2
 583.33 600 550 533.33 550 400 c 0
EndSplineSet
EndChar

StartChar: y
Encoding: 121 121 90
Width: 900
Flags: W
LayerCount: 2
Fore
SplineSet
350 0 m 1
 350 200 l 1
 150 233.33 50 366.66 50 599.99 c 2
 50 799.99 l 1
 250 799.99 l 1
 250 599.99 l 2
 250 466.66 316.67 399.99 450 399.99 c 0
 583.33 399.99 650 466.66 650 599.99 c 2
 650 799.99 l 1
 850 799.99 l 1
 850 599.99 l 2
 850 366.66 750 233.33 550 200 c 1
 550 0 l 1
 350 0 l 1
EndSplineSet
EndChar

StartChar: z
Encoding: 122 122 91
Width: 1000
Flags: W
LayerCount: 2
Fore
SplineSet
50 0 m 1
 50 200 l 2
 50 400 150 500 350 500 c 2
 650 500 l 2
 716.67 500 750 533.33 750 600 c 1
 50 600 l 1
 50 800 l 1
 950 800 l 1
 950 600 l 2
 950 400 850 300 650 300 c 2
 350 300 l 2
 283.33 300 250 266.67 250 200 c 1
 950 200 l 1
 950 0 l 1
 50 0 l 1
EndSplineSet
EndChar

StartChar: braceleft
Encoding: 123 123 92
Width: 500
Flags: W
LayerCount: 2
Fore
SplineSet
450 0 m 1
 350 0 l 2
 216.67 -0 150 66.6699 150 200 c 2
 150 250 l 2
 150 283.33 133.33 300 100 300 c 0
 66.6699 300 50 333.33 50 400 c 0
 50 466.67 66.6699 500 100 500 c 0
 133.33 500 150 516.67 150 550 c 2
 150 600 l 2
 150 733.33 216.67 800 350 800 c 2
 450 800 l 1
 450 600 l 1
 383.33 600 350 566.67 350 500 c 0
 350 446.67 333.33 420 300 420 c 0
 286.67 420 280 413.33 280 400 c 0
 280 386.67 286.67 380 300 380 c 0
 333.33 380 350 353.33 350 300 c 0
 350 233.33 383.33 200 450 200 c 1
 450 0 l 1
EndSplineSet
EndChar

StartChar: bar
Encoding: 124 124 93
Width: 200
Flags: W
LayerCount: 2
Fore
SplineSet
150 0 m 1
 50 0 l 1
 50 800 l 1
 150 800 l 1
 150 0 l 1
EndSplineSet
EndChar

StartChar: braceright
Encoding: 125 125 94
Width: 500
Flags: W
LayerCount: 2
Fore
SplineSet
50 200 m 1
 116.67 200 150 233.33 150 300 c 0
 150 353.33 166.67 380 200 380 c 0
 213.33 380 220 386.67 220 400 c 0
 220 413.33 213.33 420 200 420 c 0
 166.67 420 150 446.67 150 500 c 0
 150 566.67 116.67 600 50 600 c 1
 50 800 l 1
 150 800 l 2
 283.33 800 350 733.33 350 600 c 2
 350 550 l 2
 350 516.67 366.67 500 400 500 c 0
 433.33 500 450 466.67 450 400 c 0
 450 333.33 433.33 300 400 300 c 0
 366.67 300 350 283.33 350 250 c 2
 350 200 l 2
 350 66.6699 283.33 0 150 0 c 2
 50 0 l 1
 50 200 l 1
EndSplineSet
EndChar

StartChar: asciitilde
Encoding: 126 126 95
Width: 500
Flags: W
LayerCount: 2
Fore
SplineSet
450 500 m 1
 450 300 l 1
 383.33 266.67 316.66 266.67 249.99 300 c 0
 183.32 333.33 116.65 333.33 49.9805 300 c 1
 49.9805 400 l 1
 49.9805 500 l 1
 116.65 533.33 183.32 533.33 249.99 500 c 0
 316.66 466.67 383.33 466.67 450 500 c 1
EndSplineSet
EndChar

StartChar: exclamdown
Encoding: 161 161 96
Width: 300
Flags: MW
VStem: 50 200<0 550 0 550 686.335 713.665>
LayerCount: 2
Fore
SplineSet
250 550 m 1
 50 550 l 1
 50 0 l 1
 250 0 l 1
 250 550 l 1
220.5 629.5 m 0
 240.17 649.17 250 672.67 250 700 c 0
 250 727.33 240.17 750.83 220.5 770.5 c 0
 200.83 790.17 177.33 800 150 800 c 0
 122.67 800 99.1699 790.17 79.5 770.5 c 0
 59.8301 750.83 50 727.33 50 700 c 0
 50 672.67 59.8301 649.17 79.5 629.5 c 0
 99.1699 609.83 122.67 600 150 600 c 0
 177.33 600 200.83 609.83 220.5 629.5 c 0
EndSplineSet
EndChar

StartChar: cent
Encoding: 162 162 97
Width: 600
Flags: MW
HStem: 0 21G<300 400 300 300> 150 100<183.335 300 250 300 400 550> 550 100<216.665 300 250 300 400 550> 780 20G<300 400 400 400>
VStem: 50 100<350 450 350 483.335> 300 100<0 150 0 150 250 550 650 800>
LayerCount: 2
Fore
SplineSet
400 250 m 1
 550 250 l 1
 550 150 l 1
 400 150 l 1
 400 0 l 1
 300 0 l 1
 300 150 l 1
 250 150 l 2
 116.67 150 50 233.33 50 400 c 0
 50 566.67 116.67 650 250 650 c 2
 300 650 l 1
 300 800 l 1
 400 800 l 1
 400 650 l 1
 550 650 l 1
 550 550 l 1
 400 550 l 1
 400 250 l 1
300 550 m 1
 250 550 l 2
 183.33 550 150 500 150 400 c 0
 150 300 183.33 250 250 250 c 2
 300 250 l 1
 300 550 l 1
EndSplineSet
EndChar

StartChar: sterling
Encoding: 163 163 98
Width: 1000
Flags: MW
HStem: 0.00878906 149.991<49.9697 227.889 396.501 790.296> 350 150.03<50.0195 250 399.981 599.992> 625.001 175.039<415.021 849.941>
VStem: 250 149.981<172.637 350 500.03 611.592>
LayerCount: 2
Fore
SplineSet
449.991 800.04 m 2
 849.941 800.04 l 1
 849.941 625.001 l 1
 455.981 625.001 l 6
 430 625.001 399.981 599 399.981 575.012 c 2
 399.981 500.03 l 1
 599.992 500.03 l 1
 599.992 350 l 1
 399.981 350 l 1
 399.981 200.99 l 2
 399.981 183.04 398.821 166 396.501 149.88 c 1
 699.961 150.01 l 2
 766.5 150.034 801 145.5 799.961 200.029 c 1
 949.951 200.029 l 1
 949.951 0.0292969 899.951 0.0390625 699.961 0.0488281 c 2
 49.9697 0.00878906 l 1
 49.9697 150 l 1
 150 150 l 2
 208.92 150 242.25 150.02 250 250 c 2
 250 350.04 l 1
 50.0195 350 l 1
 50.0195 500.03 l 1
 250 500.03 l 1
 250 625.012 l 2
 250 736 320 800.04 449.991 800.04 c 2
EndSplineSet
EndChar

StartChar: fraction
Encoding: 8260 8260 99
Width: 750
Flags: HW
LayerCount: 2
Fore
SplineSet
50 0 m 1
 300 0 l 1
 700 800 l 1
 450 800 l 1
 50 0 l 1
EndSplineSet
EndChar

StartChar: florin
Encoding: 402 402 100
Width: 900
Flags: MW
HStem: -200.03 200.03 249.99 200.02 729.37 200
VStem: 300.01 199.99 800.01 200
LayerCount: 2
Fore
SplineSet
250.01 400.001 m 1
 250.02 449.979 l 1
 250.02 529.37 l 2
 250.02 762.7 400 800 550.02 800 c 0
 700 800 850.02 762.7 850.02 529.37 c 2
 850.02 499.991 l 1
 700.02 499.991 l 1
 700 529 l 2
 700 629 630 650 550 650 c 0
 472 650 400 625 400 525 c 2
 400.02 449.979 l 1
 400.01 400 l 1
 600.02 400 l 1
 600.02 249.97 l 1
 400.01 249.97 l 1
 400.01 0 l 2
 400.01 -100 350 -149.985 250 -150 c 2
 50 -150.029 l 1
 50 0 l 1
 200 0 l 2
 240 3.49691e-006 250.01 10 250.01 50 c 2
 250.01 249.98 l 1
 50 249.97 l 1
 50 400.001 l 1
 250.01 400.001 l 1
EndSplineSet
EndChar

StartChar: quotesingle
Encoding: 39 39 101
Width: 300
Flags: MW
VStem: 50 200<650 900 650 900> 75 150<500 516.665>
LayerCount: 2
Fore
SplineSet
50 650 m 1x80
 50 900 l 1
 250 900 l 1
 250 650 l 1x80
 233.33 583.33 225 533.33 225 500 c 1
 75 500 l 1x40
 75 533.33 66.6699 583.33 50 650 c 1x80
EndSplineSet
EndChar

StartChar: quotedblleft
Encoding: 8220 8220 102
Width: 524
Flags: W
LayerCount: 2
Fore
SplineSet
62.4404 650 m 1
 0.229492 900 l 1
 200.229 900 l 1
 262.43 650 l 1
 262.35 583.33 266.46 533.33 274.75 500 c 1
 124.75 500 l 1
 116.46 533.33 95.6904 583.33 62.4404 650 c 1
312.43 650 m 1
 250.219 900 l 1
 450.219 900 l 1
 512.419 650 l 1
 512.339 583.33 516.449 533.33 524.739 500 c 1
 374.739 500 l 1
 366.449 533.33 345.68 583.33 312.43 650 c 1
EndSplineSet
EndChar

StartChar: guillemotleft
Encoding: 171 171 103
Width: 800
Flags: MW
HStem: 0 21G<250 450 250 250 550 550 550 750> 780 20G<250 450 450 450 550 750 750 750>
LayerCount: 2
Fore
SplineSet
450 0 m 1
 250 0 l 1
 50 400 l 1
 250 800 l 1xc0
 450 800 l 1
 250 400 l 1
 450 0 l 1
750 0 m 1
 550 0 l 1
 350 400 l 1
 550 800 l 1xc0
 750 800 l 1x40
 550 400 l 1
 750 0 l 1
EndSplineSet
EndChar

StartChar: periodcentered
Encoding: 183 183 104
Width: 400
Flags: MW
HStem: 400 300<200 200>
VStem: 50 300<550 550>
LayerCount: 2
Fore
SplineSet
238 588 m 1
 350 550 l 1
 238 513 l 1
 200 400 l 1
 163 513 l 1
 50 550 l 1
 163 588 l 1
 200 700 l 1
 238 588 l 1
EndSplineSet
EndChar

StartChar: paragraph
Encoding: 182 182 105
Width: 500
Flags: MW
HStem: 50 24.99 200 24.99 575 24.99
VStem: 50.02 24.99 299.99 99.95 424.93 24.99
LayerCount: 2
Fore
SplineSet
250.01 599.99 m 1
 250.028 600.002 l 1
 305.358 600.002 352.519 580.502 391.509 541.502 c 0
 428.949 504.062 448.419 459.102 449.919 406.611 c 2
 449.959 405.182 l 2
 449.989 404.231 449.999 402.512 449.999 400.021 c 0
 449.969 398.911 449.959 397.191 449.959 394.861 c 2
 449.959 100.031 l 1
 249.999 100.031 l 1
 249.999 125.021 l 1
 299.989 125.021 l 1
 299.989 205.871 l 1
 284.14 201.981 267.479 200.031 250.01 200.031 c 0
 194.66 200.031 147.48 219.531 108.48 258.531 c 0
 69.5107 297.501 50.0205 344.661 50.0205 400.011 c 0
 50.0205 455.36 69.5107 502.521 108.48 541.49 c 0
 147.48 580.49 194.66 599.99 250.01 599.99 c 1
250.028 425.002 m 1
 250.028 424.992 l 1
 242.998 424.992 237.078 422.582 232.258 417.762 c 0
 227.418 412.922 224.998 407.002 224.998 400.002 c 0
 224.998 393.002 227.418 387.082 232.258 382.242 c 0
 237.078 377.422 242.998 375.012 250.028 375.012 c 0
 257.028 375.012 262.938 377.422 267.759 382.242 c 0
 272.599 387.092 275.019 393.012 275.019 400.012 c 0
 275.019 407.012 272.599 412.932 267.759 417.771 c 0
 262.938 422.592 257.028 425.002 250.028 425.002 c 1
424.948 394.082 m 1
 424.969 404.581 l 2
 424.969 449.941 407.898 489.682 373.769 523.812 c 0
 339.608 557.972 298.368 575.052 250.038 575.052 c 0
 201.688 575.052 160.429 557.972 126.269 523.812 c 0
 92.1084 489.651 75.0283 448.392 75.0283 400.042 c 0
 75.0283 351.692 92.1084 310.433 126.269 276.272 c 0
 160.429 242.112 201.688 225.032 250.038 225.032 c 0
 266.308 225.032 282.968 227.872 300.018 233.552 c 1
 300.018 258.032 l 1
 284.647 252.683 267.987 250.013 250.047 250.013 c 0
 208.717 250.013 173.387 264.683 144.047 294.022 c 0
 114.717 323.353 100.047 358.683 100.037 400.013 c 0
 100.037 441.343 114.707 476.673 144.047 506.013 c 0
 173.377 535.343 208.707 550.013 250.037 550.022 c 0
 291.367 550.022 326.697 535.353 356.037 506.013 c 0
 383.777 478.272 398.388 445.133 399.878 406.603 c 2
 399.958 403.872 l 2
 399.988 402.912 399.998 401.622 399.998 400.002 c 2
 399.958 124.992 l 1
 424.948 124.992 l 1
 424.948 394.082 l 1
EndSplineSet
EndChar

StartChar: bullet
Encoding: 8226 8226 106
Width: 500
Flags: MW
HStem: 200 25 575 25
VStem: 50 25 425 25
LayerCount: 2
Fore
SplineSet
250 425 m 0
 243 425 237.08 422.58 232.25 417.75 c 0
 227.42 412.92 225 407 225 400 c 0
 225 393 227.42 387.08 232.25 382.25 c 0
 237.08 377.42 243 375 250 375 c 0
 257 375 262.92 377.42 267.75 382.25 c 0
 272.58 387.08 275 393 275 400 c 0
 275 407 272.58 412.92 267.75 417.75 c 0
 262.92 422.58 257 425 250 425 c 0
200 258 m 1
 200.01 233.48 l 1
 217.01 227.811 233.68 224.98 250.01 224.98 c 0
 298.34 224.98 339.59 242.061 373.76 276.23 c 0
 407.93 310.4 425.01 351.65 425.01 399.98 c 0
 425.01 448.311 407.93 489.561 373.76 523.73 c 0
 339.59 557.9 298.34 574.98 250.01 574.98 c 0
 201.68 574.98 160.43 557.9 126.26 523.73 c 0
 92.0898 489.561 75.0098 448.311 75.0098 399.98 c 0
 75.0098 351.65 83.3398 318.32 100.01 299.99 c 1
 100.01 399.99 l 2
 100.01 441.32 114.68 476.65 144.01 505.98 c 0
 173.34 535.311 208.67 549.98 250 549.98 c 0
 291.33 549.98 326.66 535.311 355.99 505.98 c 0
 385.32 476.65 399.99 441.32 399.99 399.99 c 0
 399.99 358.66 385.32 323.33 355.99 294 c 0
 326.66 264.67 291.33 250 250 250 c 0
 232 250 215.33 252.67 200 258 c 1
450.01 399.98 m 0
 450.01 344.65 430.51 297.48 391.51 258.48 c 0
 352.51 219.48 305.34 199.98 250.01 199.98 c 0
 194.68 199.98 147.51 219.48 108.51 258.48 c 0
 69.5098 297.48 50.0098 344.65 50.0098 399.98 c 0
 50.0098 455.311 69.5098 502.48 108.51 541.48 c 0
 147.51 580.48 194.68 599.98 250.01 599.98 c 0
 305.34 599.98 352.51 580.48 391.51 541.48 c 0
 430.51 502.48 450.01 455.311 450.01 399.98 c 0
EndSplineSet
EndChar

StartChar: quotesinglbase
Encoding: 8218 8218 107
Width: 400
Flags: MW
HStem: 780 20G<150 350 350 350>
VStem: 50 300
LayerCount: 2
Fore
SplineSet
350 800 m 1
 250 500 l 1
 50 500 l 1
 150 800 l 1
 350 800 l 1
EndSplineSet
EndChar

StartChar: quotedblbase
Encoding: 8222 8222 108
Width: 524
Flags: W
LayerCount: 2
Fore
SplineSet
462.56 50 m 1
 524.771 300 l 1
 324.771 300 l 1
 262.57 50 l 1
 262.65 -16.6699 258.54 -66.6699 250.25 -100 c 1
 400.25 -100 l 1
 408.54 -66.6699 429.31 -16.6699 462.56 50 c 1
212.57 50 m 1
 274.781 300 l 1
 74.7812 300 l 1
 12.5811 50 l 1
 12.6611 -16.6699 8.55078 -66.6699 0.260742 -100 c 1
 150.261 -100 l 1
 158.551 -66.6699 179.32 -16.6699 212.57 50 c 1
EndSplineSet
EndChar

StartChar: quotedblright
Encoding: 8221 8221 109
Width: 524
Flags: W
LayerCount: 2
Fore
SplineSet
462.56 650 m 1
 524.771 900 l 1
 324.771 900 l 1
 262.57 650 l 1
 262.65 583.33 258.54 533.33 250.25 500 c 1
 400.25 500 l 1
 408.54 533.33 429.31 583.33 462.56 650 c 1
212.57 650 m 1
 274.781 900 l 1
 74.7812 900 l 1
 12.5811 650 l 1
 12.6611 583.33 8.55078 533.33 0.260742 500 c 1
 150.261 500 l 1
 158.551 533.33 179.32 583.33 212.57 650 c 1
EndSplineSet
EndChar

StartChar: guillemotright
Encoding: 187 187 110
Width: 800
Flags: W
LayerCount: 2
Fore
SplineSet
350 800 m 1
 550 800 l 1
 750 400 l 1
 550 0 l 1
 350 0 l 1
 550 400 l 1
 350 800 l 1
50 800 m 1
 250 800 l 1
 450 400 l 1
 250 0 l 1
 50 0 l 1
 250 400 l 1
 50 800 l 1
EndSplineSet
EndChar

StartChar: questiondown
Encoding: 191 191 111
Width: 1100
Flags: MW
HStem: 0 200<216.665 750 300 750 750 1050> 300 200<283.335 800 300 800> 780 20G<936.335 963.665>
VStem: 850 200<550 575 686.335 713.665>
LayerCount: 2
Fore
SplineSet
879.5 629.5 m 0
 859.83 649.17 850 672.67 850 700 c 0
 850 727.33 859.83 750.83 879.5 770.5 c 0
 899.17 790.17 922.67 800 950 800 c 0
 977.33 800 1000.83 790.17 1020.5 770.5 c 0
 1040.17 750.83 1050 727.33 1050 700 c 0
 1050 672.67 1040.17 649.17 1020.5 629.5 c 0
 1000.83 609.83 977.33 600 950 600 c 0
 922.67 600 899.17 609.83 879.5 629.5 c 0
300 0 m 2
 133.33 0 50 83.3301 50 250 c 0
 50 416.67 133.33 500 300 500 c 2
 800 500 l 2
 833.33 500 850 516.67 850 550 c 2
 850 575 l 1
 1050 575 l 1
 1050 550 l 2
 1050 383.33 966.67 300 800 300 c 2
 300 300 l 2
 266.67 300 250 283.33 250 250 c 0
 250 216.67 266.67 200 300 200 c 2
 750 200 l 1
 1050 200 l 1
 1050 0 l 1
 750 0 l 1
 300 0 l 2
EndSplineSet
EndChar

StartChar: grave
Encoding: 96 96 112
Width: 350
Flags: MW
HStem: 780 20G<50 250 250 250>
VStem: 50 300
LayerCount: 2
Fore
SplineSet
250 800 m 1
 350 500 l 1
 150 500 l 1
 50 800 l 1
 250 800 l 1
EndSplineSet
EndChar

StartChar: acute
Encoding: 180 180 113
Width: 400
Flags: W
LayerCount: 2
Fore
SplineSet
150 800 m 1
 50 500 l 1
 250 500 l 1
 350 800 l 1
 150 800 l 1
EndSplineSet
EndChar

StartChar: circumflex
Encoding: 710 710 114
Width: 1300
Flags: MW
HStem: 900 400<350 650 650 950>
LayerCount: 2
Fore
SplineSet
950 900 m 1
 950 1100 l 1
 650 1300 l 1
 350 1100 l 1
 350 900 l 1
 650 1100 l 1
 950 900 l 1
EndSplineSet
EndChar

StartChar: tilde
Encoding: 732 732 115
Width: 500
Flags: W
LayerCount: 2
Fore
SplineSet
450 980.1 m 1
 450 820.9 l 1
 383.33 794.37 316.66 794.37 249.99 820.9 c 0
 183.32 847.431 116.65 847.431 49.9805 820.9 c 1
 49.9805 900.5 l 1
 49.9805 980.1 l 1
 116.65 1006.63 183.32 1006.63 249.99 980.1 c 0
 316.66 953.569 383.33 953.569 450 980.1 c 1
EndSplineSet
EndChar

StartChar: macron
Encoding: 175 175 116
Width: 800
Flags: MW
HStem: 900 200<0 800 0 800>
LayerCount: 2
Fore
SplineSet
800 900 m 1
 0 900 l 1
 0 1100 l 1
 800 1100 l 1
 800 900 l 1
EndSplineSet
EndChar

StartChar: breve
Encoding: 728 728 117
Width: 1200
Flags: MW
VStem: 300 200<1133.33 1300 1250 1300> 700 200<1200 1300 1250 1300>
LayerCount: 2
Fore
SplineSet
600 1100 m 0
 533.33 1100 500 1150 500 1250 c 2
 500 1300 l 1
 300 1300 l 1
 300 1250 l 2
 300 1016.67 400 900 600 900 c 0
 800 900 900 1016.67 900 1250 c 2
 900 1300 l 1
 700 1300 l 1
 700 1250 l 2
 700 1150 666.67 1100 600 1100 c 0
EndSplineSet
EndChar

StartChar: ring
Encoding: 730 730 118
Width: 299
Flags: MW
HStem: 800 31.24 881.23 31.24
VStem: 50 40.57 209.64 39.36
LayerCount: 2
Fore
SplineSet
149.9 912.47 m 0
 178.971 912.478 202.761 906.968 221.261 895.958 c 0
 239.761 884.948 249.011 871.708 249.011 856.248 c 0
 249.011 840.788 239.761 827.548 221.261 816.528 c 0
 202.761 805.509 178.971 799.999 149.9 799.999 c 0
 120.78 799.999 96.8506 805.519 78.1104 816.549 c 0
 59.3701 827.579 50 840.81 50 856.239 c 0
 50 871.669 59.3701 884.899 78.1104 895.93 c 0
 96.8506 906.96 120.78 912.47 149.9 912.47 c 0
150 881.237 m 1
 150.01 881.248 l 1
 134.33 881.248 120.51 878.888 108.54 874.178 c 0
 96.5703 869.468 90.5801 863.498 90.5801 856.268 c 0
 90.5801 849.037 96.5703 843.057 108.54 838.337 c 0
 120.51 833.617 134.33 831.257 150 831.257 c 0
 165.69 831.257 179.551 833.617 191.581 838.337 c 0
 203.611 843.057 209.631 849.026 209.631 856.257 c 0
 209.631 863.487 203.611 869.457 191.581 874.167 c 0
 179.551 878.877 165.69 881.237 150 881.237 c 1
EndSplineSet
EndChar

StartChar: caron
Encoding: 711 711 119
Width: 1300
Flags: MW
HStem: 900 400<350 650>
LayerCount: 2
Fore
SplineSet
950 1300 m 1
 950 1100 l 1
 650 900 l 1
 350 1100 l 1
 350 1300 l 1
 650 1100 l 1
 950 1300 l 1
EndSplineSet
EndChar

StartChar: Lslash
Encoding: 321 321 120
Width: 1000
Flags: MW
HStem: 0.00999451 199.99 780.02 20G
VStem: 50 199.99
LayerCount: 2
Fore
SplineSet
50 800.02 m 1
 250 800.021 l 1
 250 637.28 l 1
 350 682.851 l 1
 350 463.461 l 1
 250 417.811 l 1
 250 300.011 l 2
 250 233.341 283.33 200.011 349.99 200.011 c 2
 750.01 200.011 l 1
 750.01 0.0205078 l 1
 349.99 0.0205078 l 2
 149.99 0.0205078 49.9902 100.021 50 300.011 c 2
 50 326.551 l 1
 -50 280.9 l 1
 -50 500.67 l 1
 50 546.189 l 1
 50 800.02 l 1
EndSplineSet
EndChar

StartChar: Oslash
Encoding: 216 216 121
Width: 1300
Flags: MW
HStem: 0 200<350 350.01 350.01 450 650.01 950.01> 600 200<316.665 950.01 350.01 650 850 950.01 950.01 951 850 850>
VStem: 50 200 1050 200
LayerCount: 2
Fore
SplineSet
650 600 m 1
 350 600 l 2
 283.33 600 250 533.33 250 400 c 0
 250 266.67 283.33 200 350 200 c 2
 450 200 l 1
 650 600 l 1
850 600 m 1
 650.01 200 l 1
 950.01 200 l 2
 1016.68 200 1050.01 266.67 1050 400 c 0
 1050 533.33 1017 600 951 600 c 2
 850 600 l 1
950.01 800 m 2
 1150.01 800 1250.01 666.67 1250.01 400 c 0
 1250.01 133.33 1150.01 0 950.01 0 c 2
 350.01 0 l 2
 150.01 0 50.0098 133.33 50.0098 400 c 0
 50.0098 666.67 150.01 800 350.01 800 c 2
 950.01 800 l 2
EndSplineSet
EndChar

StartChar: ordmasculine
Encoding: 186 186 122
Width: 500
Flags: MW
HStem: 900 100 1035.5 100 1335.5 100<250 250>
VStem: 50 100<1221.84 1249.18 1221.84 1263.17> 350 100<1221.84 1249.18>
LayerCount: 2
Fore
SplineSet
391.5 1377 m 0
 430.5 1338 450 1290.83 450 1235.5 c 0
 450 1180.17 430.5 1133 391.5 1094 c 0
 352.5 1055 305.33 1035.5 250 1035.5 c 0
 194.67 1035.5 147.5 1055 108.5 1094 c 0
 69.5 1133 50 1180.17 50 1235.5 c 0
 50 1290.84 69.5 1338.01 108.5 1377 c 0
 147.5 1416 194.67 1435.5 250 1435.5 c 0
 305.33 1435.5 352.5 1416 391.5 1377 c 0
250 1335.5 m 0
 222.67 1335.51 199.17 1325.68 179.5 1306.01 c 0
 159.83 1286.35 150 1262.85 150 1235.51 c 0
 150 1208.18 159.83 1184.68 179.5 1165.01 c 0
 199.17 1145.34 222.67 1135.51 250 1135.51 c 0
 277.33 1135.51 300.83 1145.34 320.5 1165.01 c 0
 340.17 1184.68 350 1208.18 350 1235.51 c 0
 350 1262.85 340.17 1286.35 320.5 1306.01 c 0
 300.83 1325.68 277.33 1335.51 250 1335.5 c 0
450 900.01 m 1
 50 900.01 l 1
 50 1000.01 l 1
 450 1000.01 l 1
 450 900.01 l 1
EndSplineSet
EndChar

StartChar: lslash
Encoding: 322 322 123
Width: 500
Flags: MW
HStem: 0.00999451 199.99 780.02 20G
VStem: 50 199.99
LayerCount: 2
Fore
SplineSet
50 800.02 m 1
 250 800.021 l 1
 250 637.32 l 1
 349.99 682.851 l 1
 349.99 463.461 l 1
 250 417.811 l 1
 250 300.011 l 2
 250 233.341 283.33 200.011 349.99 200.011 c 2
 450.03 200.011 l 1
 450.03 0.0205078 l 1
 349.99 0.0205078 l 2
 149.99 0.0205078 49.9902 100.021 50 300.011 c 2
 50 326.551 l 1
 -50 280.9 l 1
 -50 500.67 l 1
 50 546.189 l 1
 50 800.02 l 1
EndSplineSet
EndChar

StartChar: oslash
Encoding: 248 248 124
Width: 1300
Flags: W
LayerCount: 2
Fore
SplineSet
650 600 m 1
 350 600 l 2
 283.33 600 250 533.33 250 400 c 0
 250 266.67 283.33 200 350 200 c 2
 450 200 l 1
 650 600 l 1
850 600 m 1
 650 200 l 1
 950 200 l 2
 1016.67 200 1050 266.67 1050 400 c 0
 1050 533.33 1017 600 951 600 c 2
 850 600 l 1
950 800 m 2
 1150 800 1250 666.67 1250 400 c 0
 1250 133.33 1150 0 950 0 c 2
 350 0 l 1
 350 0 l 1
 150 0 50 133.33 50 400 c 0
 50 666.67 150 800 350 800 c 2
 950 800 l 2
EndSplineSet
EndChar

StartChar: trademark
Encoding: 8482 8482 125
Width: 600
Flags: W
LayerCount: 2
Fore
SplineSet
60 600 m 1
 60 750 l 1
 0 750 l 1
 0 800 l 1
 170 800 l 1
 170 750 l 1
 115 750 l 1
 115 600 l 1
 60 600 l 1
180 600 m 1
 180 800 l 1
 231 800 l 1
 290 670 l 1
 350 800 l 1
 400 800 l 1
 400 600 l 1
 350 600 l 1
 350 700 l 1
 310 600 l 1
 270 600 l 1
 230 700 l 1
 230 600 l 1
 180 600 l 1
EndSplineSet
EndChar

StartChar: Eth
Encoding: 208 208 126
Width: 1300
Flags: MW
HStem: 0 200<150 950.01 400.01 950.01 400.01 950.01> 300 200<50 150 50 150 350 450> 600 200<416.665 950.01 450.01 950>
VStem: 150 200<0 300 0 300> 1050 200
LayerCount: 2
Fore
SplineSet
150 500 m 1
 150.01 500 l 1
 150.01 700 250.01 800 450.01 800 c 2
 950.01 800 l 2
 1150.01 800 1250.01 700 1250.01 500 c 2
 1250.01 300 l 2
 1250.01 100 1150.01 0 950.01 0 c 2
 400.01 0 l 1
 400.01 200 l 1
 950.01 200 l 2
 1016.68 200 1050.01 233.33 1050 300 c 2
 1050 500 l 2
 1050 566.67 1016.67 600 950 600 c 2
 450 600 l 2
 383.33 600 350 566.67 350 500 c 1
 450 500 l 1
 450 300 l 1
 350 300 l 1
 350 0 l 1
 150 0 l 1
 150 300 l 1
 50 300 l 1
 50 500 l 1
 150 500 l 1
EndSplineSet
EndChar

StartChar: onehalf
Encoding: 189 189 127
Width: 1100
Flags: MW
HStem: 0 125<550 550 675 1050> 188 125<717 894 738 894> 375 125<550 894 550 894> 700 100<50 100 50 100>
VStem: 150 100<0 0 400 650>
LayerCount: 2
Fore
SplineSet
150 0 m 1
 250 0 l 1
 650 800 l 1
 550 800 l 1
 150 0 l 1
250 400 m 1
 150 400 l 1
 150 650 l 2
 150 683.33 133.33 700 100 700 c 2
 50 700 l 1
 50 800 l 1
 100 800 l 2
 200 800 250 750 250 650 c 2
 250 400 l 1
894 500 m 2
 998 500 1050 448 1050 344 c 0
 1050 240 998 188 894 188 c 2
 738 188 l 2
 696 188 675 167 675 125 c 1
 1050 125 l 1
 1050 0 l 1
 550 0 l 1
 550 125 l 2
 550 250.33 612.67 313 738 313 c 2
 894 313 l 2
 914.67 313 925 323.33 925 344 c 0
 925 364.67 914.67 375 894 375 c 2
 550 375 l 1
 550 500 l 1
 894 500 l 2
EndSplineSet
EndChar

StartChar: plusminus
Encoding: 177 177 128
Width: 500
Flags: MW
HStem: 50 200<50 450 50 450> 450 200<50 150 50 150 350 450>
VStem: 50 400<50 250 50 250 450 650> 150 200<350 450 350 450 650 750>
LayerCount: 2
Fore
SplineSet
150 750 m 1xd0
 350 750 l 1
 350 650 l 1xd0
 450 650 l 1
 450 450 l 1xe0
 350 450 l 1
 350 350 l 1
 150 350 l 1
 150 450 l 1xd0
 50 450 l 1
 50 650 l 1xe0
 150 650 l 1
 150 750 l 1xd0
450 50 m 1xe0
 50 50 l 1
 50 250 l 1
 450 250 l 1
 450 50 l 1xe0
EndSplineSet
EndChar

StartChar: degree
Encoding: 176 176 129
Width: 500
Flags: MW
HStem: 800 100 1100 100<250 250>
VStem: 50 100<986.345 1013.68 986.345 1027.67> 350 100<986.345 1013.68>
LayerCount: 2
Fore
SplineSet
391.5 1141.5 m 0
 430.5 1102.5 450 1055.33 450 1000 c 0
 450 944.67 430.5 897.5 391.5 858.5 c 0
 352.5 819.5 305.33 800 250 800 c 0
 194.67 800 147.5 819.5 108.5 858.5 c 0
 69.5 897.5 50 944.67 50 1000 c 0
 50 1055.34 69.5 1102.51 108.5 1141.5 c 0
 147.5 1180.5 194.67 1200 250 1200 c 0
 305.33 1200 352.5 1180.5 391.5 1141.5 c 0
250 1100 m 0
 222.67 1100.01 199.17 1090.18 179.5 1070.51 c 0
 159.83 1050.85 150 1027.35 150 1000.01 c 0
 150 972.68 159.83 949.18 179.5 929.51 c 0
 199.17 909.84 222.67 900.01 250 900.01 c 0
 277.33 900.01 300.83 909.84 320.5 929.51 c 0
 340.17 949.18 350 972.68 350 1000.01 c 0
 350 1027.35 340.17 1050.85 320.5 1070.51 c 0
 300.83 1090.18 277.33 1100.01 250 1100 c 0
EndSplineSet
EndChar

StartChar: registered
Encoding: 174 174 130
Width: 300
Flags: MW
HStem: 600 16.52 691.74 16.52 740.17 17.09 783.48 16.52
VStem: 50 16.53 108.41 27.07 171.67 27.64 233.5 16.53
LayerCount: 2
Fore
SplineSet
135.48 740.17 m 1
 135.479 708.251 l 1
 148.59 708.251 l 2
 163.979 708.251 171.67 713.381 171.67 723.641 c 0
 171.67 734.66 163.5 740.17 147.16 740.17 c 2
 135.48 740.17 l 1
108.409 757.251 m 1
 152.011 757.251 l 2
 183.541 757.251 199.311 746.711 199.311 725.631 c 0
 199.311 709.861 191.24 699.981 175.09 695.991 c 1
 199.88 646.421 l 1
 169.68 646.421 l 1
 148.59 691.721 l 1
 135.479 691.721 l 1
 135.479 646.421 l 1
 108.409 646.421 l 1
 108.409 757.251 l 1
150.021 783.461 m 1
 150.011 783.433 l 1
 127.021 783.433 107.641 775.553 91.8711 759.783 c 0
 74.9609 742.883 66.5107 722.942 66.5107 699.962 c 0
 66.5107 677.362 74.5811 657.992 90.7314 641.853 c 0
 107.262 624.952 126.922 616.502 149.722 616.502 c 0
 172.142 616.502 191.901 624.672 209.001 641.002 c 0
 225.341 656.582 233.511 675.672 233.511 698.271 c 0
 233.511 722.201 225.631 742.241 209.861 758.381 c 0
 193.331 775.101 173.381 783.461 150.021 783.461 c 1
149.721 799.952 m 1
 149.729 799.934 l 1
 177.84 799.934 201.77 789.964 221.529 770.023 c 0
 240.529 750.844 250.029 727.384 250.029 699.653 c 0
 250.029 671.543 240.149 647.993 220.39 629.003 c 0
 200.439 609.633 176.88 599.942 149.72 599.942 c 0
 129.77 599.942 111.25 605.643 94.1504 617.043 c 0
 77.2402 628.633 64.9902 643.633 57.3906 662.053 c 0
 52.4502 674.022 49.9805 686.562 49.9805 699.662 c 0
 49.9805 718.082 54.8203 735.462 64.5107 751.802 c 0
 73.6309 767.182 85.6904 779.052 100.7 787.412 c 0
 115.521 795.772 131.86 799.952 149.721 799.952 c 1
EndSplineSet
EndChar

StartChar: copyright
Encoding: 169 169 131
Width: 300
Flags: MW
HStem: 600 16.52 648.29 25.85 725.85 25.85 783.48 16.52
VStem: 50 16.53 96.84 25.85 233.5 16.53
LayerCount: 2
Fore
SplineSet
150.01 783.48 m 1
 150 783.452 l 1
 127.01 783.452 107.63 775.572 91.8604 759.803 c 0
 74.9502 742.902 66.5 722.962 66.5 699.981 c 0
 66.5 677.382 74.5703 658.012 90.7207 641.872 c 0
 107.251 624.972 126.911 616.521 149.711 616.521 c 0
 172.131 616.521 191.891 624.691 208.99 641.021 c 0
 225.33 656.602 233.5 675.691 233.5 698.291 c 0
 233.5 722.221 225.62 742.261 209.851 758.4 c 0
 193.32 775.12 173.37 783.48 150.01 783.48 c 1
149.71 799.972 m 1
 149.719 799.953 l 1
 177.829 799.953 201.759 789.983 221.519 770.043 c 0
 240.519 750.863 250.019 727.403 250.019 699.673 c 0
 250.019 671.562 240.139 648.013 220.379 629.022 c 0
 200.429 609.652 176.869 599.962 149.709 599.962 c 0
 129.759 599.962 111.239 605.662 94.1396 617.062 c 0
 77.2295 628.652 64.9795 643.652 57.3799 662.072 c 0
 52.4395 674.042 49.9697 686.582 49.9697 699.682 c 0
 49.9697 718.102 54.8096 735.481 64.5 751.821 c 0
 73.6201 767.201 85.6797 779.071 100.689 787.432 c 0
 115.51 795.792 131.85 799.972 149.71 799.972 c 1
187.829 648.243 m 1
 136.119 648.253 l 2
 109.919 648.253 96.8193 665.483 96.8193 699.953 c 0
 96.8193 734.423 109.919 751.653 136.119 751.653 c 2
 187.829 751.653 l 1
 187.829 725.804 l 1
 136.119 725.804 l 2
 127.159 725.804 122.679 717.184 122.679 699.943 c 0
 122.679 682.713 127.159 674.093 136.119 674.093 c 2
 187.829 674.093 l 1
 187.829 648.243 l 1
EndSplineSet
EndChar

StartChar: Aacute
Encoding: 193 193 132
Width: 1200
Flags: MW
HStem: 0 200<250 900 350 900 350 1150 350 950> 600 200<316.665 850 350 850> 900 300<400 800 400 800>
VStem: 50 200<300 500> 400 400<900 1200> 950 200<0 500 0 533.335>
LayerCount: 2
Fore
SplineSet
50 300 m 2
 50 500 l 2
 50 700 150 800 350 800 c 2
 850 800 l 2
 1050 800 1150 700 1150 500 c 2
 1150 0 l 1
 950 0 l 1
 950 500 l 2
 950 566.67 916.67 600 850 600 c 2
 350 600 l 2
 283.33 600 250 566.67 250 500 c 2
 250 300 l 2
 250 233.33 283.33 200 350 200 c 2
 900 200 l 1
 900 0 l 1
 350 0 l 2
 150 0 50 100 50 300 c 2
800 1200 m 1
 600 900 l 1
 400 900 l 1
 600 1200 l 1
 800 1200 l 1
EndSplineSet
EndChar

StartChar: Acircumflex
Encoding: 194 194 133
Width: 1200
Flags: MW
HStem: 0 200<250 900 350 900 350 1150 350 950> 600 200<316.665 850 350 850> 900 400<300 600 600 900>
VStem: 50 200<300 500> 950 200<0 500 0 533.335>
LayerCount: 2
Fore
SplineSet
50 300 m 2
 50 500 l 2
 50 700 150 800 350 800 c 2
 850 800 l 2
 1050 800 1150 700 1150 500 c 2
 1150 0 l 1
 950 0 l 1
 950 500 l 2
 950 566.67 916.67 600 850 600 c 2
 350 600 l 2
 283.33 600 250 566.67 250 500 c 2
 250 300 l 2
 250 233.33 283.33 200 350 200 c 2
 900 200 l 1
 900 0 l 1
 350 0 l 2
 150 0 50 100 50 300 c 2
900 900 m 1
 900 1100 l 1
 600 1300 l 1
 300 1100 l 1
 300 900 l 1
 600 1100 l 1
 900 900 l 1
EndSplineSet
EndChar

StartChar: Adieresis
Encoding: 196 196 134
Width: 1200
Flags: MW
HStem: 0 200<250 900 350 900 350 1150 350 950> 600 200<316.665 850 350 850> 900 200<440 453.665 440 453.665>
VStem: 50 200<300 500> 950 200<0 500 0 533.335>
LayerCount: 2
Fore
SplineSet
50 300 m 2
 50 500 l 2
 50 700 150 800 350 800 c 2
 850 800 l 2
 1050 800 1150 700 1150 500 c 2
 1150 0 l 1
 950 0 l 1
 950 500 l 2
 950 566.67 916.67 600 850 600 c 2
 350 600 l 2
 283.33 600 250 566.67 250 500 c 2
 250 300 l 2
 250 233.33 283.33 200 350 200 c 2
 900 200 l 1
 900 0 l 1
 350 0 l 2
 150 0 50 100 50 300 c 2
369.5 1070.5 m 0
 389.17 1090.18 412.67 1100.01 440 1100 c 0
 467.33 1100 490.83 1090.17 510.5 1070.5 c 0
 530.17 1050.83 540 1027.33 540 1000 c 0
 540 972.67 530.17 949.17 510.5 929.5 c 0
 490.83 909.83 467.33 900 440 900 c 0
 412.67 900 389.17 909.83 369.5 929.5 c 0
 349.83 949.17 340 972.67 340 1000 c 0
 340 1027.33 349.83 1050.83 369.5 1070.5 c 0
669.5 1070.51 m 0
 689.17 1090.19 712.67 1100.02 740 1100.01 c 0
 767.33 1100.01 790.83 1090.18 810.5 1070.51 c 0
 830.17 1050.84 840 1027.34 840 1000.01 c 0
 840 972.68 830.17 949.18 810.5 929.51 c 0
 790.83 909.84 767.33 900.01 740 900.01 c 0
 712.67 900.01 689.17 909.84 669.5 929.51 c 0
 649.83 949.18 640 972.68 640 1000.01 c 0
 640 1027.34 649.83 1050.84 669.5 1070.51 c 0
EndSplineSet
EndChar

StartChar: Agrave
Encoding: 192 192 135
Width: 1200
Flags: MW
HStem: 0 200<250 900 350 900 350 1150 350 950> 600 200<316.665 850 350 850> 900 300<400 800 400 600>
VStem: 50 200<300 500> 400 400<900 1200> 950 200<0 500 0 533.335>
LayerCount: 2
Fore
SplineSet
50 300 m 2
 50 500 l 2
 50 700 150 800 350 800 c 2
 850 800 l 2
 1050 800 1150 700 1150 500 c 2
 1150 0 l 1
 950 0 l 1
 950 500 l 2
 950 566.67 916.67 600 850 600 c 2
 350 600 l 2
 283.33 600 250 566.67 250 500 c 2
 250 300 l 2
 250 233.33 283.33 200 350 200 c 2
 900 200 l 1
 900 0 l 1
 350 0 l 2
 150 0 50 100 50 300 c 2
600 1200 m 1
 800 900 l 1
 600 900 l 1
 400 1200 l 1
 600 1200 l 1
EndSplineSet
EndChar

StartChar: Aring
Encoding: 197 197 136
Width: 1200
Flags: MW
HStem: 0 200<250 900 350 900 350 1150 350 950> 600 200<316.665 850 350 850> 800 100 1100 100<600 600>
VStem: 50 200<300 500> 400 100<986.345 1013.68 986.345 1027.67> 700 100<986.345 1013.68> 950 200<0 500 0 533.335>
LayerCount: 2
Fore
SplineSet
50 300 m 2
 50 500 l 2
 50 700 150 800 350 800 c 2
 850 800 l 2
 1050 800 1150 700 1150 500 c 2
 1150 0 l 1
 950 0 l 1
 950 500 l 2
 950 566.67 916.67 600 850 600 c 2
 350 600 l 2
 283.33 600 250 566.67 250 500 c 2
 250 300 l 2
 250 233.33 283.33 200 350 200 c 2
 900 200 l 1
 900 0 l 1
 350 0 l 2
 150 0 50 100 50 300 c 2
741.5 1141.5 m 0
 780.5 1102.5 800 1055.33 800 1000 c 0
 800 944.67 780.5 897.5 741.5 858.5 c 0
 702.5 819.5 655.33 800 600 800 c 0
 544.67 800 497.5 819.5 458.5 858.5 c 0
 419.5 897.5 400 944.67 400 1000 c 0
 400 1055.34 419.5 1102.51 458.5 1141.5 c 0
 497.5 1180.5 544.67 1200 600 1200 c 0
 655.33 1200 702.5 1180.5 741.5 1141.5 c 0
600 1100 m 0
 572.67 1100.01 549.17 1090.18 529.5 1070.51 c 0
 509.83 1050.85 500 1027.35 500 1000.01 c 0
 500 972.68 509.83 949.18 529.5 929.51 c 0
 549.17 909.84 572.67 900.01 600 900.01 c 0
 627.33 900.01 650.83 909.84 670.5 929.51 c 0
 690.17 949.18 700 972.68 700 1000.01 c 0
 700 1027.35 690.17 1050.85 670.5 1070.51 c 0
 650.83 1090.18 627.33 1100.01 600 1100 c 0
EndSplineSet
EndChar

StartChar: Atilde
Encoding: 195 195 137
Width: 1200
Flags: MW
HStem: 0 200<250 900 350 900 350 1150 350 950> 600 200<316.665 850 350 850> 925 200<399.98 599.99 399.98 599.99 599.99 800>
VStem: 50 200<300 500> 950 200<0 500 0 533.335>
LayerCount: 2
Fore
SplineSet
50 300 m 2
 50 500 l 2
 50 700 150 800 350 800 c 2
 850 800 l 2
 1050 800 1150 700 1150 500 c 2
 1150 0 l 1
 950 0 l 1
 950 500 l 2
 950 566.67 916.67 600 850 600 c 2
 350 600 l 2
 283.33 600 250 566.67 250 500 c 2
 250 300 l 2
 250 233.33 283.33 200 350 200 c 2
 900 200 l 1
 900 0 l 1
 350 0 l 2
 150 0 50 100 50 300 c 2
800 1125 m 1
 800 925 l 1
 733.33 891.67 666.66 891.67 599.99 925 c 0
 533.32 958.33 466.65 958.33 399.98 925 c 1
 399.98 1025 l 1
 399.98 1125 l 1
 466.65 1158.33 533.32 1158.33 599.99 1125 c 0
 666.66 1091.67 733.33 1091.67 800 1125 c 1
EndSplineSet
EndChar

StartChar: Eacute
Encoding: 201 201 138
Width: 1200
Flags: MW
HStem: 0 200<250.01 1150.01 350.01 1150.01> 300 200<350.01 900.01 350.01 900.01> 600 200<316.675 900.01 350.01 900.01>
VStem: 50 200
LayerCount: 2
Fore
SplineSet
1150 550 m 0
 1150.01 383.33 1066.68 300 900.01 300 c 2
 350.01 300 l 1
 350.01 500 l 1
 900.01 500 l 2
 933.34 500 950.01 516.67 950.01 550 c 0
 950.01 583.33 933.34 600 900.01 600 c 2
 350.01 600 l 2
 283.34 600 250.01 533.33 250.01 400 c 0
 250.01 266.67 283.34 200 350.01 200 c 2
 1150.01 200 l 1
 1150.01 0 l 1
 350.01 0 l 2
 150.01 0 50.0098 133.33 50.0098 400 c 0
 50.0098 666.67 150.01 800 350.01 800 c 2
 900.01 800 l 2
 1066.68 800 1150.01 716.67 1150 550 c 0
800.01 1200 m 1
 600.01 900 l 1
 400.01 900 l 1
 600.01 1200 l 1
 800.01 1200 l 1
EndSplineSet
EndChar

StartChar: Ecircumflex
Encoding: 202 202 139
Width: 1200
Flags: MW
HStem: 0 200<250.01 1150.01 350.01 1150.01> 300 200<350.01 900.01 350.01 900.01> 600 200<316.675 900.01 350.01 900.01>
VStem: 50 200
LayerCount: 2
Fore
SplineSet
1150 550 m 0
 1150.01 383.33 1066.68 300 900.01 300 c 2
 350.01 300 l 1
 350.01 500 l 1
 900.01 500 l 2
 933.34 500 950.01 516.67 950.01 550 c 0
 950.01 583.33 933.34 600 900.01 600 c 2
 350.01 600 l 2
 283.34 600 250.01 533.33 250.01 400 c 0
 250.01 266.67 283.34 200 350.01 200 c 2
 1150.01 200 l 1
 1150.01 0 l 1
 350.01 0 l 2
 150.01 0 50.0098 133.33 50.0098 400 c 0
 50.0098 666.67 150.01 800 350.01 800 c 2
 900.01 800 l 2
 1066.68 800 1150.01 716.67 1150 550 c 0
900.01 900 m 1
 900.01 1100 l 1
 600.01 1300 l 1
 300.01 1100 l 1
 300.01 900 l 1
 600.01 1100 l 1
 900.01 900 l 1
EndSplineSet
EndChar

StartChar: Edieresis
Encoding: 203 203 140
Width: 1200
Flags: MW
HStem: 0 200<250.01 1150.01 350.01 1150.01> 300 200<350.01 900.01 350.01 900.01> 600 200<316.675 900.01 350.01 900.01> 900 200<450.01 463.675 450.01 463.675>
VStem: 50 200
LayerCount: 2
Fore
SplineSet
1150 550 m 0
 1150.01 383.33 1066.68 300 900.01 300 c 2
 350.01 300 l 1
 350.01 500 l 1
 900.01 500 l 2
 933.34 500 950.01 516.67 950.01 550 c 0
 950.01 583.33 933.34 600 900.01 600 c 2
 350.01 600 l 2
 283.34 600 250.01 533.33 250.01 400 c 0
 250.01 266.67 283.34 200 350.01 200 c 2
 1150.01 200 l 1
 1150.01 0 l 1
 350.01 0 l 2
 150.01 0 50.0098 133.33 50.0098 400 c 0
 50.0098 666.67 150.01 800 350.01 800 c 2
 900.01 800 l 2
 1066.68 800 1150.01 716.67 1150 550 c 0
379.51 1070.5 m 0
 399.18 1090.18 422.68 1100.01 450.01 1100 c 0
 477.34 1100 500.84 1090.17 520.51 1070.5 c 0
 540.18 1050.83 550.01 1027.33 550.01 1000 c 0
 550.01 972.67 540.18 949.17 520.51 929.5 c 0
 500.84 909.83 477.34 900 450.01 900 c 0
 422.68 900 399.18 909.83 379.51 929.5 c 0
 359.84 949.17 350.01 972.67 350.01 1000 c 0
 350.01 1027.33 359.84 1050.83 379.51 1070.5 c 0
679.51 1070.51 m 0
 699.18 1090.19 722.68 1100.02 750.01 1100.01 c 0
 777.34 1100.01 800.84 1090.18 820.51 1070.51 c 0
 840.18 1050.84 850.01 1027.34 850.01 1000.01 c 0
 850.01 972.68 840.18 949.18 820.51 929.51 c 0
 800.84 909.84 777.34 900.01 750.01 900.01 c 0
 722.68 900.01 699.18 909.84 679.51 929.51 c 0
 659.84 949.18 650.01 972.68 650.01 1000.01 c 0
 650.01 1027.34 659.84 1050.84 679.51 1070.51 c 0
EndSplineSet
EndChar

StartChar: Egrave
Encoding: 200 200 141
Width: 1200
Flags: MW
HStem: 0 200<250.01 1150.01 350.01 1150.01> 300 200<350.01 900.01 350.01 900.01> 600 200<316.675 900.01 350.01 900.01>
VStem: 50 200
LayerCount: 2
Fore
SplineSet
1150 550 m 0
 1150.01 383.33 1066.68 300 900.01 300 c 2
 350.01 300 l 1
 350.01 500 l 1
 900.01 500 l 2
 933.34 500 950.01 516.67 950.01 550 c 0
 950.01 583.33 933.34 600 900.01 600 c 2
 350.01 600 l 2
 283.34 600 250.01 533.33 250.01 400 c 0
 250.01 266.67 283.34 200 350.01 200 c 2
 1150.01 200 l 1
 1150.01 0 l 1
 350.01 0 l 2
 150.01 0 50.0098 133.33 50.0098 400 c 0
 50.0098 666.67 150.01 800 350.01 800 c 2
 900.01 800 l 2
 1066.68 800 1150.01 716.67 1150 550 c 0
600.01 1200 m 1
 800.01 900 l 1
 600.01 900 l 1
 400.01 1200 l 1
 600.01 1200 l 1
EndSplineSet
EndChar

StartChar: Iacute
Encoding: 205 205 142
Width: 500
Flags: MW
HStem: 0 21G<50 250 50 50> 780 20G<50 250 250 250>
VStem: 50 200<0 800 0 800 0 900>
LayerCount: 2
Fore
SplineSet
50 800 m 1
 250 800 l 1
 250 0 l 1
 50 0 l 1
 50 800 l 1
450 1200 m 1
 250 900 l 1
 50 900 l 1
 250 1200 l 1
 450 1200 l 1
EndSplineSet
EndChar

StartChar: Icircumflex
Encoding: 206 206 143
Width: 500
Flags: MW
HStem: 0 21G<150 350 150 150> 780 20G<50 50 150 350 350 350 450 450>
VStem: 150 200<0 800>
LayerCount: 2
Fore
SplineSet
350 0 m 1
 150 0 l 1
 150 800 l 1
 350 800 l 1
 350 0 l 1
450 800 m 1x60
 450 1000 l 1
 250 1200 l 1
 50 1000 l 1
 50 800 l 1
 250 1000 l 1
 450 800 l 1x60
EndSplineSet
EndChar

StartChar: Idieresis
Encoding: 207 207 144
Width: 600
Flags: MW
HStem: 0 21G<200 400 200 200> 780 20G<200 400 400 400> 900 200<150 163.665 150 163.665>
VStem: 200 200<0 800>
LayerCount: 2
Fore
SplineSet
400 0 m 1
 200 0 l 1
 200 800 l 1
 400 800 l 1
 400 0 l 1
79.5 1070.5 m 0
 99.1699 1090.18 122.67 1100.01 150 1100 c 0
 177.33 1100 200.83 1090.17 220.5 1070.5 c 0
 240.17 1050.83 250 1027.33 250 1000 c 0
 250 972.67 240.17 949.17 220.5 929.5 c 0
 200.83 909.83 177.33 900 150 900 c 0
 122.67 900 99.1699 909.83 79.5 929.5 c 0
 59.8301 949.17 50 972.67 50 1000 c 0
 50 1027.33 59.8301 1050.83 79.5 1070.5 c 0
379.5 1070.51 m 0
 399.17 1090.19 422.67 1100.02 450 1100.01 c 0
 477.33 1100.01 500.83 1090.18 520.5 1070.51 c 0
 540.17 1050.84 550 1027.34 550 1000.01 c 0
 550 972.68 540.17 949.18 520.5 929.51 c 0
 500.83 909.84 477.33 900.01 450 900.01 c 0
 422.67 900.01 399.17 909.84 379.5 929.51 c 0
 359.83 949.18 350 972.68 350 1000.01 c 0
 350 1027.34 359.83 1050.84 379.5 1070.51 c 0
EndSplineSet
EndChar

StartChar: Igrave
Encoding: 204 204 145
Width: 500
Flags: MW
HStem: 0 21G<250 450 250 250> 780 20G<250 450 450 450>
VStem: 250 200<0 800>
LayerCount: 2
Fore
SplineSet
450 0 m 1
 250 0 l 1
 250 800 l 1
 450 800 l 1
 450 0 l 1
250 1200 m 1
 450 900 l 1
 250 900 l 1
 50 1200 l 1
 250 1200 l 1
EndSplineSet
EndChar

StartChar: Oacute
Encoding: 211 211 146
Width: 1300
Flags: MW
HStem: 0 200<250 950.01 350.01 950> 600 200<350 350.01 350 950 950 951 350 350.01>
VStem: 50 200 1050 200<400 466.665>
LayerCount: 2
Fore
SplineSet
850 1200 m 1
 650 900 l 1
 450 900 l 1
 650 1200 l 1
 850 1200 l 1
350 800 m 2
 950 800 l 2
 1150 800 1250 666.67 1250 400 c 0
 1250 133.33 1150 0 950 0 c 2
 350 0 l 2
 150 0 50 133.33 50 400 c 0
 50 666.67 150 800 350 800 c 2
350 600 m 1
 350.01 600 l 1
 283.34 600 250.01 533.33 250.01 400 c 0
 250.01 266.67 283.34 200 350.01 200 c 2
 950.01 200 l 2
 1016.68 200 1050.01 266.67 1050 400 c 0
 1050 533.33 1017 600 951 600 c 2
 350 600 l 1
EndSplineSet
EndChar

StartChar: Ocircumflex
Encoding: 212 212 147
Width: 1300
Flags: MW
HStem: 0 200<250 950.01 350.01 950> 600 200<350 350.01 350 950 950 951 350 350.01> 900 400<350 650 650 950>
VStem: 50 200 1050 200<400 466.665>
LayerCount: 2
Fore
SplineSet
950 900 m 1
 950 1100 l 1
 650 1300 l 1
 350 1100 l 1
 350 900 l 1
 650 1100 l 1
 950 900 l 1
350 800 m 2
 950 800 l 2
 1150 800 1250 666.67 1250 400 c 0
 1250 133.33 1150 0 950 0 c 2
 350 0 l 2
 150 0 50 133.33 50 400 c 0
 50 666.67 150 800 350 800 c 2
350 600 m 1
 350.01 600 l 1
 283.34 600 250.01 533.33 250.01 400 c 0
 250.01 266.67 283.34 200 350.01 200 c 2
 950.01 200 l 2
 1016.68 200 1050.01 266.67 1050 400 c 0
 1050 533.33 1017 600 951 600 c 2
 350 600 l 1
EndSplineSet
EndChar

StartChar: Odieresis
Encoding: 214 214 148
Width: 1300
Flags: MW
HStem: 0 200 600 200 900 200<500 513.665 500 513.665>
VStem: 50 200 1050 200<400.02 466.685>
LayerCount: 2
Fore
SplineSet
429.5 1070.5 m 0
 449.17 1090.18 472.67 1100.01 500 1100 c 0
 527.33 1100 550.83 1090.17 570.5 1070.5 c 0
 590.17 1050.83 600 1027.33 600 1000 c 0
 600 972.67 590.17 949.17 570.5 929.5 c 0
 550.83 909.83 527.33 900 500 900 c 0
 472.67 900 449.17 909.83 429.5 929.5 c 0
 409.83 949.17 400 972.67 400 1000 c 0
 400 1027.33 409.83 1050.83 429.5 1070.5 c 0
729.5 1070.51 m 0
 749.17 1090.19 772.67 1100.02 800 1100.01 c 0
 827.33 1100.01 850.83 1090.18 870.5 1070.51 c 0
 890.17 1050.84 900 1027.34 900 1000.01 c 0
 900 972.68 890.17 949.18 870.5 929.51 c 0
 850.83 909.84 827.33 900.01 800 900.01 c 0
 772.67 900.01 749.17 909.84 729.5 929.51 c 0
 709.83 949.18 700 972.68 700 1000.01 c 0
 700 1027.34 709.83 1050.84 729.5 1070.51 c 0
350 800.02 m 2
 950 800.02 l 2
 1150 800.02 1250 666.689 1250 400.02 c 0
 1250 133.35 1150 0.0195312 950 0.0195312 c 2
 350 0.0195312 l 2
 150 0.0195312 50 133.35 50 400.02 c 0
 50 666.689 150 800.02 350 800.02 c 2
350 600.02 m 1
 350.01 600.02 l 1
 283.34 600.02 250.01 533.35 250.01 400.02 c 0
 250.01 266.689 283.34 200.02 350.01 200.02 c 2
 950.01 200.02 l 2
 1016.68 200.02 1050.01 266.689 1050 400.02 c 0
 1050 533.35 1017 600.02 951 600.02 c 2
 350 600.02 l 1
EndSplineSet
EndChar

StartChar: Ograve
Encoding: 210 210 149
Width: 1300
Flags: MW
HStem: 0 200<250 950.01 350.01 950> 600 200<316.01 950 350 950 350 950 349 950>
VStem: 50 200 1050 200<400 466.665>
LayerCount: 2
Fore
SplineSet
650 1200 m 1
 850 900 l 1
 650 900 l 1
 450 1200 l 1
 650 1200 l 1
1250 400 m 0
 1250 133.33 1150 0 950 0 c 2
 350 0 l 2
 150 0 50 133.33 50 400 c 0
 50 666.67 150 800 350 800 c 2
 950 800 l 2
 1150 800 1250 666.67 1250 400 c 0
349 600 m 1
 349.01 600 l 1
 283.01 600 250.01 533.33 250.01 400 c 0
 250.01 266.67 283.34 200 350.01 200 c 2
 950.01 200 l 2
 1016.68 200 1050.01 266.67 1050 400 c 0
 1050 533.33 1016.67 600 950 600 c 2
 349 600 l 1
EndSplineSet
EndChar

StartChar: Otilde
Encoding: 213 213 150
Width: 1300
Flags: MW
HStem: 0 200<250 950.01 350.01 950> 600 200<350 350.01 350 950 950 951 350 350.01>
VStem: 50 200 1050 200<400 466.665>
LayerCount: 2
Fore
SplineSet
850 1123 m 1
 850 923 l 1
 783.33 889.67 716.66 889.67 649.99 923 c 0
 583.32 956.33 516.65 956.33 449.98 923 c 1
 449.98 1023 l 1
 449.98 1123 l 1
 516.65 1156.33 583.32 1156.33 649.99 1123 c 0
 716.66 1089.67 783.33 1089.67 850 1123 c 1
350 800 m 2
 950 800 l 2
 1150 800 1250 666.67 1250 400 c 0
 1250 133.33 1150 0 950 0 c 2
 350 0 l 2
 150 0 50 133.33 50 400 c 0
 50 666.67 150 800 350 800 c 2
350 600 m 1
 350.01 600 l 1
 283.34 600 250.01 533.33 250.01 400 c 0
 250.01 266.67 283.34 200 350.01 200 c 2
 950.01 200 l 2
 1016.68 200 1050.01 266.67 1050 400 c 0
 1050 533.33 1017 600 951 600 c 2
 350 600 l 1
EndSplineSet
EndChar

StartChar: Uacute
Encoding: 218 218 151
Width: 800
Flags: MW
HStem: 0 200<350 450 350 516.665> 780 20G<50 250 250 250 550 750 750 750>
VStem: 50 200<350 800> 550 200<350 800>
LayerCount: 2
Fore
SplineSet
400 0 m 0
 166.67 -0 50 116.67 50 350 c 2
 50 800 l 1
 250 800 l 1
 250 350 l 2
 250 250 300 200 400 200 c 0
 500 200 550 250 550 350 c 2
 550 800 l 1
 750 800 l 1
 750 350 l 2
 750 116.67 633.33 0 400 0 c 0
600 1200 m 1
 400 900 l 1
 200 900 l 1
 400 1200 l 1
 600 1200 l 1
EndSplineSet
EndChar

StartChar: Ucircumflex
Encoding: 219 219 152
Width: 800
Flags: MW
HStem: 0 200<350 450 350 516.665> 780 20G<50 250 250 250 550 750 750 750> 900 400<100 400 400 700>
VStem: 50 200<350 800> 550 200<350 800>
LayerCount: 2
Fore
SplineSet
700 900 m 1
 700 1100 l 1
 400 1300 l 1
 100 1100 l 1
 100 900 l 1
 400 1100 l 1
 700 900 l 1
50 350 m 2
 50 800 l 1
 250 800 l 1
 250 350 l 2
 250 250 300 200 400 200 c 0
 500 200 550 250 550 350 c 2
 550 800 l 1
 750 800 l 1xf8
 750 350 l 2
 750 116.67 633.33 0 400 0 c 0
 166.67 -0 50 116.67 50 350 c 2
EndSplineSet
EndChar

StartChar: Udieresis
Encoding: 220 220 153
Width: 800
Flags: MW
HStem: 0 200<350 450 350 516.665> 780 20G<50 250 250 250 550 750 750 750> 900 200<250 263.665 250 263.665>
VStem: 50 200<350 800> 550 200<350 800>
LayerCount: 2
Fore
SplineSet
50 350 m 2
 50 800 l 1
 250 800 l 1
 250 350 l 2
 250 250 300 200 400 200 c 0
 500 200 550 250 550 350 c 2
 550 800 l 1
 750 800 l 1
 750 350 l 2
 750 116.67 633.33 0 400 0 c 0
 166.67 -0 50 116.67 50 350 c 2
179.5 1070.5 m 0
 199.17 1090.18 222.67 1100.01 250 1100 c 0
 277.33 1100 300.83 1090.17 320.5 1070.5 c 0
 340.17 1050.83 350 1027.33 350 1000 c 0
 350 972.67 340.17 949.17 320.5 929.5 c 0
 300.83 909.83 277.33 900 250 900 c 0
 222.67 900 199.17 909.83 179.5 929.5 c 0
 159.83 949.17 150 972.67 150 1000 c 0
 150 1027.33 159.83 1050.83 179.5 1070.5 c 0
479.5 1070.51 m 0
 499.17 1090.19 522.67 1100.02 550 1100.01 c 0
 577.33 1100.01 600.83 1090.18 620.5 1070.51 c 0
 640.17 1050.84 650 1027.34 650 1000.01 c 0
 650 972.68 640.17 949.18 620.5 929.51 c 0
 600.83 909.84 577.33 900.01 550 900.01 c 0
 522.67 900.01 499.17 909.84 479.5 929.51 c 0
 459.83 949.18 450 972.68 450 1000.01 c 0
 450 1027.34 459.83 1050.84 479.5 1070.51 c 0
EndSplineSet
EndChar

StartChar: Ugrave
Encoding: 217 217 154
Width: 800
Flags: MW
HStem: 0 200<350 450 350 516.665> 780 20G<50 250 250 250 550 750 750 750>
VStem: 50 200<350 800> 550 200<350 800>
LayerCount: 2
Fore
SplineSet
50 350 m 2
 50 800 l 1
 250 800 l 1
 250 350 l 2
 250 250 300 200 400 200 c 0
 500 200 550 250 550 350 c 2
 550 800 l 1
 750 800 l 1
 750 350 l 2
 750 116.67 633.33 0 400 0 c 0
 166.67 -0 50 116.67 50 350 c 2
400 1200 m 1
 600 900 l 1
 400 900 l 1
 200 1200 l 1
 400 1200 l 1
EndSplineSet
EndChar

StartChar: Yacute
Encoding: 221 221 155
Width: 900
Flags: MW
HStem: 0 21G<350 350 350 550> 780 20G
VStem: 50 200<599.99 799.99> 350 200<0 200 0 200> 650 200<599.99 799.99>
CounterMasks: 1 38
LayerCount: 2
Fore
SplineSet
350 0 m 1
 350 200 l 1
 150 233.33 50 366.66 50 599.99 c 2
 50 799.99 l 1
 250 799.99 l 1
 250 599.99 l 2
 250 466.66 316.67 399.99 450 399.99 c 0
 583.33 399.99 650 466.66 650 599.99 c 2
 650 799.99 l 1
 850 799.99 l 1
 850 599.99 l 2
 850 366.66 750 233.33 550 200 c 1
 550 0 l 1
 350 0 l 1
650 1200 m 1
 450 900 l 1
 250 900 l 1
 450 1200 l 1
 650 1200 l 1
EndSplineSet
EndChar

StartChar: aacute
Encoding: 225 225 156
Width: 1200
Flags: MW
HStem: 0 200<216.665 850 300 850> 600 200<50 850 50 850>
VStem: 50 200<233.335 266.665 233.335 333.335> 950 200<333.335 466.665>
LayerCount: 2
Fore
SplineSet
50 250 m 0
 50 416.67 133.33 500 300 500 c 2
 850 500 l 1
 850 300 l 1
 300 300 l 2
 266.67 300 250 283.33 250 250 c 0
 250 216.67 266.67 200 300 200 c 2
 850 200 l 2
 916.67 200 950 266.67 950 400 c 0
 950 533.33 916.67 600 850 600 c 2
 50 600 l 1
 50 800 l 1
 850 800 l 2
 1050 800 1150 666.67 1150 400 c 0
 1150 133.33 1050 0 850 0 c 2
 300 0 l 2
 133.33 0 50 83.3301 50 250 c 0
800 1200 m 1
 600 900 l 1
 400 900 l 1
 600 1200 l 1
 800 1200 l 1
EndSplineSet
EndChar

StartChar: acircumflex
Encoding: 226 226 157
Width: 1200
Flags: MW
HStem: 0 200<216.665 850 300 850> 600 200<50 850 50 850>
VStem: 50 200<233.335 266.665 233.335 333.335> 950 200<333.335 466.665>
LayerCount: 2
Fore
SplineSet
50 250 m 0
 50 416.67 133.33 500 300 500 c 2
 850 500 l 1
 850 300 l 1
 300 300 l 2
 266.67 300 250 283.33 250 250 c 0
 250 216.67 266.67 200 300 200 c 2
 850 200 l 2
 916.67 200 950 266.67 950 400 c 0
 950 533.33 916.67 600 850 600 c 2
 50 600 l 1
 50 800 l 1
 850 800 l 2
 1050 800 1150 666.67 1150 400 c 0
 1150 133.33 1050 0 850 0 c 2
 300 0 l 2
 133.33 0 50 83.3301 50 250 c 0
900 900 m 1
 900 1100 l 1
 600 1300 l 1
 300 1100 l 1
 300 900 l 1
 600 1100 l 1
 900 900 l 1
EndSplineSet
EndChar

StartChar: adieresis
Encoding: 228 228 158
Width: 1200
Flags: MW
HStem: 0 200<216.665 850 300 850> 600 200<50 850 50 850> 900 200<450 463.665 450 463.665>
VStem: 50 200<233.335 266.665 233.335 333.335> 950 200<333.335 466.665>
LayerCount: 2
Fore
SplineSet
50 250 m 0
 50 416.67 133.33 500 300 500 c 2
 850 500 l 1
 850 300 l 1
 300 300 l 2
 266.67 300 250 283.33 250 250 c 0
 250 216.67 266.67 200 300 200 c 2
 850 200 l 2
 916.67 200 950 266.67 950 400 c 0
 950 533.33 916.67 600 850 600 c 2
 50 600 l 1
 50 800 l 1
 850 800 l 2
 1050 800 1150 666.67 1150 400 c 0
 1150 133.33 1050 0 850 0 c 2
 300 0 l 2
 133.33 0 50 83.3301 50 250 c 0
379.5 1070.5 m 0
 399.17 1090.18 422.67 1100.01 450 1100 c 0
 477.33 1100 500.83 1090.17 520.5 1070.5 c 0
 540.17 1050.83 550 1027.33 550 1000 c 0
 550 972.67 540.17 949.17 520.5 929.5 c 0
 500.83 909.83 477.33 900 450 900 c 0
 422.67 900 399.17 909.83 379.5 929.5 c 0
 359.83 949.17 350 972.67 350 1000 c 0
 350 1027.33 359.83 1050.83 379.5 1070.5 c 0
679.5 1070.51 m 0
 699.17 1090.19 722.67 1100.02 750 1100.01 c 0
 777.33 1100.01 800.83 1090.18 820.5 1070.51 c 0
 840.17 1050.84 850 1027.34 850 1000.01 c 0
 850 972.68 840.17 949.18 820.5 929.51 c 0
 800.83 909.84 777.33 900.01 750 900.01 c 0
 722.67 900.01 699.17 909.84 679.5 929.51 c 0
 659.83 949.18 650 972.68 650 1000.01 c 0
 650 1027.34 659.83 1050.84 679.5 1070.51 c 0
EndSplineSet
EndChar

StartChar: agrave
Encoding: 224 224 159
Width: 1200
Flags: MW
HStem: 0 200<216.665 850 300 850> 600 200<50 850 50 850>
VStem: 50 200<233.335 266.665 233.335 333.335> 950 200<333.335 466.665>
LayerCount: 2
Fore
SplineSet
50 250 m 0
 50 416.67 133.33 500 300 500 c 2
 850 500 l 1
 850 300 l 1
 300 300 l 2
 266.67 300 250 283.33 250 250 c 0
 250 216.67 266.67 200 300 200 c 2
 850 200 l 2
 916.67 200 950 266.67 950 400 c 0
 950 533.33 916.67 600 850 600 c 2
 50 600 l 1
 50 800 l 1
 850 800 l 2
 1050 800 1150 666.67 1150 400 c 0
 1150 133.33 1050 0 850 0 c 2
 300 0 l 2
 133.33 0 50 83.3301 50 250 c 0
600 1200 m 1
 800 900 l 1
 600 900 l 1
 400 1200 l 1
 600 1200 l 1
EndSplineSet
EndChar

StartChar: aring
Encoding: 229 229 160
Width: 1200
Flags: MW
HStem: 0 200<216.665 850 300 850> 600 200<50 850 50 850> 800 100 1100 100<598 598>
VStem: 50 200<233.335 266.665 233.335 333.335> 398 100<986.345 1013.68 986.345 1027.67> 698 100<986.345 1013.68> 950 200<333.335 466.665>
LayerCount: 2
Fore
SplineSet
50 250 m 0
 50 416.67 133.33 500 300 500 c 2
 850 500 l 1
 850 300 l 1
 300 300 l 2
 266.67 300 250 283.33 250 250 c 0
 250 216.67 266.67 200 300 200 c 2
 850 200 l 2
 916.67 200 950 266.67 950 400 c 0
 950 533.33 916.67 600 850 600 c 2
 50 600 l 1
 50 800 l 1
 850 800 l 2
 1050 800 1150 666.67 1150 400 c 0
 1150 133.33 1050 0 850 0 c 2
 300 0 l 2
 133.33 0 50 83.3301 50 250 c 0
739.5 1141.5 m 0
 778.5 1102.5 798 1055.33 798 1000 c 0
 798 944.67 778.5 897.5 739.5 858.5 c 0
 700.5 819.5 653.33 800 598 800 c 0
 542.67 800 495.5 819.5 456.5 858.5 c 0
 417.5 897.5 398 944.67 398 1000 c 0
 398 1055.34 417.5 1102.51 456.5 1141.5 c 0
 495.5 1180.5 542.67 1200 598 1200 c 0
 653.33 1200 700.5 1180.5 739.5 1141.5 c 0
598 1100 m 0
 570.67 1100.01 547.17 1090.18 527.5 1070.51 c 0
 507.83 1050.85 498 1027.35 498 1000.01 c 0
 498 972.68 507.83 949.18 527.5 929.51 c 0
 547.17 909.84 570.67 900.01 598 900.01 c 0
 625.33 900.01 648.83 909.84 668.5 929.51 c 0
 688.17 949.18 698 972.68 698 1000.01 c 0
 698 1027.35 688.17 1050.85 668.5 1070.51 c 0
 648.83 1090.18 625.33 1100.01 598 1100 c 0
EndSplineSet
EndChar

StartChar: atilde
Encoding: 227 227 161
Width: 1200
Flags: MW
HStem: 0 200<216.665 850 300 850> 600 200<50 850 50 850>
VStem: 50 200<233.335 266.665 233.335 333.335> 950 200<333.335 466.665>
LayerCount: 2
Fore
SplineSet
50 250 m 0
 50 416.67 133.33 500 300 500 c 2
 850 500 l 1
 850 300 l 1
 300 300 l 2
 266.67 300 250 283.33 250 250 c 0
 250 216.67 266.67 200 300 200 c 2
 850 200 l 2
 916.67 200 950 266.67 950 400 c 0
 950 533.33 916.67 600 850 600 c 2
 50 600 l 1
 50 800 l 1
 850 800 l 2
 1050 800 1150 666.67 1150 400 c 0
 1150 133.33 1050 0 850 0 c 2
 300 0 l 2
 133.33 0 50 83.3301 50 250 c 0
800 1125 m 1
 800 925 l 1
 733.33 891.67 666.66 891.67 599.99 925 c 0
 533.32 958.33 466.65 958.33 399.98 925 c 1
 399.98 1025 l 1
 399.98 1125 l 1
 466.65 1158.33 533.32 1158.33 599.99 1125 c 0
 666.66 1091.67 733.33 1091.67 800 1125 c 1
EndSplineSet
EndChar

StartChar: Dcroat
Encoding: 272 272 162
Width: 1300
Flags: MW
HStem: 0 200<150 950.01 400.01 950.01 400.01 950.01> 300 200<50 150 50 150 350 450> 600 200<416.665 950.01 450.01 950>
VStem: 150 200<0 300 0 300> 1050 200
LayerCount: 2
Fore
SplineSet
150 500 m 1
 150.01 500 l 1
 150.01 700 250.01 800 450.01 800 c 2
 950.01 800 l 2
 1150.01 800 1250.01 700 1250.01 500 c 2
 1250.01 300 l 2
 1250.01 100 1150.01 0 950.01 0 c 2
 400.01 0 l 1
 400.01 200 l 1
 950.01 200 l 2
 1016.68 200 1050.01 233.33 1050 300 c 2
 1050 500 l 2
 1050 566.67 1016.67 600 950 600 c 2
 450 600 l 2
 383.33 600 350 566.67 350 500 c 1
 450 500 l 1
 450 300 l 1
 350 300 l 1
 350 0 l 1
 150 0 l 1
 150 300 l 1
 50 300 l 1
 50 500 l 1
 150 500 l 1
EndSplineSet
EndChar

StartChar: ccaron
Encoding: 269 269 163
Width: 900
Flags: MW
HStem: 0 200<283.335 850 400 850> 600 200<350 850 400 850>
VStem: 50 200<333.335 466.665 333.335 533.335>
LayerCount: 2
Fore
SplineSet
850 0 m 1
 400 0 l 2
 166.67 0 50 133.33 50 400 c 0
 50 666.67 166.67 800 400 800 c 2
 850 800 l 1
 850 600 l 1
 400 600 l 2
 300 600 250 533.33 250 400 c 0
 250 266.67 300 200 400 200 c 2
 850 200 l 1
 850 0 l 1
550 1100 m 1
 250 1300 l 1
 250 1100 l 1
 550 900 l 1
 850 1100 l 1
 850 1300 l 1
 550 1100 l 1
EndSplineSet
EndChar

StartChar: ccircumflex
Encoding: 265 265 164
Width: 900
Flags: MW
HStem: 0 200<283.335 850 400 850> 600 200<350 850 400 850>
VStem: 50 200<333.335 466.665 333.335 533.335>
LayerCount: 2
Fore
SplineSet
850 0 m 1
 400 0 l 2
 166.67 0 50 133.33 50 400 c 0
 50 666.67 166.67 800 400 800 c 2
 850 800 l 1
 850 600 l 1
 400 600 l 2
 300 600 250 533.33 250 400 c 0
 250 266.67 300 200 400 200 c 2
 850 200 l 1
 850 0 l 1
850 900 m 1
 850 1100 l 1
 550 1300 l 1
 250 1100 l 1
 250 900 l 1
 550 1100 l 1
 850 900 l 1
EndSplineSet
EndChar

StartChar: cdotaccent
Encoding: 267 267 165
Width: 900
Flags: MW
HStem: 0 200<283.335 850 400 850> 600 200<350 850 400 850>
VStem: 50 200<333.335 466.665 333.335 533.335>
LayerCount: 2
Fore
SplineSet
850 0 m 1
 400 0 l 2
 166.67 0 50 133.33 50 400 c 0
 50 666.67 166.67 800 400 800 c 2
 850 800 l 1
 850 600 l 1
 400 600 l 2
 300 600 250 533.33 250 400 c 0
 250 266.67 300 200 400 200 c 2
 850 200 l 1
 850 0 l 1
620.5 1070.5 m 0
 640.17 1050.84 650 1027.34 650 1000.01 c 0
 650 972.68 640.17 949.18 620.5 929.51 c 0
 600.83 909.84 577.33 900.01 550 900.01 c 0
 522.67 900.01 499.17 909.84 479.5 929.51 c 0
 459.83 949.18 450 972.68 450 1000.01 c 0
 450 1027.34 459.83 1050.84 479.5 1070.51 c 0
 499.17 1090.18 522.67 1100.01 550 1100 c 0
 577.33 1100 600.83 1090.17 620.5 1070.5 c 0
EndSplineSet
EndChar

StartChar: dieresistonos
Encoding: 901 901 166
Width: 800
Flags: W
LayerCount: 2
Fore
SplineSet
79.5 1070.5 m 0
 99.1699 1090.17 122.67 1100 150 1100 c 0
 177.33 1100 200.83 1090.17 220.5 1070.5 c 0
 240.17 1050.83 250 1027.33 250 1000 c 0
 250 972.67 240.17 949.17 220.5 929.5 c 0
 200.83 909.83 177.33 900 150 900 c 0
 122.67 900 99.1699 909.83 79.5 929.5 c 0
 59.8301 949.17 50 972.67 50 1000 c 0
 50 1027.33 59.8301 1050.83 79.5 1070.5 c 0
579.5 1070.5 m 0
 599.17 1090.17 622.67 1100 650 1100 c 0
 677.33 1100 700.83 1090.17 720.5 1070.5 c 0
 740.17 1050.83 750 1027.33 750 1000 c 0
 750 972.67 740.17 949.17 720.5 929.5 c 0
 700.83 909.83 677.33 900 650 900 c 0
 622.67 900 599.17 909.83 579.5 929.5 c 0
 559.83 949.17 550 972.67 550 1000 c 0
 550 1027.33 559.83 1050.83 579.5 1070.5 c 0
550 1100 m 1
 450 900 l 1
 250 900 l 1
 350 1100 l 1
 550 1100 l 1
EndSplineSet
EndChar

StartChar: pi
Encoding: 960 960 167
Width: 900
Flags: W
LayerCount: 2
Fore
SplineSet
200 501 m 1
 200 501.01 l 1
 166.67 500.34 116.67 466.67 50 400 c 1
 50 600 l 1
 116.67 666.67 216.67 700 350 700 c 2
 550 700 l 2
 683.33 700 783.33 733.33 850 800 c 1
 850 600 l 1
 796.67 546.67 746.67 520 700 520 c 1
 700 0 l 1
 500 0 l 1
 500 500 l 1
 400 500 l 1
 400 0 l 1
 200 0 l 1
 200 501 l 1
EndSplineSet
EndChar

StartChar: uni00A0
Encoding: 160 160 168
Width: 500
Flags: MW
HStem: 300 200<50 450 50 450>
LayerCount: 2
Fore
SplineSet
450 300 m 1
 50 300 l 1
 50 500 l 1
 450 500 l 1
 450 300 l 1
EndSplineSet
EndChar

StartChar: uni00AD
Encoding: 173 173 169
Width: 350
Flags: MW
HStem: 300 200<50 300 50 300>
VStem: 50 250<300 500 300 500>
LayerCount: 2
Fore
SplineSet
300 300 m 1
 50 300 l 1
 50 500 l 1
 300 500 l 1
 300 300 l 1
EndSplineSet
EndChar

StartChar: uni02C9
Encoding: 713 713 170
Width: 700
Flags: MW
HStem: 900 200<50 650 50 650>
LayerCount: 2
Fore
SplineSet
50 1100 m 1
 650 1100 l 1
 650 900 l 1
 50 900 l 1
 50 1100 l 1
EndSplineSet
EndChar

StartChar: uniF000
Encoding: 61440 61440 171
Width: 900
Flags: MW
HStem: 0 21G<200 400 200 200 500 700 500 500> 780 20G<750 750>
VStem: 200 200<0 444 444 444.01 444.01 444.01> 500 200<0 500 500 500>
LayerCount: 2
Fore
SplineSet
200 444 m 1
 200 444.01 l 1
 183.33 431.34 166.66 416.67 149.99 400 c 1
 49.9902 600 l 1
 116.66 666.67 216.66 700 349.99 700 c 2
 549.99 700 l 2
 616.66 700 683.33 733.33 750 800 c 1
 850 600 l 1
 800 550 750 518.67 700 506 c 1
 700 0 l 1
 500 0 l 1
 500 500 l 1
 400 500 l 1
 400 0 l 1
 200 0 l 1
 200 444 l 1
EndSplineSet
EndChar

StartChar: glyph149
Encoding: 65537 -1 172
Width: 200
Flags: W
LayerCount: 2
Fore
SplineSet
150 400 m 1
 50 400 l 1
 50 1000 l 1
 150 1000 l 1
 150 400 l 1
EndSplineSet
EndChar

StartChar: glyph150
Encoding: 65538 -1 173
Width: 900
Flags: W
LayerCount: 2
Fore
SplineSet
450 450 m 0
 436 450 424.17 445.17 414.5 435.5 c 0
 404.83 425.83 400 414 400 400 c 0
 400 386 404.83 374.17 414.5 364.5 c 0
 424.17 354.83 436 350 450 350 c 0
 464 350 475.83 354.83 485.5 364.5 c 0
 495.17 374.17 500 386 500 400 c 0
 500 414 495.17 425.83 485.5 435.5 c 0
 475.83 445.17 464 450 450 450 c 0
350 116 m 1
 349.98 67.0195 l 1
 383.98 55.6895 417.311 50.0195 449.98 50.0195 c 0
 546.65 50.0195 629.15 84.1895 697.48 152.52 c 0
 765.811 220.85 799.98 303.35 799.98 400.02 c 0
 799.98 496.689 765.811 579.189 697.48 647.52 c 0
 629.15 715.85 546.65 750.02 449.98 750.02 c 0
 353.311 750.02 270.811 715.85 202.48 647.52 c 0
 134.15 579.189 99.9805 496.689 99.9805 400.02 c 0
 99.9805 303.35 116.65 236.68 149.98 200.01 c 1
 149.98 400.01 l 2
 149.98 482.68 179.311 553.35 237.98 612.02 c 0
 296.65 670.689 367.32 700.02 449.99 700.02 c 0
 532.66 700.02 603.33 670.689 662 612.02 c 0
 720.67 553.35 750 482.68 750 400.01 c 0
 750 317.34 720.67 246.67 662 188 c 0
 603.33 129.33 532.66 100 449.99 100 c 0
 414.66 100 381.33 105.33 350 116 c 1
849.98 400.02 m 0
 849.98 289.35 810.98 195.02 732.98 117.02 c 0
 654.98 39.0195 560.65 0.0195312 449.98 0.0195312 c 0
 339.311 0.0195312 244.98 39.0195 166.98 117.02 c 0
 88.9805 195.02 49.9805 289.35 49.9805 400.02 c 0
 49.9805 510.689 88.9805 605.02 166.98 683.02 c 0
 244.98 761.02 339.311 800.02 449.98 800.02 c 0
 560.65 800.02 654.98 761.02 732.98 683.02 c 0
 810.98 605.02 849.98 510.689 849.98 400.02 c 0
EndSplineSet
EndChar

StartChar: glyph151
Encoding: 65539 -1 174
Width: 899
Flags: MW
HStem: 0 200<50 550 50 550> 300 200<50 650 50 650> 600 200<50 550 550 551 50 550>
VStem: 650 200<266.665 300 500 533.335>
CounterMasks: 1 e0
LayerCount: 2
Fore
SplineSet
550 0 m 2
 50 0 l 1
 50 200 l 1
 550 200 l 2
 616.67 200 650 233.33 650 300 c 1
 50 300 l 1
 50 500 l 1
 650 500 l 1
 650 566.67 617 600 551 600 c 2
 50 600 l 1
 50 800 l 1
 550 800 l 2
 750 800 850 666.67 850 400 c 0
 850 133.33 750 0 550 0 c 2
EndSplineSet
EndChar

StartChar: glyph152
Encoding: 65540 -1 175
Width: 899
Flags: W
LayerCount: 2
Fore
SplineSet
50 250 m 0
 50 416.67 133.33 500 300 500 c 2
 850 500 l 1
 850 300 l 1
 300 300 l 2
 266.67 300 250 283.33 250 250 c 0
 250 216.67 266.67 200 300 200 c 2
 850 200 l 2
 916.67 200 950 266.67 950 400 c 0
 950 533.33 916.67 600 850 600 c 2
 50 600 l 1
 50 800 l 1
 850 800 l 2
 1050 800 1150 666.67 1150 400 c 0
 1150 133.33 1050 0 850 0 c 2
 300 0 l 2
 133.33 0 50 83.3301 50 250 c 0
800 900 m 1
 200 900 l 1
 200 1100 l 1
 800 1100 l 1
 800 900 l 1
EndSplineSet
EndChar

StartChar: glyph153
Encoding: 65541 -1 176
Width: 1200
Flags: W
LayerCount: 2
Fore
SplineSet
50 250 m 0
 50 416.67 133.33 500 300 500 c 2
 850 500 l 1
 850 300 l 1
 300 300 l 2
 266.67 300 250 283.33 250 250 c 0
 250 216.67 266.67 200 300 200 c 2
 850 200 l 2
 916.67 200 950 266.67 950 400 c 0
 950 533.33 916.67 600 850 600 c 2
 50 600 l 1
 50 800 l 1
 850 800 l 2
 1050 800 1150 666.67 1150 400 c 0
 1150 133.33 1050 0 850 0 c 2
 300 0 l 2
 133.33 0 50 83.3301 50 250 c 0
600 1100 m 0
 533.33 1100 500 1150 500 1250 c 2
 500 1300 l 1
 300 1300 l 1
 300 1250 l 2
 300 1016.67 400 900 600 900 c 0
 800 900 900 1016.67 900 1250 c 2
 900 1300 l 1
 700 1300 l 1
 700 1250 l 2
 700 1150 666.67 1100 600 1100 c 0
EndSplineSet
EndChar

StartChar: glyph154
Encoding: 65542 -1 177
Width: 1200
Flags: W
LayerCount: 2
Fore
SplineSet
600 1100 m 0
 533.33 1100 500 1150 500 1250 c 2
 500 1300 l 1
 300 1300 l 1
 300 1250 l 2
 300 1016.67 400 900 600 900 c 0
 800 900 900 1016.67 900 1250 c 2
 900 1300 l 1
 700 1300 l 1
 700 1250 l 2
 700 1150 666.67 1100 600 1100 c 0
50 300 m 2
 50 500 l 2
 50 700 150 800 350 800 c 2
 850 800 l 2
 1050 800 1150 700 1150 500 c 2
 1150 0 l 1
 950 0 l 1
 950 500 l 2
 950 566.67 916.67 600 850 600 c 2
 350 600 l 2
 283.33 600 250 566.67 250 500 c 2
 250 300 l 2
 250 233.33 283.33 200 350 200 c 2
 900 200 l 1
 900 0 l 1
 350 0 l 2
 150 0 50 100 50 300 c 2
EndSplineSet
EndChar

StartChar: glyph155
Encoding: 65543 -1 178
Width: 800
Flags: W
LayerCount: 2
Fore
SplineSet
550 400 m 1
 350 800 l 1
 550 800 l 1
 750 400 l 1
 550 0 l 1
 350 0 l 1
 550 400 l 1
250 400 m 1
 50 800 l 1
 250 800 l 1
 450 400 l 1
 250 0 l 1
 50 0 l 1
 250 400 l 1
EndSplineSet
EndChar

StartChar: glyph157
Encoding: 65545 -1 180
Width: 900
Flags: W
LayerCount: 2
Fore
SplineSet
450 450 m 0
 436 450 424.17 445.17 414.5 435.5 c 0
 404.83 425.83 400 414 400 400 c 0
 400 386 404.83 374.17 414.5 364.5 c 0
 424.17 354.83 436 350 450 350 c 0
 464 350 475.83 354.83 485.5 364.5 c 0
 495.17 374.17 500 386 500 400 c 0
 500 414 495.17 425.83 485.5 435.5 c 0
 475.83 445.17 464 450 450 450 c 0
350 116 m 1
 349.98 67.0195 l 1
 383.98 55.6895 417.311 50.0195 449.98 50.0195 c 0
 546.65 50.0195 629.15 84.1895 697.48 152.52 c 0
 765.811 220.85 799.98 303.35 799.98 400.02 c 0
 799.98 496.689 765.811 579.189 697.48 647.52 c 0
 629.15 715.85 546.65 750.02 449.98 750.02 c 0
 353.311 750.02 270.811 715.85 202.48 647.52 c 0
 134.15 579.189 99.9805 496.689 99.9805 400.02 c 0
 99.9805 303.35 116.65 236.68 149.98 200.01 c 1
 149.98 400.01 l 2
 149.98 482.68 179.311 553.35 237.98 612.02 c 0
 296.65 670.689 367.32 700.02 449.99 700.02 c 0
 532.66 700.02 603.33 670.689 662 612.02 c 0
 720.67 553.35 750 482.68 750 400.01 c 0
 750 317.34 720.67 246.67 662 188 c 0
 603.33 129.33 532.66 100 449.99 100 c 0
 414.66 100 381.33 105.33 350 116 c 1
849.98 400.02 m 0
 849.98 289.35 810.98 195.02 732.98 117.02 c 0
 654.98 39.0195 560.65 0.0195312 449.98 0.0195312 c 0
 339.311 0.0195312 244.98 39.0195 166.98 117.02 c 0
 88.9805 195.02 49.9805 289.35 49.9805 400.02 c 0
 49.9805 510.689 88.9805 605.02 166.98 683.02 c 0
 244.98 761.02 339.311 800.02 449.98 800.02 c 0
 560.65 800.02 654.98 761.02 732.98 683.02 c 0
 810.98 605.02 849.98 510.689 849.98 400.02 c 0
EndSplineSet
EndChar

StartChar: glyph158
Encoding: 65546 -1 181
Width: 900
Flags: W
LayerCount: 2
Fore
SplineSet
414 250 m 1
 400 260 l 2
 366.67 286.67 333.34 300 300.01 300 c 0
 266.68 300 250.01 283.33 250.01 250 c 0
 250.01 216.67 266.68 200 300.01 200 c 0
 333.34 200 366.67 213.33 400 240 c 2
 414 250 l 1
698 248 m 1
 749.99 210 l 1
 763.32 203.33 779.99 200 799.99 200 c 2
 849.99 200 l 1
 849.99 0 l 1
 799.99 0 l 2
 766.66 0 733.33 13.3301 700 40 c 2
 563 140 l 1
 450 50 l 2
 410 16.6699 360 0 300 0 c 0
 133.33 0 50 83.3301 50 250 c 0
 50 316.67 66.6699 366.67 100 400 c 0
 132.67 433.33 149.34 483.33 150.01 550 c 0
 150.01 716.67 233.34 800 400.01 800 c 2
 600.01 800 l 2
 766.68 800 850.01 716.67 850.01 550 c 1
 650.01 550 l 1
 650.01 583.33 616.68 600 550.01 600 c 2
 450.01 600 l 2
 383.34 600 350.01 580 350.01 540 c 0
 350.01 520 383.34 483.33 450.01 430 c 2
 555.01 353 l 1
 700.01 460 l 2
 733.34 486.67 766.67 500 800 500 c 2
 850 501 l 1
 850 300 l 1
 800 300 l 2
 780 300 763.33 296.67 750 290 c 1
 698 248 l 1
EndSplineSet
EndChar

StartChar: glyph159
Encoding: 65547 -1 182
Width: 500
Flags: W
LayerCount: 2
Fore
SplineSet
390 740 m 1
 317 626 l 1
 450 600 l 1
 317 573 l 1
 390 460 l 1
 277 533 l 1
 250 400 l 1
 223 533 l 1
 110 460 l 1
 184 573 l 1
 50 600 l 1
 183 627 l 1
 110 740 l 1
 223 666 l 1
 250 800 l 1
 277 667 l 1
 390 740 l 1
EndSplineSet
EndChar

StartChar: glyph160
Encoding: 65548 -1 183
Width: 869
Flags: W
LayerCount: 2
Fore
SplineSet
188 588 m 1
 300 550 l 1
 188 513 l 1
 150 400 l 1
 113 513 l 1
 0 550 l 1
 113 588 l 1
 150 700 l 1
 188 588 l 1
EndSplineSet
EndChar

StartChar: glyph165
Encoding: 65549 -1 184
Width: 1000
Flags: W
LayerCount: 2
Fore
SplineSet
650 0 m 2
 50 0 l 1
 50 200 l 1
 650 200 l 2
 716.67 200 750 216.67 750 250 c 0
 750 283.33 716.67 300 650 300 c 2
 50 300 l 1
 50 500 l 1
 650 500 l 2
 716.67 500 750 516.67 750 550 c 0
 750 583.33 716.67 600 650 600 c 2
 50 600 l 1
 50 800 l 1
 650 800 l 2
 850 800 950 716.67 950 550 c 0
 950 483.33 933.33 433.33 900 400 c 1
 933.33 366.67 950 316.67 950 250 c 0
 950 83.3301 850 0 650 0 c 2
EndSplineSet
EndChar

StartChar: glyph166
Encoding: 65550 -1 185
Width: 900
Flags: W
LayerCount: 2
Fore
SplineSet
850 100 m 1
 650 100 l 1
 650 0 l 1
 450 0 l 1
 450 100 l 1
 50 100 l 1
 50 400 l 2
 50 600 150 700 350 700 c 2
 600 700 l 2
 633.33 700 650 716.67 650 750 c 2
 650 800 l 1
 850 800 l 1
 850 750 l 2
 850 583.33 783.33 500 650 500 c 2
 350 500 l 2
 283.33 500 250 466.67 250 400 c 2
 250 300 l 1
 450 300 l 1
 450 400 l 1
 650 400 l 1
 650 300 l 1
 850 300 l 1
 850 100 l 1
EndSplineSet
EndChar

StartChar: glyph167
Encoding: 65551 -1 186
Width: 1300
Flags: W
LayerCount: 2
Fore
SplineSet
1250 450 m 2
 1250 0 l 1
 1050 0 l 1
 1050 450 l 2
 1050 550 1000 600 900 600 c 0
 800 600 750 550 750 450 c 2
 750 0 l 1
 550 0 l 1
 550 450 l 2
 550 550 500 600 400 600 c 0
 300 600 250 550 250 450 c 2
 250 0 l 1
 50 0 l 1
 50 450 l 2
 50 683.33 166.67 800 400 800 c 0
 500 800 583.33 766.67 650 700 c 1
 716.67 766.67 800 800 900 800 c 0
 1133.33 800 1250 683.33 1250 450 c 2
400 0 m 0
 427.33 0 450.83 9.83008 470.5 29.5 c 0
 490.17 49.1699 500 72.6699 500 100 c 0
 500 127.33 490.17 150.83 470.5 170.5 c 0
 450.83 190.17 427.33 200 400 200 c 0
 372.67 200 349.17 190.17 329.5 170.5 c 0
 309.83 150.83 300 127.33 300 100 c 0
 300 72.6699 309.83 49.1699 329.5 29.5 c 0
 349.17 9.83008 372.67 0 400 0 c 0
453 41 m 1
 381 41 l 2
 355 41 342 53 342 77 c 0
 342 94.3301 351.67 105 371 109 c 1
 339 158 l 1
 361 158 l 1
 394 109 l 1
 433 109 l 1
 433 158 l 1
 453 158 l 1
 453 41 l 1
435 60 m 1
 435 89 l 1
 383 89 l 2
 369.67 89 363 84.6699 363 76 c 0
 363 65.3301 369.67 60 383 60 c 2
 435 60 l 1
340 40 m 0
 323.33 56.6699 315 76.6699 315 100 c 0
 315 123.33 323.33 143.33 340 160 c 0
 356.67 176.67 376.67 185 400 185 c 0
 423.33 185 443.33 176.67 460 160 c 0
 476.67 143.33 485 123.33 485 100 c 0
 485 76.6699 476.67 56.6699 460 40 c 0
 443.33 23.3301 423.33 15 400 15 c 0
 376.67 15 356.67 23.3301 340 40 c 0
EndSplineSet
EndChar

StartChar: glyph168
Encoding: 65552 -1 187
Width: 800
Flags: W
LayerCount: 2
Fore
SplineSet
750 450 m 2
 750 0 l 1
 550 0 l 1
 550 450 l 2
 550 550 500 600 400 600 c 0
 300 600 250 550 250 450 c 2
 250 0 l 1
 50 0 l 1
 50 450 l 2
 50 683.33 166.67 800 400 800 c 0
 633.33 800 750 683.33 750 450 c 2
400 0 m 0
 427.33 0 450.83 9.83008 470.5 29.5 c 0
 490.17 49.1699 500 72.6699 500 100 c 0
 500 127.33 490.17 150.83 470.5 170.5 c 0
 450.83 190.17 427.33 200 400 200 c 0
 372.67 200 349.17 190.17 329.5 170.5 c 0
 309.83 150.83 300 127.33 300 100 c 0
 300 72.6699 309.83 49.1699 329.5 29.5 c 0
 349.17 9.83008 372.67 0 400 0 c 0
453 41 m 1
 381 41 l 2
 355 41 342 53 342 77 c 0
 342 94.3301 351.67 105 371 109 c 1
 339 158 l 1
 361 158 l 1
 394 109 l 1
 433 109 l 1
 433 158 l 1
 453 158 l 1
 453 41 l 1
435 60 m 1
 435 89 l 1
 383 89 l 2
 369.67 89 363 84.6699 363 76 c 0
 363 65.3301 369.67 60 383 60 c 2
 435 60 l 1
340 40 m 0
 323.33 56.6699 315 76.6699 315 100 c 0
 315 123.33 323.33 143.33 340 160 c 0
 356.67 176.67 376.67 185 400 185 c 0
 423.33 185 443.33 176.67 460 160 c 0
 476.67 143.33 485 123.33 485 100 c 0
 485 76.6699 476.67 56.6699 460 40 c 0
 443.33 23.3301 423.33 15 400 15 c 0
 376.67 15 356.67 23.3301 340 40 c 0
EndSplineSet
EndChar

StartChar: glyph169
Encoding: 65553 -1 188
Width: 800
Flags: W
LayerCount: 2
Fore
SplineSet
50 350 m 2
 50 800 l 1
 250 800 l 1
 250 350 l 2
 250 250 300 200 400 200 c 0
 500 200 550 250 550 350 c 2
 550 800 l 1
 750 800 l 1
 750 350 l 2
 750 116.67 633.33 0 400 0 c 0
 166.67 -0 50 116.67 50 350 c 2
400 800 m 0
 372.67 800 349.17 790.17 329.5 770.5 c 0
 309.83 750.83 300 727.33 300 700 c 0
 300 672.67 309.83 649.17 329.5 629.5 c 0
 349.17 609.83 372.67 600 400 600 c 0
 427.33 600 450.83 609.83 470.5 629.5 c 0
 490.17 649.17 500 672.67 500 700 c 0
 500 727.33 490.17 750.83 470.5 770.5 c 0
 450.83 790.17 427.33 800 400 800 c 0
347 759 m 1
 419 759 l 2
 445 759 458 747 458 723 c 0
 458 705.67 448.33 695 429 691 c 1
 461 642 l 1
 439 642 l 1
 406 691 l 1
 367 691 l 1
 367 642 l 1
 347 642 l 1
 347 759 l 1
365 740 m 1
 365 711 l 1
 417 711 l 2
 430.33 711 437 715.33 437 724 c 0
 437 734.67 430.33 740 417 740 c 2
 365 740 l 1
460 760 m 0
 476.67 743.33 485 723.33 485 700 c 0
 485 676.67 476.67 656.67 460 640 c 0
 443.33 623.33 423.33 615 400 615 c 0
 376.67 615 356.67 623.33 340 640 c 0
 323.33 656.67 315 676.67 315 700 c 0
 315 723.33 323.33 743.33 340 760 c 0
 356.67 776.67 376.67 785 400 785 c 0
 423.33 785 443.33 776.67 460 760 c 0
EndSplineSet
EndChar

StartChar: glyph170
Encoding: 65554 -1 189
Width: 1300
Flags: W
LayerCount: 2
Fore
SplineSet
50 350 m 2
 50 800 l 1
 250 800 l 1
 250 350 l 2
 250 250 300 200 400 200 c 0
 500 200 550 250 550 350 c 2
 550 800 l 1
 750 800 l 1
 750 350 l 2
 750 250 800 200 900 200 c 0
 1000 200 1050 250 1050 350 c 2
 1050 800 l 1
 1250 800 l 1
 1250 350 l 2
 1250 116.67 1133.33 0 900 0 c 0
 800 0 716.67 33.3301 650 100 c 1
 583.33 33.3301 500 0 400 0 c 0
 166.67 -0 50 116.67 50 350 c 2
900 800 m 0
 872.67 800 849.17 790.17 829.5 770.5 c 0
 809.83 750.83 800 727.33 800 700 c 0
 800 672.67 809.83 649.17 829.5 629.5 c 0
 849.17 609.83 872.67 600 900 600 c 0
 927.33 600 950.83 609.83 970.5 629.5 c 0
 990.17 649.17 1000 672.67 1000 700 c 0
 1000 727.33 990.17 750.83 970.5 770.5 c 0
 950.83 790.17 927.33 800 900 800 c 0
847 759 m 1
 919 759 l 2
 945 759 958 747 958 723 c 0
 958 705.67 948.33 695 929 691 c 1
 961 642 l 1
 939 642 l 1
 906 691 l 1
 867 691 l 1
 867 642 l 1
 847 642 l 1
 847 759 l 1
865 740 m 1
 865 711 l 1
 917 711 l 2
 930.33 711 937 715.33 937 724 c 0
 937 734.67 930.33 740 917 740 c 2
 865 740 l 1
960 760 m 0
 976.67 743.33 985 723.33 985 700 c 0
 985 676.67 976.67 656.67 960 640 c 0
 943.33 623.33 923.33 615 900 615 c 0
 876.67 615 856.67 623.33 840 640 c 0
 823.33 656.67 815 676.67 815 700 c 0
 815 723.33 823.33 743.33 840 760 c 0
 856.67 776.67 876.67 785 900 785 c 0
 923.33 785 943.33 776.67 960 760 c 0
EndSplineSet
EndChar

StartChar: glyph171
Encoding: 65555 -1 190
Width: 900
Flags: W
LayerCount: 2
Fore
SplineSet
350 0 m 1
 350 200 l 1
 150 233.33 50 366.66 50 599.99 c 2
 50 799.99 l 1
 250 799.99 l 1
 250 599.99 l 2
 250 466.66 316.67 399.99 450 399.99 c 0
 583.33 399.99 650 466.66 650 599.99 c 2
 650 799.99 l 1
 850 799.99 l 1
 850 599.99 l 2
 850 366.66 750 233.33 550 200 c 1
 550 0 l 1
 350 0 l 1
450 800 m 0
 422.67 800 399.17 790.17 379.5 770.5 c 0
 359.83 750.83 350 727.33 350 700 c 0
 350 672.67 359.83 649.17 379.5 629.5 c 0
 399.17 609.83 422.67 600 450 600 c 0
 477.33 600 500.83 609.83 520.5 629.5 c 0
 540.17 649.17 550 672.67 550 700 c 0
 550 727.33 540.17 750.83 520.5 770.5 c 0
 500.83 790.17 477.33 800 450 800 c 0
397 759 m 1
 469 759 l 2
 495 759 508 747 508 723 c 0
 508 705.67 498.33 695 479 691 c 1
 511 642 l 1
 489 642 l 1
 456 691 l 1
 417 691 l 1
 417 642 l 1
 397 642 l 1
 397 759 l 1
415 740 m 1
 415 711 l 1
 467 711 l 2
 480.33 711 487 715.33 487 724 c 0
 487 734.67 480.33 740 467 740 c 2
 415 740 l 1
510 760 m 0
 526.67 743.33 535 723.33 535 700 c 0
 535 676.67 526.67 656.67 510 640 c 0
 493.33 623.33 473.33 615 450 615 c 0
 426.67 615 406.67 623.33 390 640 c 0
 373.33 656.67 365 676.67 365 700 c 0
 365 723.33 373.33 743.33 390 760 c 0
 406.67 776.67 426.67 785 450 785 c 0
 473.33 785 493.33 776.67 510 760 c 0
EndSplineSet
EndChar

StartChar: uni204B
Encoding: 8267 8267 191
Width: 500
Flags: MW
HStem: 100 24.99 200 24.99 575 24.99
VStem: 50.1 24.99 100.08 99.95 425.01 24.99
LayerCount: 2
Fore
SplineSet
250.01 599.99 m 1
 249.991 600.002 l 1
 194.661 600.002 147.501 580.502 108.511 541.502 c 0
 71.0703 504.062 51.6006 459.102 50.1006 406.611 c 2
 50.0605 405.182 l 2
 50.0303 404.231 50.0205 402.512 50.0205 400.021 c 0
 50.0508 398.911 50.0605 397.191 50.0605 394.861 c 2
 50.0605 100.031 l 1
 250.021 100.031 l 1
 250.021 125.021 l 1
 200.03 125.021 l 1
 200.03 205.871 l 1
 215.88 201.981 232.54 200.031 250.01 200.031 c 0
 305.359 200.031 352.539 219.531 391.539 258.531 c 0
 430.509 297.501 449.999 344.661 449.999 400.011 c 0
 449.999 455.36 430.509 502.521 391.539 541.49 c 0
 352.539 580.49 305.359 599.99 250.01 599.99 c 1
249.991 425.002 m 1
 249.991 424.992 l 1
 257.021 424.992 262.941 422.582 267.762 417.762 c 0
 272.602 412.922 275.021 407.002 275.021 400.002 c 0
 275.021 393.002 272.602 387.082 267.762 382.242 c 0
 262.941 377.422 257.021 375.012 249.991 375.012 c 0
 242.991 375.012 237.081 377.422 232.261 382.242 c 0
 227.421 387.092 225.001 393.012 225.001 400.012 c 0
 225.001 407.012 227.421 412.932 232.261 417.771 c 0
 237.081 422.592 242.991 425.002 249.991 425.002 c 1
75.0713 394.082 m 1
 75.0312 404.581 l 2
 75.0312 449.941 92.1016 489.682 126.231 523.812 c 0
 160.392 557.972 201.632 575.052 249.962 575.052 c 0
 298.312 575.052 339.571 557.972 373.731 523.812 c 0
 407.892 489.651 424.972 448.392 424.972 400.042 c 0
 424.972 351.692 407.892 310.433 373.731 276.272 c 0
 339.571 242.112 298.312 225.032 249.962 225.032 c 0
 233.692 225.032 217.032 227.872 199.982 233.552 c 1
 199.982 258.032 l 1
 215.353 252.683 232.013 250.013 249.963 250.013 c 0
 291.293 250.013 326.623 264.683 355.963 294.022 c 0
 385.293 323.353 399.963 358.683 399.973 400.013 c 0
 399.973 441.343 385.303 476.673 355.963 506.013 c 0
 326.633 535.343 291.303 550.013 249.973 550.022 c 0
 208.643 550.022 173.312 535.353 143.982 506.013 c 0
 116.242 478.272 101.632 445.133 100.142 406.603 c 2
 100.062 403.872 l 2
 100.031 402.962 100.021 401.672 100.021 400.002 c 2
 100.062 124.992 l 1
 75.0713 124.992 l 1
 75.0713 394.082 l 1
EndSplineSet
EndChar

StartChar: openbullet
Encoding: 9702 9702 192
Width: 400
Flags: MW
HStem: 400 300<200 200>
VStem: 50 300<550 550>
LayerCount: 2
Fore
SplineSet
238 588 m 1
 350 550 l 1
 238 513 l 1
 200 400 l 1
 163 513 l 1
 50 550 l 1
 163 588 l 1
 200 700 l 1
 238 588 l 1
EndSplineSet
EndChar

StartChar: uniFFFD
Encoding: 65533 65533 193
Width: 700
Flags: MW
HStem: 0 200<250 450 250 650> 600 200<250 250 250 450>
VStem: 50 200<200 600 200 800> 450 200<200 600 600 600>
LayerCount: 2
Fore
SplineSet
650 800 m 1
 650 0 l 1
 50 0 l 1
 50 800 l 1
 650 800 l 1
250 600 m 1
 250 200 l 1
 450 200 l 1
 450 600 l 1
 250 600 l 1
EndSplineSet
EndChar

StartChar: uni001A
Encoding: 26 26 194
Width: 700
Flags: MW
HStem: 0 200<250 450 250 650> 600 200<250 250 250 450>
VStem: 50 200<200 600 200 800> 450 200<200 600 600 600>
LayerCount: 2
Fore
SplineSet
650 800 m 1
 650 0 l 1
 50 0 l 1
 50 800 l 1
 650 800 l 1
250 600 m 1
 250 200 l 1
 450 200 l 1
 450 600 l 1
 250 600 l 1
EndSplineSet
EndChar

StartChar: uni3003
Encoding: 12291 12291 195
Width: 600
Flags: MW
HStem: 500 300<50 250 50 250 50 350 350 550>
VStem: 50 200<500 800> 350 200<500 800>
LayerCount: 2
Fore
SplineSet
250 500 m 1
 50 500 l 1
 50 800 l 1
 250 800 l 1
 250 500 l 1
550 500 m 1
 350 500 l 1
 350 800 l 1
 550 800 l 1
 550 500 l 1
EndSplineSet
EndChar

StartChar: uni3016
Encoding: 12310 12310 196
Width: 500
Flags: MW
HStem: 0 50<116.665 400 150 400 150 450> 150 50 600 50<283.335 400 300 400 300 450> 750 50<140.335 450 150 400>
VStem: 50 50<100 700> 200 50<250 550> 400 50<50 50 650 750 750 750>
LayerCount: 2
Fore
SplineSet
450 0 m 1
 150 0 l 2
 83.3301 0 50 33.3301 50 100 c 2
 50 700 l 2
 50 766.67 83.3301 800 150 800 c 2
 450 800 l 1
 450 600 l 1
 300 600 l 2
 266.67 600 250 583.33 250 550 c 2
 250 250 l 2
 250 216.67 266.67 200 300 200 c 2
 450 200 l 1
 450 0 l 1
400 50 m 1
 399.999 149.99 l 1
 299.999 149.99 l 2
 269.609 149.99 245.35 158.95 227.21 176.86 c 0
 209.07 194.771 200 219.15 200 250 c 2
 200 550 l 2
 200 580.67 209 605 227 623 c 0
 245 641 269.33 650 300 650 c 2
 400 650 l 1
 400 750 l 1
 150 750 l 2
 130.67 750 117.5 746.33 110.5 739 c 0
 103.5 731.67 100 718.67 100 700 c 2
 100 100 l 2
 100 80.6699 103.5 67.5 110.5 60.5 c 0
 117.5 53.5 130.67 50 150 50 c 2
 400 50 l 1
EndSplineSet
EndChar

StartChar: uni3017
Encoding: 12311 12311 197
Width: 500
Flags: W
LayerCount: 2
Fore
SplineSet
50 0 m 1
 350 0 l 2
 416.67 0 450 33.3301 450 100 c 2
 450 700 l 2
 450 766.67 416.67 800 350 800 c 2
 50 800 l 1
 50 600 l 1
 200 600 l 2
 233.33 600 250 583.33 250 550 c 2
 250 250 l 2
 250 216.67 233.33 200 200 200 c 2
 50 200 l 1
 50 0 l 1
100 50 m 1
 100.001 149.99 l 1
 200.001 149.99 l 2
 230.391 149.99 254.65 158.95 272.79 176.86 c 0
 290.93 194.771 300 219.15 300 250 c 2
 300 550 l 2
 300 580.67 291 605 273 623 c 0
 255 641 230.67 650 200 650 c 2
 100 650 l 1
 100 750 l 1
 350 750 l 2
 369.33 750 382.5 746.33 389.5 739 c 0
 396.5 731.67 400 718.67 400 700 c 2
 400 100 l 2
 400 80.6699 396.5 67.5 389.5 60.5 c 0
 382.5 53.5 369.33 50 350 50 c 2
 100 50 l 1
EndSplineSet
EndChar

StartChar: uniF001
Encoding: 61441 61441 198
Width: 900
Flags: MW
HStem: 0 50 750 50
VStem: 50 50 800 50
LayerCount: 2
Fore
SplineSet
450 450 m 0
 436 450 424.17 445.17 414.5 435.5 c 0
 404.83 425.83 400 414 400 400 c 0
 400 386 404.83 374.17 414.5 364.5 c 0
 424.17 354.83 436 350 450 350 c 0
 464 350 475.83 354.83 485.5 364.5 c 0
 495.17 374.17 500 386 500 400 c 0
 500 414 495.17 425.83 485.5 435.5 c 0
 475.83 445.17 464 450 450 450 c 0
350 116 m 1
 349.98 67.0195 l 1
 383.98 55.6895 417.311 50.0195 449.98 50.0195 c 0
 546.65 50.0195 629.15 84.1895 697.48 152.52 c 0
 765.811 220.85 799.98 303.35 799.98 400.02 c 0
 799.98 496.689 765.811 579.189 697.48 647.52 c 0
 629.15 715.85 546.65 750.02 449.98 750.02 c 0
 353.311 750.02 270.811 715.85 202.48 647.52 c 0
 134.15 579.189 99.9805 496.689 99.9805 400.02 c 0
 99.9805 303.35 116.65 236.68 149.98 200.01 c 1
 149.98 400.01 l 2
 149.98 482.68 179.311 553.35 237.98 612.02 c 0
 296.65 670.689 367.32 700.02 449.99 700.02 c 0
 532.66 700.02 603.33 670.689 662 612.02 c 0
 720.67 553.35 750 482.68 750 400.01 c 0
 750 317.34 720.67 246.67 662 188 c 0
 603.33 129.33 532.66 100 449.99 100 c 0
 414.66 100 381.33 105.33 350 116 c 1
849.98 400.02 m 0
 849.98 289.35 810.98 195.02 732.98 117.02 c 0
 654.98 39.0195 560.65 0.0195312 449.98 0.0195312 c 0
 339.311 0.0195312 244.98 39.0195 166.98 117.02 c 0
 88.9805 195.02 49.9805 289.35 49.9805 400.02 c 0
 49.9805 510.689 88.9805 605.02 166.98 683.02 c 0
 244.98 761.02 339.311 800.02 449.98 800.02 c 0
 560.65 800.02 654.98 761.02 732.98 683.02 c 0
 810.98 605.02 849.98 510.689 849.98 400.02 c 0
EndSplineSet
EndChar

StartChar: uniF002
Encoding: 61442 61442 199
Width: 1170
Flags: MW
HStem: 2.75999 80.73
LayerCount: 2
Fore
SplineSet
443.2 738.84 m 5
 420.449 725.729 l 5
 407.189 725.729 395.359 726.699 384.949 728.64 c 5
 360.1 728.64 l 5
 339.75 724.76 322.95 723.79 309.7 725.73 c 5
 266.4 749 l 5
 175.53 764.52 113.771 736.88 81.1201 666.09 c 4
 65.9805 641.85 56.2803 620.27 52.0205 601.359 c 4
 47.7607 582.449 50.1309 548.749 59.1211 500.259 c 5
 76.8711 471.889 l 5
 78.7715 437.459 86.3418 408.119 99.5918 383.869 c 5
 97.7021 347.499 99.5918 317.439 105.271 293.68 c 5
 112.371 282.77 l 6
 117.102 274.529 122.312 268.47 127.991 264.59 c 5
 211.051 153.31 l 5
 213.181 145.31 l 5
 254.351 65.2998 l 6
 264.291 43 276.121 24.8203 289.841 10.7607 c 5
 372.19 -10.0889 428.511 -2.08887 458.801 34.7607 c 5
 472.051 81.3105 455.011 114.771 407.681 135.141 c 5
 423.301 143.141 l 5
 473.94 137.811 517.011 145.57 552.511 166.42 c 5
 569.081 163.03 575.711 153.57 572.401 138.051 c 5
 559.621 127.871 l 5
 500.931 119.141 480.11 88.1104 497.15 34.7705 c 5
 506.61 22.1602 516.551 12.46 526.961 5.66992 c 5
 546.841 2.75977 l 5
 683.851 2.75977 l 5
 698.99 6.63965 712.48 12.9395 724.311 21.6699 c 5
 746.08 11 765.49 4.7002 782.53 2.75977 c 6
 873.391 2.75977 l 6
 914.091 1.2998 946.751 3.24023 971.361 8.57031 c 5
 978.461 15.3604 982.721 23.1201 984.141 31.8506 c 5
 984.141 65.3105 l 5
 991.95 85.6807 l 5
 996.92 93.6807 l 5
 1015.37 143.141 l 5
 1023.42 153.32 1029.1 162.78 1032.41 171.511 c 5
 1040.93 180.241 1049.45 186.301 1057.97 189.69 c 5
 1142.21 193.08 1179.12 240.6 1168.71 332.25 c 5
 1166.58 340.25 l 5
 1166.58 353.82 1163.98 364.971 1158.77 373.701 c 5
 1140.84 390.562 1126.64 406.081 1116.17 420.251 c 5
 1087.77 448.621 l 6
 1079.26 457.341 1073.58 464.371 1070.73 469.711 c 5
 1042.34 497.351 l 6
 1030.98 506.081 1018.44 519.171 1004.71 536.621 c 6
 992.879 547.301 980.339 561.851 967.089 580.271 c 5
 960.459 595.79 952.889 608.88 944.379 619.54 c 5
 938.699 655.91 l 5
 936.569 684.28 l 5
 934.439 689.37 l 5
 923.789 705.37 l 5
 863.449 769.38 l 5
 840.729 788.29 l 5
 776.369 805.26 718.159 801.87 666.1 778.11 c 5
 620.67 796.54 576.66 803.33 534.07 798.48 c 4
 493.84 789.75 463.55 769.87 443.2 738.84 c 5
612.829 749.01 m 5
 612.851 748.979 l 5
 663.49 744.129 694.73 719.159 706.561 674.06 c 5
 696.62 660 689.76 647.88 685.97 637.7 c 5
 688.81 632.61 l 5
 693.779 616.61 l 5
 706.56 614.431 l 5
 733.54 631.4 755.55 627.04 772.59 601.34 c 5
 758.87 566.91 735.21 558.42 701.61 575.88 c 5
 691.67 567.88 l 5
 691.67 546.78 l 5
 695.93 539.511 l 5
 711.069 525.451 722.899 513.331 731.419 503.141 c 5
 736.629 444.471 724.799 393.551 695.929 350.391 c 5
 676.049 305.291 646.709 274.261 607.899 257.291 c 6
 560.569 213.651 508.27 191.102 451.01 189.642 c 5
 395.64 158.611 336.72 166.371 274.25 212.921 c 5
 247.27 223.101 225.5 237.891 208.94 257.291 c 6
 164.45 281.531 138.181 314.991 130.141 357.661 c 5
 150.49 402.761 182.431 425.311 225.971 425.311 c 5
 320.621 465.07 402.501 450.28 471.601 380.94 c 5
 486.511 376.57 l 5
 504.961 367.851 519.391 360.091 529.811 353.301 c 5
 558.211 349.421 583.291 352.811 605.061 363.48 c 5
 617.36 375.12 619.25 387.24 610.73 399.851 c 5
 561.511 392.581 528.381 408.101 511.341 446.41 c 5
 509.921 472.11 512.761 493.45 519.86 510.42 c 5
 534.061 526.42 l 5
 554.65 544.6 l 5
 565.301 552.6 l 5
 587.07 564.239 604.58 577.819 617.83 593.339 c 5
 626.35 621.469 628.239 648.379 623.509 674.079 c 5
 596.059 736.149 548.729 748.999 481.528 712.629 c 5
 473.719 718.449 l 5
 477.028 725.239 483.889 732.999 494.299 741.729 c 5
 517.959 748.52 537.359 757.01 552.499 767.189 c 5
 576.159 767.189 596.27 761.13 612.829 749.01 c 5
792.461 748.979 m 5
 853.044 738.79 887.594 703.39 896.113 642.779 c 5
 924.503 585.56 923.553 529.31 893.263 474.029 c 5
 893.263 466.76 l 6
 891.843 451.22 891.133 437.399 891.133 425.3 c 5
 885.933 411.24 880.013 399.84 873.383 391.109 c 5
 858.243 318.859 829.613 258.729 787.493 210.72 c 6
 755.313 137.989 711.533 80.0391 656.163 36.8789 c 5
 610.733 26.6992 572.873 34.459 542.583 60.1592 c 5
 552.043 75.6787 570.503 83.4385 597.953 83.4385 c 5
 609.313 95.5586 617.833 106.709 623.513 116.889 c 5
 625.643 137.979 l 6
 625.643 141.368 627.652 148.278 631.672 158.708 c 4
 635.691 169.138 640.541 177.748 646.221 184.528 c 5
 647.641 194.708 650.011 203.438 653.32 210.708 c 5
 665.15 224.288 672.721 237.138 676.03 249.258 c 5
 723.36 299.208 752.7 353.518 764.061 412.188 c 5
 771.16 422.367 776.37 432.797 779.68 443.467 c 5
 779.68 467.717 776.37 489.297 769.74 508.207 c 5
 796.721 539.237 812.811 570.997 818.021 603.487 c 5
 811.4 612.218 806.19 620.218 802.4 627.498 c 5
 768.801 653.198 745.141 683.508 731.421 718.418 c 5
 724.791 725.208 719.821 731.998 716.512 738.778 c 5
 719.821 752.358 727.392 761.818 739.222 767.158 c 5
 759.571 767.158 777.321 761.099 792.461 748.979 c 5
291.984 622.41 m 5
 279.212 614.399 l 5
 248.922 623.13 222.652 618.77 200.412 601.31 c 5
 191.893 584.34 188.343 564.939 189.763 543.119 c 5
 170.353 526.629 156.393 513.169 147.873 502.739 c 4
 139.354 492.31 130.834 483.71 122.324 476.93 c 5
 107.414 484.93 l 5
 104.104 498.989 103.395 511.109 105.284 521.289 c 5
 83.0439 557.659 82.0938 592.089 102.443 624.579 c 5
 119.483 667.739 137.464 693.68 156.394 702.41 c 4
 175.794 711.141 201.824 715.261 234.475 714.78 c 4
 280.854 713.33 300.024 682.54 291.984 622.41 c 5
390.662 686.409 m 5
 390.683 686.418 l 5
 410.562 672.838 428.072 662.658 443.212 655.868 c 5
 532.662 704.358 576.672 693.208 575.252 622.418 c 5
 572.412 616.598 l 5
 562.472 603.508 l 5
 549.691 591.138 l 6
 517.512 563.498 493.852 533.188 478.712 500.219 c 5
 470.192 488.579 460.962 479.119 451.021 471.85 c 5
 372.932 474.029 l 5
 345.241 487.119 l 6
 336.722 490.999 329.151 492.939 322.521 492.939 c 6
 279.222 492.939 l 5
 250.352 472.09 224.082 468.7 200.422 482.76 c 5
 210.832 499.729 221.952 512.579 233.782 521.31 c 5
 225.263 588.71 258.152 601.56 332.452 559.859 c 5
 356.112 561.8 376.462 568.59 393.502 580.229 c 5
 423.312 583.14 l 5
 436.562 571.5 443.191 556.95 443.191 539.49 c 5
 453.132 526.4 l 5
 465.432 531.25 474.901 537.31 481.531 544.59 c 5
 493.361 603.26 454.552 624.84 365.102 609.32 c 5
 353.271 612.71 344.041 617.8 337.411 624.59 c 5
 328.892 657.56 342.382 679.14 377.882 689.319 c 5
 390.662 686.409 l 5
519.883 632.588 m 5
 524.612 646.167 519.402 652.957 504.263 652.957 c 5
 497.633 637.438 502.843 630.647 519.883 632.588 c 5
382.872 647.867 m 5
 370.093 650.768 l 5
 371.982 633.317 376.242 632.348 382.872 647.867 c 5
367.963 533.668 m 5
 367.974 533.656 l 5
 372.704 515.227 384.534 510.137 403.464 518.377 c 5
 416.714 528.557 418.134 539.957 407.724 552.567 c 5
 397.783 552.567 l 5
 386.423 547.237 376.482 540.938 367.963 533.668 c 5
277.104 531.477 m 5
 277.104 531.466 l 5
 302.184 528.076 302.184 533.166 277.104 546.746 c 5
 275.214 541.896 275.214 536.807 277.104 531.477 c 5
977.063 508.196 m 5
 1042.37 440.542 l 5
 1093.48 400.782 1123.77 353.263 1133.24 297.982 c 5
 1123.3 280.522 l 5
 1120.46 266.463 1114.78 254.343 1106.26 244.163 c 5
 1089.22 237.373 1075.5 230.343 1065.09 223.073 c 5
 1055.16 219.684 1045.58 217.983 1036.35 217.983 c 4
 1027.12 217.983 1019.19 216.283 1012.56 212.894 c 5
 980.383 176.523 961.923 137.733 957.192 96.5137 c 5
 928.792 44.874 l 5
 917.442 46.3242 907.502 48.7441 898.982 52.1445 c 5
 888.332 52.1445 l 5
 878.392 47.2949 869.161 43.9053 860.642 41.9648 c 5
 842.182 43.9053 825.382 42.2051 810.242 36.875 c 5
 797.462 36.875 l 5
 782.312 45.1152 770.481 55.5352 761.962 68.1455 c 5
 771.902 105.966 799.593 109.355 845.022 78.3252 c 5
 855.433 81.7256 863.003 86.0859 867.733 91.416 c 5
 870.573 119.786 l 5
 853.533 159.066 846.903 196.166 850.693 231.076 c 5
 857.793 251.446 l 5
 864.423 260.177 869.633 268.907 873.413 277.627 c 6
 880.513 297.997 l 5
 891.163 313.997 l 5
 896.373 334.367 903.943 351.577 913.884 365.637 c 5
 916.014 370.727 l 5
 917.903 396.906 924.764 419.456 936.594 438.366 c 5
 938.724 456.557 l 5
 941.563 474.017 l 5
 944.403 503.106 l 5
 957.184 513.286 l 5
 977.063 508.196 l 5
352.352 88.502 m 5
 352.351 88.5137 l 5
 356.141 83.6641 359.45 80.2637 362.29 78.3232 c 5
 384.53 80.2637 402.511 74.2041 416.23 60.1445 c 5
 414.341 51.4141 410.081 43.6543 403.451 36.8643 c 5
 349.501 22.8047 314.011 35.6543 296.971 75.4141 c 5
 264.791 103.054 256.271 130.693 271.411 158.333 c 5
 315.431 149.603 342.411 126.322 352.352 88.502 c 5
EndSplineSet
EndChar

StartChar: uniF003
Encoding: 61443 61443 200
Width: 900
Flags: MW
HStem: 0 200<283.345 316.675 283.345 330 799.99 849.99> 600 200<416.675 450.01 450.01 550.01>
LayerCount: 2
Fore
SplineSet
414 250 m 1
 400 260 l 2
 366.67 286.67 333.34 300 300.01 300 c 0
 266.68 300 250.01 283.33 250.01 250 c 0
 250.01 216.67 266.68 200 300.01 200 c 0
 333.34 200 366.67 213.33 400 240 c 2
 414 250 l 1
698 248 m 1
 749.99 210 l 1
 763.32 203.33 779.99 200 799.99 200 c 2
 849.99 200 l 1
 849.99 0 l 1
 799.99 0 l 2
 766.66 0 733.33 13.3301 700 40 c 2
 563 140 l 1
 450 50 l 2
 410 16.6699 360 0 300 0 c 0
 133.33 0 50 83.3301 50 250 c 0
 50 316.67 66.6699 366.67 100 400 c 0
 132.67 433.33 149.34 483.33 150.01 550 c 0
 150.01 716.67 233.34 800 400.01 800 c 2
 600.01 800 l 2
 766.68 800 850.01 716.67 850.01 550 c 1
 650.01 550 l 1
 650.01 583.33 616.68 600 550.01 600 c 2
 450.01 600 l 2
 383.34 600 350.01 580 350.01 540 c 0
 350.01 520 383.34 483.33 450.01 430 c 2
 555.01 353 l 1
 700.01 460 l 2
 733.34 486.67 766.67 500 800 500 c 2
 850 501 l 1
 850 300 l 1
 800 300 l 2
 780 300 763.33 296.67 750 290 c 1
 698 248 l 1
EndSplineSet
EndChar

StartChar: uniF004
Encoding: 61444 61444 201
Width: 350
Flags: MW
HStem: 400 300<150 150>
VStem: 0 300<550 550>
LayerCount: 2
Fore
SplineSet
188 588 m 1
 300 550 l 1
 188 513 l 1
 150 400 l 1
 113 513 l 1
 0 550 l 1
 113 588 l 1
 150 700 l 1
 188 588 l 1
EndSplineSet
EndChar

StartChar: uniF005
Encoding: 61445 61445 202
Width: 500
Flags: MW
HStem: 400 400<250 250>
VStem: 50 400<600 600>
LayerCount: 2
Fore
SplineSet
390 740 m 1
 317 626 l 1
 450 600 l 1
 317 573 l 1
 390 460 l 1
 277 533 l 1
 250 400 l 1
 223 533 l 1
 110 460 l 1
 184 573 l 1
 50 600 l 1
 183 627 l 1
 110 740 l 1
 223 666 l 1
 250 800 l 1
 277 667 l 1
 390 740 l 1
EndSplineSet
EndChar

StartChar: uniF006
Encoding: 61446 61446 203
Width: 1298
Flags: MW
HStem: 4.60001 186.35 548.2 186.35 780 20G<638.28 638.28>
VStem: 316.94 96.66 885.72 107.5
LayerCount: 2
Fore
SplineSet
638.28 800 m 1
 671.895 799.949 l 1
 990.965 592.539 l 1
 1062.64 633.949 l 1
 1062.44 636.529 1062.34 638.989 1062.34 641.329 c 0
 1062.34 667.049 1071.43 689.009 1089.61 707.209 c 0
 1107.79 725.409 1129.72 734.509 1155.41 734.509 c 0
 1181.1 734.509 1203.04 725.409 1221.22 707.209 c 0
 1239.4 689.009 1248.49 667.049 1248.49 641.329 c 0
 1248.49 615.609 1239.4 593.649 1221.22 575.449 c 0
 1203.04 557.249 1181.1 548.149 1155.41 548.149 c 0
 1138.34 548.149 1122.48 552.529 1107.83 561.279 c 1
 993.223 495.02 l 1
 993.223 340.079 l 1
 909.232 253.119 l 1
 1042.77 175.899 l 1
 1058.14 185.899 1075 190.899 1093.35 190.899 c 0
 1119.04 190.899 1140.98 181.8 1159.16 163.6 c 0
 1177.34 145.399 1186.43 123.439 1186.43 97.7197 c 0
 1186.43 72 1177.34 50.04 1159.16 31.8398 c 0
 1140.98 13.6396 1119.04 4.54004 1093.35 4.54004 c 0
 1067.66 4.54004 1045.73 13.6396 1027.55 31.8398 c 0
 1009.37 50.04 1000.28 72 1000.28 97.7197 c 0
 1000.28 98.6299 1000.31 99.9102 1000.38 101.561 c 1
 847.934 189.641 l 1
 844.703 186.311 l 1
 844.703 16.5205 l 1
 831.684 3.44043 l 1
 770.983 1.12012 712.113 -0.0400391 655.073 -0.0400391 c 0
 598.804 -0.0400391 536.554 1.12012 468.313 3.44043 c 1
 453.184 18.5908 l 1
 453.184 182.871 l 1
 298.113 93.2314 l 1
 296.943 68.501 287.373 47.541 269.413 30.3506 c 0
 251.453 13.1602 230.033 4.56055 205.153 4.56055 c 0
 179.463 4.56055 157.533 13.6602 139.354 31.8604 c 0
 121.174 50.0605 112.084 72.0205 112.084 97.7402 c 0
 112.084 123.46 121.174 145.42 139.354 163.62 c 0
 157.533 181.82 179.463 190.92 205.153 190.92 c 0
 226.403 190.92 245.423 184.39 262.213 171.33 c 1
 397.312 249.46 l 1
 316.952 340.11 l 1
 316.952 496.62 l 1
 197.442 565.71 l 1
 181.242 554.03 163.132 548.19 143.112 548.19 c 0
 117.422 548.19 95.4814 557.29 77.3018 575.49 c 0
 59.1221 593.69 50.0322 615.65 50.0322 641.37 c 0
 50.0322 667.09 59.1221 689.05 77.3018 707.25 c 0
 95.4814 725.45 117.422 734.55 143.112 734.55 c 0
 168.662 734.55 190.502 725.54 208.642 707.521 c 0
 226.781 689.501 235.961 667.721 236.181 642.181 c 1
 320.471 593.45 l 1
 638.28 800 l 1
874.085 549.359 m 0
 873.795 549.367 873.225 549.348 872.364 549.308 c 0
 872.044 549.298 871.404 549.248 870.444 549.158 c 1
 704.784 461.488 l 2
 687.774 453.219 685.104 448.349 696.765 446.889 c 1
 809.635 409.869 868.745 391.609 874.085 392.1 c 0
 879.915 392.59 883.795 397.939 885.735 408.159 c 1
 885.735 538.959 l 2
 886.165 545.819 882.285 549.289 874.085 549.359 c 0
427.375 546.087 m 2
 427.356 546.087 l 2
 422.166 546.007 417.576 543.637 413.586 538.977 c 1
 413.586 404.536 l 2
 414.556 396.756 420.155 392.376 430.386 391.396 c 1
 614.266 446.896 l 2
 620.596 449.336 619.386 452.986 610.636 457.856 c 2
 434.726 544.776 l 2
 432.146 545.687 429.695 546.127 427.375 546.087 c 2
650.026 406.697 m 1
 650.018 406.679 l 1
 646.857 406.679 643.697 403.999 640.537 398.649 c 1
 616.157 336.169 603.497 302.809 602.557 298.559 c 1
 600.616 294.198 600.616 291.778 602.557 291.298 c 0
 603.937 290.838 613.187 288.647 630.307 284.728 c 0
 646.856 281.317 668.746 283.508 695.977 291.298 c 1
 698.917 290.808 698.677 295.438 695.267 305.188 c 2
 659.507 398.668 l 1
 656.347 404.018 653.187 406.697 650.026 406.697 c 1
EndSplineSet
EndChar

StartChar: uniF007
Encoding: 61447 61447 204
Width: 1293
Flags: MW
HStem: 1.25 181.49 551.76 181.49
VStem: 307.34 99.19 887.18 99.24
LayerCount: 2
Fore
SplineSet
690.1 782.25 m 1
 962.215 602.799 l 2
 970.865 596.249 976.686 593.779 979.676 595.399 c 2
 1062.3 643.079 l 1
 1062.45 667.999 1071.38 689.259 1089.09 706.858 c 0
 1106.79 724.458 1128.11 733.258 1153.05 733.258 c 0
 1178.09 733.258 1199.46 724.397 1217.17 706.678 c 0
 1234.88 688.958 1243.74 667.568 1243.74 642.519 c 0
 1243.74 617.469 1234.88 596.079 1217.17 578.349 c 0
 1199.46 560.629 1178.09 551.769 1153.05 551.769 c 0
 1134.55 551.769 1117.64 556.948 1102.32 567.298 c 1
 986.446 500.418 l 1
 986.446 348.248 l 2
 986.446 339.648 982.876 332.948 975.746 328.158 c 1
 975.716 328.128 975.696 328.108 975.696 328.099 c 1
 974.927 326.938 974.127 325.938 973.287 325.099 c 2
 903.367 255.179 l 1
 1049.62 170.778 l 1
 1063.55 178.748 1078.53 182.738 1094.56 182.738 c 0
 1119.61 182.738 1141 173.878 1158.73 156.147 c 0
 1176.46 138.417 1185.32 117.027 1185.32 91.9873 c 0
 1185.32 66.9473 1176.46 45.5576 1158.73 27.8271 c 0
 1141 10.0967 1119.61 1.23633 1094.56 1.23633 c 0
 1069.51 1.23633 1048.12 10.0967 1030.39 27.8271 c 0
 1012.66 45.5576 1003.8 66.9473 1003.8 91.9873 c 0
 1003.8 93.9873 1003.87 96.0371 1004.01 98.127 c 1
 843.077 191.027 l 1
 843.077 27.6875 l 2
 843.077 20.9775 840.717 15.2578 835.997 10.5381 c 0
 831.277 5.81836 825.558 3.45801 818.848 3.45801 c 2
 474.958 3.45801 l 2
 468.238 3.45801 462.519 5.81836 457.799 10.5381 c 0
 453.079 15.2578 450.719 20.9775 450.719 27.6875 c 2
 450.719 191.088 l 1
 289.738 98.1377 l 1
 289.878 96.0479 289.948 93.998 289.948 91.998 c 0
 289.948 66.958 281.088 45.5684 263.357 27.8379 c 0
 245.627 10.1074 224.237 1.24707 199.197 1.24707 c 0
 174.147 1.24707 152.758 10.1074 135.027 27.8379 c 0
 117.297 45.5684 108.437 66.958 108.437 91.998 c 0
 108.437 117.038 117.297 138.428 135.027 156.158 c 0
 152.758 173.889 174.147 182.749 199.197 182.749 c 0
 215.228 182.749 230.208 178.759 244.138 170.789 c 1
 390.378 255.239 l 1
 320.508 325.109 l 2
 319.668 325.949 318.868 326.949 318.099 328.109 c 0
 318.068 328.14 318.049 328.159 318.039 328.159 c 1
 310.909 332.949 307.339 339.649 307.339 348.249 c 2
 307.339 500.369 l 1
 191.409 567.299 l 1
 176.089 556.949 159.179 551.77 140.679 551.77 c 0
 115.639 551.77 94.2588 560.63 76.5488 578.36 c 0
 58.8389 596.08 49.9785 617.47 49.9785 642.52 c 0
 49.9785 667.569 58.8389 688.959 76.5488 706.679 c 0
 94.2588 724.398 115.639 733.259 140.679 733.259 c 0
 165.619 733.259 186.939 724.459 204.64 706.859 c 0
 222.34 689.26 231.27 668 231.43 643.08 c 1
 314.1 595.35 l 2
 316.729 593.869 322.55 596.35 331.569 602.8 c 2
 601.659 782.25 l 1
 690.1 782.25 l 1
421.405 546.619 m 1
 421.415 546.617 l 1
 411.515 546.737 406.564 540.497 406.564 527.897 c 2
 406.564 470.878 l 1
 406.564 403.998 l 2
 406.564 398.948 409.944 395.809 416.694 394.589 c 0
 423.444 393.369 429.614 393.759 435.204 395.759 c 2
 511.784 418.369 l 1
 606.994 447.799 l 2
 613.414 449.519 613.444 452.209 607.095 455.879 c 2
 511.785 503.398 l 1
 428.115 545.099 l 2
 426.415 546.079 424.175 546.589 421.405 546.619 c 1
872.365 546.617 m 0
 869.596 546.589 867.355 546.079 865.655 545.099 c 2
 781.995 503.398 l 1
 686.686 455.879 l 2
 680.336 452.209 680.366 449.519 686.786 447.799 c 2
 781.996 418.369 l 1
 858.576 395.759 l 2
 864.166 393.759 870.336 393.369 877.086 394.589 c 0
 883.836 395.809 887.216 398.948 887.216 403.998 c 2
 887.216 470.878 l 1
 887.216 527.897 l 2
 887.216 540.497 882.266 546.737 872.365 546.617 c 0
646.865 406.569 m 1
 637.615 399.169 l 1
 621.355 357.099 l 1
 597.955 293.579 l 2
 597.905 292.859 598.165 292.199 598.745 291.589 c 1
 611.545 287.819 623.225 285.35 633.784 284.189 c 1
 634.464 286.18 l 1
 642.334 306.58 l 1
 643.754 307.26 l 1
 644.594 306.37 l 1
 644.544 294.78 l 2
 644.544 293.38 645.334 292.68 646.904 292.68 c 0
 648.444 292.68 649.214 293.38 649.214 294.78 c 2
 649.164 306.37 l 1
 650.004 307.26 l 1
 651.424 306.58 l 1
 659.244 286.18 l 1
 659.975 284.189 l 1
 670.585 285.359 682.285 287.829 695.075 291.589 c 1
 695.655 292.199 695.915 292.859 695.865 293.579 c 2
 672.365 357.099 l 1
 656.205 399.169 l 1
 646.865 406.569 l 1
EndSplineSet
EndChar

StartChar: uniF008
Encoding: 61448 61448 205
Width: 1293
Flags: MW
HStem: 1.25 181.49 551.76 181.49
VStem: 307.34 99.19 887.18 99.24
LayerCount: 2
Fore
SplineSet
690.1 782.25 m 1
 962.214 602.799 l 2
 970.864 596.249 976.685 593.779 979.675 595.399 c 2
 1062.29 643.079 l 1
 1062.45 667.999 1071.38 689.259 1089.08 706.858 c 0
 1106.79 724.458 1128.11 733.258 1153.05 733.258 c 0
 1178.09 733.258 1199.46 724.397 1217.17 706.678 c 0
 1234.88 688.958 1243.74 667.568 1243.74 642.519 c 0
 1243.74 617.469 1234.88 596.079 1217.17 578.349 c 0
 1199.46 560.629 1179.72 551.769 1157.95 551.769 c 0
 1136.18 551.769 1117.63 556.948 1102.31 567.298 c 1
 986.437 500.418 l 1
 986.437 348.248 l 2
 986.437 339.648 982.856 332.938 975.687 328.108 c 2
 974.917 326.948 974.117 325.948 973.277 325.108 c 2
 903.357 255.188 l 1
 1049.61 170.788 l 1
 1063.54 178.758 1080.78 182.748 1101.32 182.748 c 0
 1121.86 182.748 1140.99 173.888 1158.72 156.157 c 0
 1176.45 138.427 1185.31 117.037 1185.31 91.9971 c 0
 1185.31 66.957 1176.45 45.5674 1158.72 27.8369 c 0
 1140.99 10.1064 1119.6 1.24609 1094.55 1.24609 c 0
 1069.5 1.24609 1048.11 10.1064 1030.38 27.8369 c 0
 1012.65 45.5674 1003.79 66.957 1003.79 91.9971 c 0
 1003.79 93.9971 1003.86 96.0469 1004 98.1367 c 1
 843.067 191.037 l 1
 843.067 27.6973 l 2
 843.067 20.9873 840.707 15.2676 835.987 10.5479 c 0
 831.268 5.82812 825.548 3.46777 818.838 3.46777 c 2
 474.948 3.46777 l 2
 468.229 3.46777 462.509 5.82812 457.789 10.5479 c 0
 453.069 15.2676 450.709 20.9873 450.709 27.6973 c 2
 450.709 191.098 l 1
 289.729 98.1475 l 1
 289.868 96.0576 289.938 94.0078 289.938 92.0078 c 0
 289.938 66.9678 281.078 45.5781 263.348 27.8477 c 0
 245.617 10.1172 224.228 1.25684 199.188 1.25684 c 0
 174.138 1.25684 152.748 10.1172 135.018 27.8477 c 0
 117.287 45.5781 108.427 66.9678 108.427 92.0078 c 0
 108.427 117.048 117.287 138.438 135.018 156.168 c 0
 152.748 173.898 171.878 182.759 192.418 182.759 c 0
 212.958 182.759 230.198 178.769 244.128 170.799 c 1
 390.368 255.249 l 1
 320.498 325.119 l 2
 319.658 325.959 318.838 326.969 318.028 328.159 c 2
 310.898 332.949 307.328 339.649 307.328 348.249 c 2
 307.328 500.369 l 1
 191.398 567.299 l 1
 176.078 556.949 157.538 551.77 135.769 551.77 c 0
 113.999 551.77 94.2588 560.63 76.5488 578.36 c 0
 58.8389 596.08 49.9785 617.47 49.9785 642.52 c 0
 49.9785 667.569 58.8389 688.959 76.5488 706.679 c 0
 94.2588 724.398 115.639 733.259 140.679 733.259 c 0
 165.619 733.259 186.939 724.459 204.64 706.859 c 0
 222.34 689.26 231.27 668 231.43 643.08 c 1
 314.1 595.35 l 2
 316.729 593.869 322.55 596.35 331.569 602.8 c 2
 601.659 782.25 l 1
 690.1 782.25 l 1
421.404 546.619 m 1
 421.404 546.607 l 1
 411.504 546.728 406.554 540.487 406.554 527.888 c 2
 406.554 403.987 l 2
 406.554 398.938 409.934 395.798 416.684 394.578 c 0
 423.434 393.358 429.604 393.748 435.193 395.748 c 2
 606.983 447.788 l 2
 613.403 449.508 613.434 452.198 607.084 455.868 c 2
 428.114 545.099 l 2
 426.414 546.079 424.174 546.589 421.404 546.619 c 1
872.354 546.607 m 1
 872.354 546.619 l 1
 869.585 546.589 867.345 546.079 865.645 545.099 c 2
 686.675 455.868 l 2
 680.325 452.198 680.355 449.508 686.775 447.788 c 2
 858.565 395.748 l 2
 864.155 393.748 870.325 393.358 877.075 394.578 c 0
 883.825 395.798 887.205 398.938 887.205 403.987 c 2
 887.205 527.888 l 2
 887.205 540.487 882.255 546.728 872.354 546.607 c 1
656.185 399.169 m 1
 651.735 403.989 648.646 406.399 646.905 406.399 c 0
 645.165 406.399 642.065 403.989 637.615 399.169 c 1
 597.955 293.579 l 2
 597.905 292.859 598.165 292.199 598.745 291.589 c 1
 611.545 287.819 623.225 285.35 633.784 284.189 c 1
 642.334 306.59 l 1
 643.834 308.35 644.584 308.279 644.584 306.379 c 2
 644.534 294.789 l 2
 644.534 293.389 645.324 292.688 646.895 292.688 c 0
 648.435 292.688 649.204 293.389 649.204 294.789 c 2
 649.154 306.379 l 2
 649.154 308.279 649.904 308.35 651.404 306.59 c 1
 659.954 284.189 l 1
 670.564 285.359 682.265 287.829 695.055 291.589 c 1
 695.635 292.199 695.895 292.859 695.845 293.579 c 2
 656.185 399.169 l 1
1102.73 579.069 m 1
 1102.76 579.038 l 2
 1117 567.998 1134.51 562.348 1155.3 562.098 c 0
 1176.09 561.848 1194.36 569.607 1210.12 585.377 c 0
 1225.88 601.146 1233.76 620.177 1233.76 642.467 c 0
 1233.76 664.757 1225.88 683.787 1210.12 699.557 c 0
 1194.36 715.326 1175.36 723.216 1153.13 723.216 c 0
 1130.9 723.216 1111.65 715.235 1095.37 699.285 c 0
 1079.08 683.335 1071.38 662.655 1072.27 637.245 c 1
 984.566 586.635 l 2
 982.406 585.465 979.437 584.885 975.646 584.885 c 0
 971.856 584.885 965.456 588.125 956.446 594.605 c 2
 684.496 773.955 l 1
 606.996 773.735 l 1
 337.286 594.535 l 2
 328.306 588.115 321.886 584.905 318.036 584.905 c 0
 314.187 584.905 311.236 585.485 309.187 586.636 c 2
 221.507 637.266 l 1
 222.387 662.716 214.687 683.406 198.417 699.336 c 0
 182.147 715.266 162.897 723.226 140.667 723.226 c 0
 118.437 723.226 99.4365 715.336 83.6768 699.566 c 0
 67.917 683.797 60.0371 664.767 60.0371 642.477 c 0
 60.0371 620.187 67.917 601.156 83.6768 585.387 c 0
 99.4365 569.617 117.706 561.848 138.486 562.088 c 0
 159.267 562.328 176.786 567.979 191.036 579.049 c 1
 317.376 506.099 l 1
 317.376 348.209 l 2
 317.376 343.129 318.576 339.789 320.977 338.199 c 2
 406.696 253.069 l 1
 244.196 159.229 l 1
 231.066 167.829 214.717 172.229 195.146 172.43 c 0
 175.576 172.63 157.906 164.84 142.137 149.07 c 0
 126.367 133.301 118.478 114.271 118.478 91.9902 c 0
 118.478 69.71 126.367 50.6797 142.137 34.9102 c 0
 157.906 19.1406 176.937 11.251 199.217 11.251 c 0
 221.497 11.251 240.527 19.1406 256.297 34.9102 c 0
 272.066 50.6797 279.956 69.71 279.956 91.9902 c 2
 279.356 103.67 l 1
 460.736 208.4 l 1
 460.736 27.6807 l 2
 460.736 23.7305 462.116 20.3701 464.886 17.6006 c 0
 467.655 14.8311 471.016 13.4512 474.966 13.4512 c 2
 818.855 13.4512 l 2
 822.806 13.4512 826.166 14.8311 828.936 17.6006 c 0
 831.705 20.3701 833.085 23.7305 833.085 27.6807 c 2
 833.085 208.341 l 1
 1014.41 103.671 l 1
 1013.81 91.9912 l 2
 1013.81 69.7109 1021.7 50.6807 1037.46 34.9111 c 0
 1053.23 19.1416 1072.26 11.252 1094.55 11.252 c 0
 1116.84 11.252 1135.88 19.1416 1151.64 34.9111 c 0
 1167.41 50.6807 1175.3 69.7109 1175.3 91.9912 c 0
 1175.3 114.271 1167.41 133.302 1151.64 149.071 c 0
 1135.88 164.841 1118.21 172.631 1098.65 172.44 c 0
 1079.08 172.25 1062.73 167.85 1049.59 159.229 c 1
 887.066 253.02 l 1
 966.206 332.159 l 2
 972.506 338.449 973.436 339.569 968.995 335.52 c 1
 973.745 338.35 976.226 342.59 976.436 348.229 c 2
 976.436 506.18 l 1
 1102.73 579.069 l 1
424.148 383.858 m 1
 424.129 383.877 l 1
 405.759 383.877 396.568 390.577 396.568 403.978 c 2
 396.568 527.878 l 2
 396.568 547.028 404.878 556.599 421.498 556.599 c 0
 426.938 556.019 430.729 555.118 432.858 553.888 c 2
 611.839 464.657 l 2
 618.509 460.808 621.849 456.288 621.849 451.108 c 1
 620.639 449.248 619.528 446.948 618.528 444.208 c 0
 617.528 441.468 614.618 439.448 609.788 438.158 c 2
 438.328 386.229 l 2
 433.938 384.648 429.208 383.858 424.148 383.858 c 1
897.209 403.977 m 1
 897.217 403.988 l 1
 895.037 390.588 885.847 383.888 869.646 383.888 c 0
 864.587 383.888 859.856 384.678 855.467 386.258 c 2
 684.007 438.188 l 2
 675.957 441.468 671.938 445.737 671.938 450.997 c 0
 671.938 456.257 675.277 460.816 681.947 464.666 c 2
 860.928 553.896 l 2
 865.638 555.677 869.418 556.577 872.278 556.607 c 2
 872.608 556.607 l 2
 889.009 556.607 897.209 547.027 897.209 527.877 c 2
 897.209 403.977 l 1
643.887 282.758 m 1
 640.687 273.349 l 1
 625.066 274.688 609.297 277.818 593.377 282.738 c 1
 590.067 285.389 588.277 289.119 587.997 293.929 c 2
 588.057 295.528 l 1
 629.007 404.538 l 1
 638.727 413.688 l 2
 641.267 415.438 643.776 416.389 646.257 416.539 c 2
 647.487 416.539 l 1
 654.207 414.239 659.997 410.239 664.867 404.539 c 1
 705.808 295.539 l 1
 705.878 293.579 l 2
 705.578 289.009 703.778 285.398 700.488 282.748 c 1
 684.618 277.848 668.888 274.728 653.308 273.388 c 1
 649.777 282.978 l 1
 648.877 282.777 647.927 282.678 646.927 282.678 c 0
 646.026 282.678 645.017 282.708 643.887 282.758 c 1
474.986 23.4287 m 1
 474.964 23.4375 l 1
 472.144 23.4375 470.733 24.8477 470.733 27.668 c 2
 470.733 225.708 l 1
 268.964 109.208 l 1
 269.794 96.7783 l 2
 269.904 95.1279 269.954 93.5283 269.954 91.9785 c 0
 269.954 72.459 263.044 55.7891 249.224 41.9688 c 0
 235.403 28.1484 218.733 21.2383 199.214 21.2383 c 0
 179.694 21.2383 163.024 28.1484 149.204 41.9688 c 0
 135.384 55.7891 128.474 72.459 128.474 91.9785 c 0
 128.474 111.498 135.384 128.168 149.204 141.988 c 0
 163.024 155.809 177.935 162.719 193.944 162.719 c 0
 209.954 162.719 223.384 159.608 234.244 153.398 c 2
 244.225 147.688 l 1
 422.994 250.919 l 1
 334.694 339.219 l 1
 333.814 340.608 l 1
 330.814 342.278 328.675 344.809 327.395 348.198 c 1
 327.395 511.858 l 1
 190.635 590.818 l 1
 180.274 583.809 l 2
 168.345 575.749 153.895 571.719 136.925 571.719 c 0
 119.955 571.719 104.565 578.629 90.7559 592.449 c 0
 76.9463 606.27 70.0459 622.939 70.0459 642.47 c 0
 70.0459 662 76.9463 678.67 90.7559 692.49 c 0
 104.565 706.311 121.205 713.221 140.686 713.221 c 0
 160.166 713.221 176.806 706.36 190.605 692.641 c 0
 204.405 678.921 211.365 662.351 211.485 642.931 c 2
 211.556 631.471 l 1
 304.246 577.951 l 2
 314.326 572.271 327.236 575.062 342.977 586.312 c 2
 612.307 765.271 l 1
 678.877 765.712 l 1
 950.697 586.462 l 2
 961.837 578.752 970.146 574.902 975.637 574.902 c 0
 981.127 574.902 985.737 575.912 989.468 577.932 c 2
 1082.26 631.481 l 1
 1082.33 642.951 l 2
 1082.45 662.371 1089.41 678.941 1103.22 692.661 c 0
 1117.02 706.381 1133.66 713.241 1153.14 713.241 c 0
 1172.61 713.241 1189.25 706.331 1203.06 692.511 c 0
 1216.87 678.69 1223.77 662.021 1223.77 642.49 c 0
 1223.77 622.96 1216.87 606.29 1203.06 592.47 c 0
 1189.25 578.649 1173.86 571.739 1156.89 571.739 c 0
 1139.92 571.739 1125.47 575.77 1113.54 583.84 c 2
 1103.17 590.84 l 1
 966.468 511.93 l 1
 966.468 348.21 l 2
 966.258 346.15 965.228 344.71 963.378 343.89 c 1
 870.808 250.859 l 1
 1049.59 147.68 l 1
 1059.56 153.39 l 2
 1070.42 159.6 1083.85 162.71 1099.86 162.71 c 0
 1115.87 162.71 1130.78 155.8 1144.6 141.979 c 0
 1158.42 128.159 1165.33 111.489 1165.33 91.9697 c 0
 1165.33 72.4502 1158.42 55.7803 1144.6 41.96 c 0
 1130.78 28.1396 1114.11 21.2295 1094.58 21.2295 c 0
 1075.05 21.2295 1058.38 28.1396 1044.56 41.96 c 0
 1030.74 55.7803 1023.83 72.4502 1023.83 91.9697 c 0
 1023.83 93.5195 1023.89 95.1191 1024 96.7695 c 2
 1024.83 109.199 l 1
 823.106 225.64 l 1
 823.106 27.6592 l 2
 823.106 24.8389 821.696 23.4287 818.876 23.4287 c 2
 474.986 23.4287 l 1
437.574 562.697 m 1
 437.562 562.696 l 1
 433.173 565.227 427.843 566.526 421.573 566.597 c 2
 421.184 566.597 l 2
 412.344 566.597 404.363 563.606 397.243 557.637 c 0
 390.123 551.667 386.563 541.747 386.563 527.867 c 2
 386.563 403.967 l 2
 386.563 387.787 391.924 378.728 402.644 376.787 c 0
 413.363 374.847 421.173 373.877 426.073 373.877 c 0
 430.974 373.877 436.084 374.827 441.404 376.737 c 2
 612.524 428.567 l 2
 625.395 432.018 631.824 438.897 631.824 449.197 c 0
 631.824 459.497 626.734 467.587 616.555 473.467 c 2
 437.574 562.697 l 1
872.553 566.606 m 2
 872.15 566.587 l 2
 865.881 566.517 860.551 565.217 856.161 562.687 c 2
 677.181 473.456 l 2
 667.001 467.576 661.911 459.486 661.911 449.187 c 0
 661.911 438.887 668.341 432.007 681.211 428.557 c 2
 852.331 376.727 l 2
 857.651 374.816 862.762 373.866 867.662 373.866 c 0
 872.562 373.866 877.793 374.366 883.353 375.376 c 0
 888.912 376.386 894.272 379.376 899.433 384.356 c 0
 904.593 389.337 907.173 395.877 907.173 403.977 c 2
 907.173 527.877 l 2
 907.173 541.757 903.613 551.677 896.493 557.646 c 0
 889.373 563.616 881.393 566.606 872.553 566.606 c 2
673.46 409.887 m 1
 662.899 420.286 l 2
 661.97 421.017 659.42 422.156 655.25 423.696 c 0
 651.08 425.236 648.67 426.177 648.03 426.517 c 1
 646.8 426.587 l 2
 641.03 426.437 636.83 425.276 634.2 423.106 c 2
 620.3 409.916 l 1
 578.06 297.476 l 1
 577.659 287.016 580.949 279.155 587.93 273.896 c 1
 603.1 269.155 617.649 265.955 631.569 264.285 c 2
 647.499 262.535 l 1
 662.129 264.285 l 2
 676.079 265.945 690.649 269.146 705.84 273.886 c 1
 711.88 278.666 715.21 285.286 715.82 293.736 c 2
 715.69 297.486 l 1
 673.46 409.887 l 1
EndSplineSet
EndChar

StartChar: uniF009
Encoding: 61449 61449 206
Width: 1293
Flags: MW
HStem: 3.45 10 172.46 10.28 406.41 10.14 546.62 10 551.76 10.38 723.26 10 773.99 8.25999
VStem: 50 10 108.43 10 221.48 9.96001 279.93 10 307.34 10 396.53 10 450.7 10 833.06 10 887.18 10 976.42 10 1003.78 10 1062.27 9.96001 1175.28 10 1233.71 10
LayerCount: 2
Fore
SplineSet
690.1 782.25 m 1xeffff8
 962.214 602.809 l 2
 971.634 596.599 977.454 594.129 979.674 595.409 c 2
 1062.29 643.089 l 1
 1062.44 668.009 1071.37 689.269 1089.08 706.868 c 0
 1106.78 724.468 1128.1 733.268 1153.04 733.268 c 0
 1178.08 733.268 1199.46 724.407 1217.17 706.688 c 0
 1234.88 688.968 1243.74 667.578 1243.74 642.528 c 0
 1243.74 617.479 1234.88 596.089 1217.17 578.358 c 0
 1199.46 560.639 1179.71 551.778 1157.95 551.778 c 0
 1136.18 551.778 1117.63 556.958 1102.31 567.308 c 1
 986.436 500.428 l 1
 986.436 348.258 l 2
 986.436 339.658 982.855 332.948 975.686 328.118 c 2
 974.916 326.958 974.116 325.958 973.276 325.118 c 2
 903.356 255.198 l 1
 1049.61 170.798 l 1
 1063.54 178.768 1080.78 182.758 1101.32 182.758 c 0
 1121.86 182.758 1140.99 173.897 1158.72 156.167 c 0
 1176.45 138.437 1185.31 117.047 1185.31 92.0068 c 0
 1185.31 66.9668 1176.45 45.5771 1158.72 27.8467 c 0
 1140.99 10.1162 1119.6 1.25586 1094.55 1.25586 c 0
 1069.5 1.25586 1048.11 10.1162 1030.38 27.8467 c 0
 1012.65 45.5771 1003.79 66.9668 1003.79 92.0068 c 0
 1003.79 94.0068 1003.86 96.0566 1004 98.1465 c 1
 843.066 191.047 l 1
 843.066 27.707 l 2
 843.066 20.9971 840.706 15.2773 835.986 10.5576 c 0
 831.267 5.83789 825.547 3.47754 818.837 3.47754 c 2
 474.947 3.47754 l 2
 468.228 3.47754 462.508 5.83789 457.788 10.5576 c 0
 453.068 15.2773 450.708 20.9971 450.708 27.707 c 2
 450.708 191.107 l 1
 289.728 98.1572 l 1
 289.867 96.0674 289.938 94.0176 289.938 92.0176 c 0
 289.938 66.9775 281.077 45.5879 263.347 27.8574 c 0
 245.616 10.127 224.227 1.2666 199.187 1.2666 c 0
 174.137 1.2666 152.747 10.127 135.017 27.8574 c 0
 117.286 45.5879 108.426 66.9775 108.426 92.0176 c 0
 108.426 117.058 117.286 138.447 135.017 156.178 c 0
 152.747 173.908 171.877 182.769 192.417 182.769 c 0
 212.957 182.769 230.197 178.778 244.127 170.809 c 1
 390.367 255.259 l 1
 320.497 325.129 l 2
 319.657 325.969 318.837 326.979 318.037 328.169 c 2
 310.907 332.959 307.337 339.659 307.337 348.259 c 2
 307.337 500.379 l 1
 191.407 567.309 l 1
 176.087 556.959 157.547 551.779 135.777 551.779 c 0
 114.008 551.779 94.2676 560.64 76.5576 578.37 c 0
 58.8477 596.09 49.9873 617.479 49.9873 642.529 c 0
 49.9873 667.579 58.8477 688.969 76.5576 706.688 c 0
 94.2676 724.408 115.647 733.269 140.688 733.269 c 0
 165.628 733.269 186.948 724.469 204.648 706.869 c 0
 222.349 689.27 231.278 668.01 231.438 643.09 c 1
 314.108 595.359 l 2
 316.339 594.069 322.159 596.55 331.569 602.8 c 2
 601.659 782.25 l 1
 690.1 782.25 l 1xeffff8
421.404 546.629 m 1xf7fff8
 421.414 546.627 l 1
 411.514 546.747 406.563 540.507 406.563 527.907 c 2
 406.563 470.888 l 1
 406.563 404.008 l 2
 406.563 398.958 409.943 395.818 416.693 394.599 c 0
 423.443 393.379 429.613 393.769 435.203 395.769 c 2
 511.783 418.379 l 1
 606.993 447.809 l 2
 613.413 449.528 613.443 452.219 607.094 455.889 c 2
 511.784 503.408 l 1
 428.114 545.108 l 2
 426.414 546.089 424.174 546.599 421.404 546.629 c 1xf7fff8
872.364 546.627 m 0
 869.595 546.599 867.354 546.089 865.654 545.108 c 2
 781.994 503.408 l 1
 686.685 455.889 l 2
 680.335 452.219 680.365 449.528 686.785 447.809 c 2
 781.995 418.379 l 1
 858.575 395.769 l 2
 864.165 393.769 870.335 393.379 877.085 394.599 c 0
 883.835 395.818 887.215 398.958 887.215 404.008 c 2
 887.215 470.888 l 1
 887.215 527.907 l 2
 887.215 540.507 882.265 546.747 872.364 546.627 c 0
656.194 399.179 m 1
 651.745 403.999 648.655 406.409 646.915 406.409 c 0
 645.175 406.409 642.075 403.999 637.625 399.179 c 1
 597.965 293.589 l 2
 597.915 292.869 598.175 292.209 598.755 291.599 c 1
 611.555 287.829 623.234 285.359 633.794 284.199 c 1
 642.344 306.6 l 1
 643.844 308.359 644.594 308.289 644.594 306.389 c 2
 644.544 294.799 l 2
 644.544 293.398 645.334 292.698 646.904 292.698 c 0
 648.444 292.698 649.214 293.398 649.214 294.799 c 2
 649.164 306.389 l 2
 649.164 308.289 649.914 308.359 651.414 306.6 c 1
 659.964 284.199 l 1
 670.574 285.369 682.274 287.839 695.064 291.599 c 1
 695.645 292.209 695.904 292.869 695.854 293.589 c 2
 656.194 399.179 l 1
1102.74 579.079 m 1
 1102.78 579.06 l 1
 1117.02 568.02 1134.53 562.369 1155.32 562.119 c 0
 1176.11 561.869 1194.38 569.629 1210.14 585.398 c 0
 1225.9 601.168 1233.78 620.198 1233.78 642.488 c 0
 1233.78 664.778 1225.9 683.809 1210.14 699.578 c 0
 1194.38 715.348 1175.38 723.237 1153.15 723.237 c 0
 1130.92 723.237 1111.67 715.257 1095.39 699.307 c 0
 1079.1 683.356 1071.4 662.677 1072.29 637.267 c 1
 984.586 586.656 l 2
 982.556 585.486 979.815 584.906 976.365 584.906 c 0
 972.915 584.906 966.275 588.146 956.455 594.627 c 2
 684.505 773.977 l 1
 607.005 773.757 l 1
 337.295 594.557 l 2
 327.635 588.137 321.035 584.927 317.505 584.927 c 0
 313.965 584.927 311.195 585.507 309.195 586.657 c 2
 221.516 637.287 l 1
 222.396 662.737 214.695 683.428 198.426 699.357 c 0
 182.156 715.287 162.906 723.247 140.676 723.247 c 0
 118.445 723.247 99.4453 715.357 83.6855 699.588 c 0
 67.9258 683.818 60.0459 664.788 60.0459 642.498 c 0
 60.0459 620.208 67.9258 601.178 83.6855 585.408 c 0
 99.4453 569.639 117.715 561.869 138.495 562.109 c 0
 159.275 562.35 176.795 568 191.045 579.07 c 1
 317.385 506.12 l 1
 317.385 348.23 l 2
 317.385 343.15 318.625 339.78 321.115 338.13 c 2
 406.705 253.09 l 1
 244.205 159.25 l 1
 231.075 167.85 214.726 172.25 195.155 172.45 c 0
 175.585 172.65 157.915 164.86 142.146 149.091 c 0
 126.376 133.321 118.486 114.291 118.486 92.0107 c 0
 118.486 69.7305 126.376 50.7002 142.146 34.9307 c 0
 157.915 19.1611 176.945 11.2715 199.226 11.2715 c 0
 221.506 11.2715 240.536 19.1611 256.306 34.9307 c 0
 272.075 50.7002 279.965 69.7305 279.965 92.0107 c 2
 279.365 103.69 l 1
 460.745 208.421 l 1
 460.745 27.7012 l 2
 460.745 23.751 462.125 20.3906 464.895 17.6211 c 0
 467.664 14.8516 471.024 13.4717 474.975 13.4717 c 2
 818.864 13.4717 l 2
 822.814 13.4717 826.175 14.8516 828.944 17.6211 c 0
 831.714 20.3906 833.094 23.751 833.094 27.7012 c 2
 833.094 208.361 l 1
 1014.41 103.691 l 1
 1013.81 92.0117 l 2
 1013.81 69.7314 1021.7 50.7012 1037.47 34.9316 c 0
 1053.24 19.1621 1072.27 11.2725 1094.56 11.2725 c 0
 1116.85 11.2725 1135.88 19.1621 1151.65 34.9316 c 0
 1167.42 50.7012 1175.31 69.7314 1175.31 92.0117 c 0
 1175.31 114.292 1167.42 133.322 1151.65 149.092 c 0
 1135.88 164.861 1118.21 172.651 1098.64 172.461 c 0
 1079.08 172.271 1062.73 167.87 1049.59 159.25 c 1
 887.075 253.04 l 1
 966.215 332.18 l 1
 969.005 335.529 l 1
 973.755 338.359 976.235 342.6 976.445 348.239 c 2
 976.445 506.189 l 1
 1102.74 579.079 l 1
432.889 553.89 m 2
 611.839 464.678 l 2
 618.509 460.828 621.849 456.309 621.849 451.129 c 1
 620.639 449.269 619.608 447.179 618.759 444.858 c 0
 617.829 442.309 615.879 440.429 612.909 439.219 c 0
 611.929 438.818 610.889 438.469 609.778 438.169 c 2
 514.698 408.779 l 1
 438.328 386.239 l 2
 433.938 384.659 429.208 383.869 424.148 383.869 c 0
 420.769 383.869 417.778 384.139 415.179 384.679 c 0
 412.579 385.219 410.539 385.778 409.049 386.368 c 0
 400.749 389.648 396.599 395.519 396.599 403.979 c 2
 396.599 527.879 l 2
 396.599 547.029 404.908 556.6 421.528 556.6 c 0
 425.948 556.13 428.878 555.62 430.318 555.08 c 0
 431.278 554.72 432.139 554.319 432.889 553.89 c 2
872.609 556.618 m 1
 872.58 556.612 l 1
 888.98 556.612 897.181 547.032 897.181 527.882 c 2
 897.181 403.981 l 1
 895.711 394.941 891.561 389.071 884.721 386.371 c 0
 882.94 385.671 880.73 385.081 878.08 384.601 c 0
 875.43 384.12 872.609 383.88 869.619 383.88 c 0
 864.56 383.88 859.829 384.67 855.439 386.25 c 2
 779.069 408.79 l 1
 683.989 438.18 l 2
 678.629 440.37 675.249 442.53 673.849 444.67 c 0
 672.559 446.64 671.919 448.79 671.919 451.12 c 0
 671.919 456.3 675.259 460.819 681.929 464.669 c 2
 860.909 553.899 l 2
 864.959 555.43 867.759 556.279 869.309 556.449 c 0
 870.259 556.549 871.249 556.608 872.279 556.618 c 2
 872.609 556.618 l 1
643.85 282.752 m 1
 640.649 273.343 l 1
 625.029 274.683 609.26 277.812 593.34 282.732 c 1
 590.03 285.383 588.24 289.113 587.96 293.923 c 2
 588.02 295.522 l 1
 628.97 404.532 l 1
 638.689 413.683 l 2
 641.229 415.433 643.739 416.383 646.22 416.533 c 2
 647.45 416.533 l 1
 654.17 414.233 659.96 410.233 664.83 404.533 c 1
 705.771 295.533 l 1
 705.841 293.573 l 2
 705.541 289.003 703.741 285.393 700.451 282.742 c 1
 684.581 277.842 668.851 274.722 653.271 273.382 c 1
 649.74 282.972 l 1
 648.84 282.771 647.89 282.672 646.89 282.672 c 0
 645.989 282.672 644.979 282.702 643.85 282.752 c 1
EndSplineSet
EndChar

StartChar: uniF00A
Encoding: 61450 61450 207
Width: 200
Flags: MW
VStem: 50 100<400 1000>
LayerCount: 2
Fore
SplineSet
150 400 m 1
 50 400 l 1
 50 1000 l 1
 150 1000 l 1
 150 400 l 1
EndSplineSet
EndChar

StartChar: uniF00B
Encoding: 61451 61451 208
Width: 200
Flags: MW
VStem: 50 200
LayerCount: 2
Fore
SplineSet
50 450 m 2
 50 1000 l 1
 150 1000 l 1
 150 450 l 2
 150 416.66 133.33 399.99 99.9902 399.99 c 0
 66.6602 399.99 50 416.66 50 450 c 2
EndSplineSet
EndChar

StartChar: uniF00C
Encoding: 61452 61452 209
Width: 300
Flags: MW
VStem: 50 200<600 899.989>
LayerCount: 2
Fore
SplineSet
50 600 m 2
 50 899.989 l 1
 250 899.989 l 1
 250 599.989 l 2
 250 533.35 216.33 500.02 149 500 c 0
 83 500 50 533.33 50 600 c 2
EndSplineSet
EndChar

StartChar: figuredash
Encoding: 8210 8210 210
Width: 645
Flags: W
HStem: 500 300<50 595>
LayerCount: 2
Fore
SplineSet
595 500 m 5
 50 500 l 1
 50 800 l 1
 595 800 l 5
 595 500 l 5
EndSplineSet
EndChar

StartChar: endash
Encoding: 8211 8211 211
Width: 645
Flags: W
HStem: 500 300<50 595>
LayerCount: 2
Fore
SplineSet
595 500 m 5
 50 500 l 1
 50 800 l 1
 595 800 l 5
 595 500 l 5
EndSplineSet
EndChar

StartChar: emdash
Encoding: 8212 8212 212
Width: 995
Flags: W
HStem: 500 300<50 945>
LayerCount: 2
Fore
SplineSet
945 500 m 5
 50 500 l 1
 50 800 l 1
 945 800 l 5
 945 500 l 5
EndSplineSet
EndChar

StartChar: afii00208
Encoding: 8213 8213 213
Width: 995
Flags: W
HStem: 500 300<50 945>
LayerCount: 2
Fore
SplineSet
945 500 m 5
 50 500 l 1
 50 800 l 1
 945 800 l 5
 945 500 l 5
EndSplineSet
EndChar

StartChar: guilsinglleft
Encoding: 8249 8249 215
Width: 550
Flags: HW
HStem: 800 0<1180 1220>
LayerCount: 2
Fore
SplineSet
350 650 m 1
 500 500 l 1
 350 350 l 1
 500 200 l 1
 350 50 l 1
 50 350 l 1
 350 650 l 1
EndSplineSet
EndChar

StartChar: guilsinglright
Encoding: 8250 8250 216
Width: 550
Flags: HW
HStem: -100 0<-670 -630>
LayerCount: 2
Fore
SplineSet
200 50 m 1
 50 200 l 1
 200 350 l 1
 50 500 l 1
 200 650 l 1
 500 350 l 1
 200 50 l 1
EndSplineSet
EndChar
